<svg xmlns="http://www.w3.org/2000/svg" width="16" height="16" viewBox="0 0 16 16" fill="none">
  <path d="M8.29789 10.5846L12.6847 5.98051C12.758 5.90369 12.7988 5.80163 12.7988 5.69549C12.7988 5.58935 12.758 5.48729 12.6847 5.41047L12.6798 5.40551C12.6443 5.36814 12.6015 5.33838 12.5542 5.31805C12.5068 5.29771 12.4558 5.28723 12.4043 5.28723C12.3527 5.28723 12.3017 5.29771 12.2543 5.31805C12.207 5.33838 12.1642 5.36814 12.1287 5.40551L7.998 9.74114L3.86891 5.40551C3.83341 5.36814 3.79068 5.33838 3.74331 5.31805C3.69595 5.29772 3.64494 5.28723 3.59339 5.28723C3.54185 5.28723 3.49084 5.29772 3.44347 5.31805C3.39611 5.33838 3.35337 5.36814 3.31787 5.40551L3.31291 5.41047C3.23968 5.48729 3.19883 5.58935 3.19883 5.69549C3.19883 5.80163 3.23968 5.90369 3.31291 5.98051L7.69976 10.5846C7.73834 10.6251 7.78474 10.6574 7.83615 10.6794C7.88756 10.7014 7.9429 10.7128 7.99883 10.7128C8.05476 10.7128 8.1101 10.7014 8.16151 10.6794C8.21292 10.6574 8.25932 10.6251 8.29789 10.5846Z" fill="#717171" stroke="#717171"/>
</svg>