<svg xmlns="http://www.w3.org/2000/svg" width="16" height="17" viewBox="0 0 16 17" fill="none">
  <g clip-path="url(#clip0_10316_435825)">
    <circle cx="8" cy="8.5" r="7.5" stroke="#878A8E"/>
    <path d="M8.30823 9.89117C8.30823 9.69917 8.37543 9.52637 8.50023 9.38237C8.61543 9.23837 8.88423 9.06557 9.29703 8.87357C9.77703 8.63357 10.1034 8.38397 10.2762 8.11517C10.449 7.85597 10.5354 7.52957 10.5354 7.12637C10.5354 6.53117 10.3146 6.06077 9.87303 5.70557C9.43143 5.35037 8.81703 5.16797 8.04903 5.16797C7.19463 5.16797 6.55143 5.35997 6.10983 5.74397C5.66823 6.12797 5.45703 6.69437 5.45703 7.43357V7.62557H6.40743V7.48157C6.40743 6.98237 6.54183 6.60797 6.81063 6.35837C7.07943 6.10877 7.48263 5.98397 8.02983 5.98397C8.51943 5.98397 8.89383 6.08957 9.16263 6.30077C9.43143 6.51197 9.56583 6.80957 9.56583 7.18397C9.56583 7.43357 9.49863 7.63517 9.36423 7.79837C9.22983 7.97117 8.95143 8.15357 8.51943 8.34557C8.04903 8.55677 7.74183 8.76797 7.58823 8.97917C7.43463 9.19037 7.36743 9.43997 7.36743 9.73757V9.96797C7.36743 10.0448 7.36743 10.1216 7.36743 10.2176C7.36743 10.3136 7.37703 10.3712 7.38663 10.3904C7.40583 10.3712 7.46343 10.352 7.54983 10.3328C7.63623 10.3136 7.73223 10.304 7.84743 10.304C7.95303 10.304 8.04903 10.3136 8.12583 10.3328C8.20263 10.352 8.26023 10.3712 8.29863 10.3904L8.30823 9.89117ZM8.54823 11.5136C8.54823 11.2832 8.49063 11.1104 8.38503 10.9952C8.26983 10.88 8.09703 10.8224 7.86663 10.8224C7.61703 10.8224 7.44423 10.88 7.33863 10.9952C7.22343 11.1104 7.17543 11.2832 7.17543 11.5136C7.17543 11.7632 7.22343 11.9456 7.32903 12.0512C7.43463 12.1568 7.61703 12.2048 7.86663 12.2048C8.09703 12.2048 8.26983 12.1568 8.38503 12.0416C8.49063 11.9264 8.54823 11.7536 8.54823 11.5136Z" fill="#878A8E"/>
  </g>
  <defs>
    <clipPath id="clip0_10316_435825">
      <rect width="16" height="16" fill="white" transform="translate(0 0.5)"/>
    </clipPath>
  </defs>
</svg>