<svg width="25" height="25" viewBox="0 0 25 25" fill="none" xmlns="http://www.w3.org/2000/svg">
<g id="ant-design:drag-outlined">
<path id="Vector" d="M22.1035 12.0478L19.1129 9.68769C19.0879 9.668 19.0578 9.65577 19.0261 9.65238C18.9945 9.64899 18.9625 9.65459 18.9339 9.66853C18.9053 9.68248 18.8812 9.7042 18.8643 9.73121C18.8475 9.75823 18.8386 9.78944 18.8387 9.82128V11.3377H13.6355V6.13456H15.1543C15.2949 6.13456 15.3746 5.9705 15.2879 5.86034L12.9254 2.86972C12.9097 2.84948 12.8897 2.83309 12.8667 2.82182C12.8438 2.81055 12.8185 2.80469 12.793 2.80469C12.7674 2.80469 12.7422 2.81055 12.7192 2.82182C12.6962 2.83309 12.6762 2.84948 12.6605 2.86972L10.298 5.86034C10.2784 5.88536 10.2661 5.91542 10.2627 5.94708C10.2593 5.97873 10.2649 6.0107 10.2789 6.03932C10.2928 6.06794 10.3146 6.09206 10.3416 6.1089C10.3686 6.12574 10.3998 6.13464 10.4316 6.13456H11.948V11.3377H6.74491V9.81894C6.74491 9.67831 6.58085 9.59862 6.47069 9.68534L3.48007 12.0478C3.45983 12.0635 3.44345 12.0835 3.43217 12.1065C3.4209 12.1295 3.41504 12.1547 3.41504 12.1803C3.41504 12.2058 3.4209 12.2311 3.43217 12.254C3.44345 12.277 3.45983 12.297 3.48007 12.3127L6.46835 14.6752C6.57851 14.7619 6.74257 14.6846 6.74257 14.5416V13.0252H11.9457V18.2283H10.4269C10.2863 18.2283 10.2066 18.3924 10.2933 18.5025L12.6558 21.4908C12.7238 21.5775 12.8551 21.5775 12.9207 21.4908L15.2832 18.5025C15.3699 18.3924 15.2926 18.2283 15.1496 18.2283H13.6355V13.0252H18.8387V14.5439C18.8387 14.6846 19.0027 14.7642 19.1129 14.6775L22.1012 12.315C22.1213 12.2992 22.1377 12.279 22.149 12.256C22.1603 12.2329 22.1663 12.2077 22.1665 12.182C22.1668 12.1563 22.1612 12.131 22.1503 12.1077C22.1394 12.0845 22.1234 12.064 22.1035 12.0478Z" fill="white"/>
</g>
</svg>
