<svg width="24" height="25" viewBox="0 0 24 25" fill="none" xmlns="http://www.w3.org/2000/svg">
<g id="fluent:filter-24-filled">
<path id="Vector" d="M9.99987 16.9602H13.9999C14.2547 16.9605 14.4999 17.0581 14.6852 17.2331C14.8706 17.408 14.9821 17.6472 14.997 17.9016C15.012 18.156 14.9292 18.4066 14.7656 18.602C14.602 18.7975 14.37 18.9231 14.1169 18.9532L13.9999 18.9602H9.99987C9.74499 18.9599 9.49984 18.8623 9.3145 18.6874C9.12916 18.5124 9.01763 18.2733 9.0027 18.0188C8.98776 17.7644 9.07054 17.5138 9.23413 17.3184C9.39772 17.1229 9.62977 16.9973 9.88287 16.9672L9.99987 16.9602ZM7.99987 11.9602H15.9999C16.2547 11.9605 16.4999 12.0581 16.6852 12.2331C16.8706 12.408 16.9821 12.6472 16.997 12.9016C17.012 13.156 16.9292 13.4066 16.7656 13.602C16.602 13.7975 16.37 13.9231 16.1169 13.9532L15.9999 13.9602H7.99987C7.74499 13.9599 7.49984 13.8623 7.3145 13.6874C7.12916 13.5124 7.01763 13.2733 7.0027 13.0188C6.98776 12.7644 7.07054 12.5138 7.23413 12.3184C7.39772 12.1229 7.62977 11.9973 7.88287 11.9672L7.99987 11.9602ZM4.99987 6.96021H18.9999C19.2547 6.96049 19.4999 7.05808 19.6852 7.23305C19.8706 7.40802 19.9821 7.64716 19.997 7.9016C20.012 8.15604 19.9292 8.40658 19.7656 8.60204C19.602 8.79749 19.37 8.9231 19.1169 8.95321L18.9999 8.96021H4.99987C4.74499 8.95992 4.49984 8.86233 4.3145 8.68736C4.12916 8.51239 4.01763 8.27325 4.0027 8.01881C3.98776 7.76437 4.07054 7.51383 4.23413 7.31837C4.39772 7.12292 4.62977 6.99731 4.88287 6.96721L4.99987 6.96021Z" fill="#BCBCBC"/>
</g>
</svg>
