<svg width="20" height="21" viewBox="0 0 20 21" fill="none" xmlns="http://www.w3.org/2000/svg">
<g id="icon-park:list-two">
<g id="Group">
<path id="Vector" d="M3.74967 18.4602C4.67013 18.4602 5.41634 17.714 5.41634 16.7935C5.41634 15.873 4.67013 15.1268 3.74967 15.1268C2.8292 15.1268 2.08301 15.873 2.08301 16.7935C2.08301 17.714 2.8292 18.4602 3.74967 18.4602Z" stroke="#BCBCBC" stroke-width="1.5" stroke-linejoin="round"/>
<path id="Vector_2" d="M3.74967 6.79354C4.67013 6.79354 5.41634 6.04737 5.41634 5.12687C5.41634 4.2064 4.67013 3.46021 3.74967 3.46021C2.8292 3.46021 2.08301 4.2064 2.08301 5.12687C2.08301 6.04737 2.8292 6.79354 3.74967 6.79354Z" stroke="#BCBCBC" stroke-width="1.5" stroke-linejoin="round"/>
<path id="Vector_3" d="M3.74967 12.6269C4.67013 12.6269 5.41634 11.8807 5.41634 10.9602C5.41634 10.0397 4.67013 9.29358 3.74967 9.29358C2.8292 9.29358 2.08301 10.0397 2.08301 10.9602C2.08301 11.8807 2.8292 12.6269 3.74967 12.6269Z" stroke="#BCBCBC" stroke-width="1.5" stroke-linejoin="round"/>
<path id="Vector_4" d="M8.75 10.9602H17.9167" stroke="#BCBCBC" stroke-width="1.5" stroke-linecap="round" stroke-linejoin="round"/>
<path id="Vector_5" d="M8.75 16.7936H17.9167" stroke="#BCBCBC" stroke-width="1.5" stroke-linecap="round" stroke-linejoin="round"/>
<path id="Vector_6" d="M8.75 5.12683H17.9167" stroke="#BCBCBC" stroke-width="1.5" stroke-linecap="round" stroke-linejoin="round"/>
</g>
</g>
</svg>
