<svg width="24" height="25" viewBox="0 0 24 25" fill="none" xmlns="http://www.w3.org/2000/svg">
<g id="iconamoon:history">
<g id="Group">
<path id="Vector" d="M5.636 19.3243C7.10845 20.7967 9.04594 21.713 11.1183 21.917C13.1906 22.1211 15.2696 21.6001 17.0009 20.443C18.7322 19.286 20.0087 17.5643 20.6129 15.5715C21.217 13.5787 21.1115 11.4381 20.3142 9.5144C19.5169 7.59072 18.0772 6.00303 16.2404 5.0219C14.4037 4.04078 12.2835 3.72693 10.2413 4.13385C8.19909 4.54076 6.36116 5.64326 5.04073 7.25345C3.72031 8.86365 2.99909 10.8819 3 12.9643V14.9603" stroke="#BCBCBC" stroke-width="1.5" stroke-linecap="round" stroke-linejoin="round"/>
<path id="Vector_2" d="M1 12.9602L3 14.9602L5 12.9602M11 8.96021V13.9602H16" stroke="#BCBCBC" stroke-width="1.5" stroke-linecap="round" stroke-linejoin="round"/>
</g>
</g>
</svg>
