<svg width="24" height="25" viewBox="0 0 24 25" fill="none" xmlns="http://www.w3.org/2000/svg">
<g id="tabler:bulb">
<path id="Vector" d="M3 12.9602H4M12 3.96021V4.96021M20 12.9602H21M5.6 6.5602L6.3 7.26021M18.4 6.5602L17.7 7.26021M9.7 17.9602H14.3M9 16.9602C8.16047 16.3306 7.54033 15.4527 7.22743 14.451C6.91453 13.4494 6.92473 12.3746 7.25658 11.3791C7.58844 10.3835 8.22512 9.5176 9.07645 8.90399C9.92778 8.29039 10.9506 7.96021 12 7.96021C13.0494 7.96021 14.0722 8.29039 14.9236 8.90399C15.7749 9.5176 16.4116 10.3835 16.7434 11.3791C17.0753 12.3746 17.0855 13.4494 16.7726 14.451C16.4597 15.4527 15.8395 16.3306 15 16.9602C14.6096 17.3467 14.3156 17.8197 14.1419 18.3408C13.9681 18.862 13.9195 19.4168 14 19.9602C14 20.4906 13.7893 20.9993 13.4142 21.3744C13.0391 21.7495 12.5304 21.9602 12 21.9602C11.4696 21.9602 10.9609 21.7495 10.5858 21.3744C10.2107 20.9993 10 20.4906 10 19.9602C10.0805 19.4168 10.0319 18.862 9.85813 18.3408C9.6844 17.8197 9.39043 17.3467 9 16.9602Z" stroke="#BCBCBC" stroke-width="1.5" stroke-linecap="round" stroke-linejoin="round"/>
</g>
</svg>
