<svg xmlns="http://www.w3.org/2000/svg" width="24" height="25" viewBox="0 0 24 25" fill="none">
  <path d="M15.8762 12.0934L8.96997 5.51311C8.85474 5.40326 8.70164 5.34198 8.54244 5.34198C8.38324 5.34198 8.23014 5.40326 8.11491 5.51311L8.10747 5.52055C8.05142 5.5738 8.00678 5.6379 7.97628 5.70895C7.94578 5.78 7.93005 5.85651 7.93005 5.93383C7.93005 6.01115 7.94578 6.08766 7.97628 6.1587C8.00678 6.22975 8.05142 6.29385 8.10747 6.34711L14.6109 12.5432L8.10747 18.7369C8.05142 18.7901 8.00678 18.8542 7.97628 18.9253C7.94578 18.9963 7.93005 19.0728 7.93005 19.1501C7.93005 19.2275 7.94578 19.304 7.97628 19.375C8.00678 19.4461 8.05142 19.5102 8.10747 19.5634L8.11491 19.5708C8.23014 19.6807 8.38324 19.742 8.54244 19.742C8.70164 19.742 8.85474 19.6807 8.96997 19.5708L15.8762 12.9906C15.9369 12.9327 15.9852 12.8631 16.0183 12.786C16.0513 12.7089 16.0684 12.6259 16.0684 12.542C16.0684 12.4581 16.0513 12.3751 16.0183 12.298C15.9852 12.2208 15.9369 12.1512 15.8762 12.0934Z" fill="white" stroke="white" stroke-width="0.5"/>
</svg>