<svg xmlns="http://www.w3.org/2000/svg" width="33" height="33" viewBox="0 0 33 33" fill="none">
  <path fill-rule="evenodd" clip-rule="evenodd" d="M14.6385 8.48047C14.6355 8.75075 14.6915 9.02139 14.8139 9.26844C15.185 10.1021 16.2233 10.5482 17.0859 10.2391C17.8377 10.0073 18.3566 9.25201 18.3582 8.48047H14.6385ZM24.0307 8.4815C24.0281 8.64447 24.0242 8.80744 24.0138 8.97042C23.9207 10.467 23.3615 11.9299 22.4312 13.1077C22.161 13.4599 21.8452 13.7714 21.5297 14.0827C21.4287 14.1824 21.3277 14.282 21.2282 14.383C20.1052 15.5037 18.9819 16.624 17.8585 17.7443C16.5081 19.0911 15.1576 20.438 13.8076 21.7856C13.0941 22.4882 12.6852 23.4783 12.6839 24.4776C11.4458 24.4783 10.2076 24.4789 8.97005 24.477C8.97266 24.3354 8.97591 24.1945 8.98177 24.0536C9.07486 22.272 9.83717 20.5351 11.0871 19.2592C12.3095 18.0394 13.5323 16.8198 14.7551 15.6002L14.7609 15.5945L14.7692 15.5863L14.7697 15.5857C16.2426 14.1167 17.7156 12.6477 19.188 11.178C19.9041 10.4748 20.3142 9.48272 20.3161 8.4815L20.9352 8.48114C21.9671 8.48051 22.9989 8.47987 24.0307 8.4815ZM23.8289 22.7424C23.9636 23.3106 24.0287 23.8943 24.0313 24.478C23.5122 24.4791 22.993 24.4787 22.4738 24.4783H22.4738H22.4738H22.4738H22.4732C21.7542 24.4778 21.035 24.4772 20.3161 24.4806C20.3116 23.7261 20.087 22.9723 19.6586 22.349C19.1619 21.6101 18.3963 21.064 17.5423 20.8147C17.9765 20.3831 18.4097 19.9507 18.8429 19.5183L18.8429 19.5183L18.8429 19.5183L18.8429 19.5183L18.8434 19.5178C19.344 19.0181 19.8446 18.5184 20.3467 18.0201C22.0823 19.0408 23.3719 20.7841 23.8289 22.7424ZM14.2573 13.341C14.6572 12.942 15.057 12.543 15.4575 12.1444C14.7049 11.9256 14.0208 11.4775 13.5299 10.8672C12.985 10.1984 12.6856 9.34201 12.6836 8.48104C12.0642 8.48136 11.445 8.48136 10.8257 8.48136C10.2064 8.48136 9.58719 8.48136 8.96777 8.48169C8.97038 9.29851 9.10058 10.1153 9.36358 10.8893C9.92994 12.5736 11.1212 14.0351 12.653 14.9396C13.1888 14.4075 13.723 13.8743 14.2573 13.3411L14.2573 13.3411L14.2573 13.341ZM18.286 23.9693C18.3379 24.136 18.3618 24.3075 18.3607 24.4783H14.6408C14.6472 23.8355 14.9884 23.1943 15.5622 22.8765C16.3311 22.409 17.4182 22.6148 17.9598 23.3323C18.1089 23.5206 18.2202 23.7381 18.286 23.9693Z" fill="white"/>
</svg>