<svg width="20" height="20" viewBox="0 0 20 20" fill="none" xmlns="http://www.w3.org/2000/svg">
<path d="M12.1292 12.5731C12.0189 12.4427 11.9637 12.2948 11.9637 12.1295C11.9637 11.9642 12.0189 11.8262 12.1292 11.7154L13.2427 10.602H8.92439C8.75386 10.602 8.61082 10.5442 8.49527 10.4287C8.37971 10.3131 8.32214 10.1703 8.32254 10.0002C8.32254 9.82964 8.38031 9.6866 8.49587 9.57104C8.61143 9.45549 8.75426 9.39791 8.92439 9.39831H13.2427L12.1292 8.28488C12.0089 8.16451 11.9487 8.02147 11.9487 7.85576C11.9487 7.69005 12.0089 7.54722 12.1292 7.42725C12.2396 7.30688 12.3776 7.24669 12.5433 7.24669C12.709 7.24669 12.8469 7.30186 12.9568 7.4122L15.1235 9.57887C15.1836 9.63905 15.2264 9.70425 15.2517 9.77447C15.2769 9.84468 15.2894 9.91992 15.289 10.0002C15.289 10.0804 15.2765 10.1556 15.2517 10.2259C15.2268 10.2961 15.184 10.3613 15.1235 10.4215L12.9568 12.5881C12.8264 12.7185 12.6834 12.7763 12.5277 12.7615C12.372 12.7466 12.2392 12.6838 12.1292 12.5731ZM5.91513 15.4168C5.58411 15.4168 5.30064 15.2989 5.06471 15.0629C4.82879 14.827 4.71103 14.5437 4.71143 14.2131V5.7872C4.71143 5.45618 4.82939 5.17271 5.06532 4.93678C5.30124 4.70086 5.58451 4.5831 5.91513 4.5835H9.52624C9.69676 4.5835 9.8398 4.64127 9.95536 4.75683C10.0709 4.87239 10.1285 5.01523 10.1281 5.18535C10.1281 5.35587 10.0703 5.49891 9.95476 5.61447C9.8392 5.73002 9.69636 5.7876 9.52624 5.7872H5.91513V14.2131H9.52624C9.69676 14.2131 9.8398 14.2709 9.95536 14.3865C10.0709 14.502 10.1285 14.6449 10.1281 14.815C10.1281 14.9855 10.0703 15.1285 9.95476 15.2441C9.8392 15.3597 9.69636 15.4172 9.52624 15.4168H5.91513Z" fill="#717171"/>
</svg>
