<svg xmlns="http://www.w3.org/2000/svg" width="10" height="17" viewBox="0 0 10 17" fill="none">
  <path d="M4.51153 16.542V14.9909C2.16646 14.8155 0.403047 13.5045 0.255326 11.3995L0.246094 11.2702H2.15723L2.1757 11.3718C2.35111 12.3596 3.01586 13.1536 4.51153 13.3106V9.27598L4.133 9.19289C1.76946 8.64817 0.52307 7.57719 0.52307 5.70298V5.69375C0.52307 3.64413 2.1757 2.26848 4.51153 2.09306V0.541992H5.55481V2.09306C7.83525 2.26848 9.45094 3.6072 9.59866 5.61989L9.60789 5.76761H7.68752L7.67829 5.68452C7.54904 4.61354 6.74581 3.9211 5.55481 3.77338V7.63259L5.99797 7.73414C8.44459 8.29733 9.75562 9.30368 9.75562 11.2702V11.2794C9.75562 13.5414 7.90911 14.834 5.55481 14.9909V16.542H4.51153ZM2.48037 5.58296C2.48037 6.43236 3.02509 7.0417 4.51153 7.39254V3.77338C3.18204 3.93957 2.48037 4.72434 2.48037 5.5645V5.58296ZM5.57327 9.52526L5.55481 9.51603V13.3291C7.15204 13.1998 7.79832 12.4243 7.79832 11.4364V11.4272C7.79832 10.4947 7.30899 9.93149 5.57327 9.52526Z" fill="white"/>
</svg>