<svg xmlns="http://www.w3.org/2000/svg" width="20" height="21" viewBox="0 0 20 21" fill="none">
  <path d="M16.4807 4.5697H3.51772C3.27215 4.5697 3.03664 4.66725 2.86299 4.8409C2.68935 5.01454 2.5918 5.25006 2.5918 5.49563V14.7549C2.5918 15.0005 2.68935 15.236 2.86299 15.4096C3.03664 15.5833 3.27215 15.6808 3.51772 15.6808H16.4807C16.7263 15.6808 16.9618 15.5833 17.1354 15.4096C17.3091 15.236 17.4066 15.0005 17.4066 14.7549V5.49563C17.4066 5.25006 17.3091 5.01454 17.1354 4.8409C16.9618 4.66725 16.7263 4.5697 16.4807 4.5697ZM15.7677 14.7549H4.28624L7.52698 11.403L6.86032 10.7595L3.51772 14.2178V6.19933L9.27235 11.9262C9.44584 12.0986 9.68051 12.1954 9.92513 12.1954C10.1697 12.1954 10.4044 12.0986 10.5779 11.9262L16.4807 6.05581V14.1577L13.0733 10.7503L12.4205 11.403L15.7677 14.7549ZM4.1242 5.49563H15.7307L9.92513 11.2688L4.1242 5.49563Z" fill="white" fill-opacity="0.6"/>
</svg>