<svg xmlns="http://www.w3.org/2000/svg" width="16" height="16" viewBox="0 0 16 16" fill="none">
  <path d="M8.0013 2.66699C8.70855 2.66699 9.38682 2.94794 9.88692 3.44804C10.387 3.94814 10.668 4.62641 10.668 5.33366C10.668 6.0409 10.387 6.71918 9.88692 7.21928C9.38682 7.71937 8.70855 8.00033 8.0013 8.00033C7.29406 8.00033 6.61578 7.71937 6.11568 7.21928C5.61559 6.71918 5.33464 6.0409 5.33464 5.33366C5.33464 4.62641 5.61559 3.94814 6.11568 3.44804C6.61578 2.94794 7.29406 2.66699 8.0013 2.66699ZM8.0013 9.33366C10.948 9.33366 13.3346 10.527 13.3346 12.0003V13.3337H2.66797V12.0003C2.66797 10.527 5.05464 9.33366 8.0013 9.33366Z" fill="white"/>
</svg>