<svg width="20" height="20" viewBox="0 0 20 20" fill="none" xmlns="http://www.w3.org/2000/svg">
<path d="M14.9306 10.3959C14.8344 10.2865 14.7813 10.1457 14.7813 10C14.7813 9.85428 14.8344 9.71353 14.9306 9.60405L15.6985 8.74017C15.7831 8.64579 15.8356 8.52702 15.8485 8.40092C15.8615 8.27482 15.8341 8.14786 15.7704 8.03827L14.5706 5.96255C14.5076 5.85308 14.4116 5.7663 14.2963 5.71459C14.181 5.66289 14.0524 5.64889 13.9287 5.67459L12.8008 5.90256C12.6573 5.93221 12.5079 5.90831 12.3808 5.83537C12.2537 5.76242 12.1577 5.64548 12.1109 5.50661L11.745 4.40876C11.7047 4.2896 11.6281 4.18611 11.5258 4.11291C11.4235 4.0397 11.3008 4.00049 11.1751 4.00082H8.77539C8.64457 3.99399 8.51511 4.03017 8.40678 4.10383C8.29845 4.17749 8.21722 4.28459 8.17547 4.40876L7.83952 5.50661C7.79273 5.64548 7.69672 5.76242 7.56962 5.83537C7.44253 5.90831 7.29312 5.93221 7.14961 5.90256L5.99177 5.67459C5.87452 5.65802 5.75498 5.67652 5.64823 5.72776C5.54147 5.77901 5.45227 5.8607 5.39185 5.96255L4.19202 8.03827C4.12672 8.14664 4.09736 8.27289 4.10814 8.39895C4.11891 8.52502 4.16927 8.64445 4.25201 8.74017L5.0139 9.60405C5.11008 9.71353 5.16312 9.85428 5.16312 10C5.16312 10.1457 5.11008 10.2865 5.0139 10.3959L4.25201 11.2598C4.16927 11.3556 4.11891 11.475 4.10814 11.601C4.09736 11.7271 4.12672 11.8534 4.19202 11.9617L5.39185 14.0375C5.4549 14.1469 5.5509 14.2337 5.66617 14.2854C5.78143 14.3371 5.91008 14.3511 6.03377 14.3254L7.16161 14.0974C7.30512 14.0678 7.45452 14.0917 7.58162 14.1646C7.70872 14.2376 7.80473 14.3545 7.85152 14.4934L8.21747 15.5912C8.25921 15.7154 8.34045 15.8225 8.44878 15.8962C8.5571 15.9698 8.68656 16.006 8.81739 15.9992H11.2171C11.3428 15.9995 11.4655 15.9603 11.5678 15.8871C11.6701 15.8139 11.7467 15.7104 11.787 15.5912L12.1529 14.4934C12.1997 14.3545 12.2957 14.2376 12.4228 14.1646C12.5499 14.0917 12.6993 14.0678 12.8428 14.0974L13.9707 14.3254C14.0944 14.3511 14.223 14.3371 14.3383 14.2854C14.4535 14.2337 14.5495 14.1469 14.6126 14.0375L15.8124 11.9617C15.8761 11.8521 15.9035 11.7252 15.8905 11.5991C15.8776 11.473 15.8251 11.3542 15.7404 11.2598L14.9306 10.3959ZM14.0367 11.1998L14.5166 11.7398L13.7487 13.0716L13.0408 12.9276C12.6087 12.8393 12.1593 12.9127 11.7777 13.1339C11.3962 13.355 11.1092 13.7086 10.9711 14.1274L10.7431 14.7993H9.20733L8.99136 14.1154C8.85329 13.6966 8.56625 13.343 8.18472 13.1219C7.80318 12.9007 7.35372 12.8273 6.92164 12.9156L6.21374 13.0596L5.43385 11.7338L5.91378 11.1938C6.20891 10.8639 6.37208 10.4367 6.37208 9.994C6.37208 9.5513 6.20891 9.12413 5.91378 8.79416L5.43385 8.25424L6.20174 6.93442L6.90965 7.0784C7.34172 7.16672 7.79118 7.09332 8.17272 6.87214C8.55425 6.65097 8.8413 6.2974 8.97936 5.87856L9.20733 5.20065H10.7431L10.9711 5.88456C11.1092 6.3034 11.3962 6.65696 11.7777 6.87814C12.1593 7.09932 12.6087 7.17272 13.0408 7.0844L13.7487 6.94042L14.5166 8.27223L14.0367 8.81216C13.7449 9.14137 13.5837 9.56607 13.5837 10.006C13.5837 10.4459 13.7449 10.8706 14.0367 11.1998ZM9.97523 7.60033C9.50062 7.60033 9.03667 7.74107 8.64204 8.00474C8.24742 8.26842 7.93985 8.6432 7.75822 9.08168C7.57659 9.52017 7.52907 10.0027 7.62166 10.4682C7.71426 10.9336 7.9428 11.3612 8.2784 11.6968C8.614 12.0324 9.04158 12.261 9.50708 12.3536C9.97257 12.4462 10.4551 12.3986 10.8935 12.217C11.332 12.0354 11.7068 11.7278 11.9705 11.3332C12.2342 10.9386 12.3749 10.4746 12.3749 10C12.3749 9.36357 12.1221 8.7532 11.6721 8.30317C11.222 7.85315 10.6117 7.60033 9.97523 7.60033ZM9.97523 11.1998C9.73792 11.1998 9.50595 11.1295 9.30864 10.9976C9.11132 10.8658 8.95754 10.6784 8.86672 10.4592C8.77591 10.2399 8.75215 9.99867 8.79845 9.76592C8.84474 9.53318 8.95902 9.31939 9.12682 9.15159C9.29462 8.98379 9.50841 8.86951 9.74115 8.82322C9.9739 8.77692 10.2151 8.80068 10.4344 8.8915C10.6536 8.98231 10.841 9.13609 10.9729 9.33341C11.1047 9.53072 11.1751 9.76269 11.1751 10C11.1751 10.3182 11.0487 10.6234 10.8236 10.8484C10.5986 11.0734 10.2934 11.1998 9.97523 11.1998Z" fill="#717171"/>
</svg>
