<svg xmlns="http://www.w3.org/2000/svg" width="18" height="15" viewBox="0 0 18 15" fill="none">
  <path d="M6.55 11.042L9 9.20449L11.4062 11.042L10.4875 8.06699L12.9375 6.14199H9.9625L9 3.16699L8.0375 6.14199H5.0625L7.46875 8.06699L6.55 11.042ZM2 14.542C1.51875 14.542 1.10692 14.3708 0.7645 14.0284C0.422083 13.6859 0.250583 13.2738 0.25 12.792V9.83887C0.25 9.67845 0.301042 9.53991 0.403125 9.42324C0.505208 9.30657 0.636458 9.23366 0.796875 9.20449C1.14687 9.08782 1.43504 8.87637 1.66137 8.57012C1.88771 8.26387 2.00058 7.92116 2 7.54199C2 7.16282 1.88712 6.82012 1.66137 6.51387C1.43562 6.20762 1.14746 5.99616 0.796875 5.87949C0.636458 5.85033 0.505208 5.77741 0.403125 5.66074C0.301042 5.54408 0.25 5.40553 0.25 5.24512V2.29199C0.25 1.81074 0.4215 1.39891 0.7645 1.05649C1.1075 0.714075 1.51933 0.542576 2 0.541992H16C16.4812 0.541992 16.8934 0.713492 17.2364 1.05649C17.5794 1.39949 17.7506 1.81133 17.75 2.29199V5.24512C17.75 5.40553 17.699 5.54408 17.5969 5.66074C17.4948 5.77741 17.3635 5.85033 17.2031 5.87949C16.8531 5.99616 16.5652 6.20762 16.3395 6.51387C16.1137 6.82012 16.0006 7.16282 16 7.54199C16 7.92116 16.1132 8.26387 16.3395 8.57012C16.5658 8.87637 16.8537 9.08782 17.2031 9.20449C17.3635 9.23366 17.4948 9.30657 17.5969 9.42324C17.699 9.53991 17.75 9.67845 17.75 9.83887V12.792C17.75 13.2732 17.5788 13.6854 17.2364 14.0284C16.894 14.3714 16.4818 14.5426 16 14.542H2ZM2 12.792H16V10.5607C15.4604 10.2399 15.0337 9.81349 14.7199 9.28149C14.406 8.74949 14.2494 8.16966 14.25 7.54199C14.25 6.91491 14.4069 6.33537 14.7207 5.80337C15.0346 5.27137 15.461 4.84466 16 4.52324V2.29199H2V4.52324C2.53958 4.84408 2.96629 5.27078 3.28012 5.80337C3.59396 6.33595 3.75058 6.91549 3.75 7.54199C3.75 8.16907 3.59337 8.74891 3.28012 9.28149C2.96687 9.81407 2.54017 10.2405 2 10.5607V12.792Z" fill="white"/>
</svg>