<svg xmlns="http://www.w3.org/2000/svg" width="17" height="16" viewBox="0 0 17 16" fill="none">
  <path fill-rule="evenodd" clip-rule="evenodd" d="M1.5 7.99972C1.5 4.23096 4.55518 1.17578 8.32394 1.17578C12.0927 1.17578 15.1479 4.23096 15.1479 7.99972C15.1479 11.7685 12.0927 14.8237 8.32394 14.8237C4.55518 14.8237 1.5 11.7685 1.5 7.99972ZM8.32394 0.175781C4.0029 0.175781 0.5 3.67868 0.5 7.99972C0.5 12.3208 4.0029 15.8237 8.32394 15.8237C12.645 15.8237 16.1479 12.3208 16.1479 7.99972C16.1479 3.67868 12.645 0.175781 8.32394 0.175781ZM7.53348 9.97592V9.20704C7.53348 8.77589 7.62744 8.40967 7.84415 8.07607C8.05775 7.74726 8.38145 7.46442 8.81588 7.18195C9.18459 6.93705 9.42284 6.7229 9.5702 6.50483C9.71372 6.29246 9.77875 6.06485 9.77875 5.77559V5.76954C9.77875 5.03499 9.19996 4.48682 8.32052 4.48682C7.8821 4.48682 7.52406 4.62409 7.26768 4.85111C7.01156 5.0779 6.84494 5.40474 6.80693 5.80653L6.80683 5.8076L6.78277 6.04822H5.59766L5.62176 5.75899C5.67681 5.11139 5.937 4.5108 6.40163 4.07184C6.86765 3.63158 7.52554 3.36664 8.35078 3.36664C9.88875 3.36664 11.0321 4.35873 11.0321 5.72718V5.73323C11.0321 6.71654 10.5309 7.40784 9.6632 7.96522C9.27277 8.21557 9.0475 8.41072 8.91611 8.60878C8.78983 8.79911 8.73839 9.01039 8.73839 9.32203V9.97592H7.53348ZM6.60177 5.84822H5.81502L5.82107 5.77559C5.8247 5.73286 5.82928 5.69039 5.83481 5.64822C5.97019 4.61595 6.67333 3.76264 7.90127 3.59609C6.62343 3.76959 5.91402 4.68689 5.82148 5.77555L5.81543 5.84817H6.60177L6.60177 5.84822ZM7.73389 9.77588H8.53839V9.77592H7.73348V9.20704C7.73348 8.40819 8.07844 7.89983 8.92571 7.3491C9.6822 6.84679 9.97875 6.42315 9.97875 5.77559V5.76954C9.97875 4.90412 9.28883 4.28682 8.32052 4.28682C8.23226 4.28682 8.14649 4.29191 8.06344 4.30185C8.14662 4.29188 8.23253 4.28677 8.32093 4.28677C9.28924 4.28677 9.97916 4.90407 9.97916 5.76949V5.77555C9.97916 6.4231 9.68262 6.84674 8.92612 7.34905C8.07885 7.89978 7.73389 8.40814 7.73389 9.20699V9.77588ZM8.14501 12.6327C7.71985 12.6327 7.38218 12.2951 7.38218 11.8699C7.38218 11.4401 7.71845 11.101 8.14501 11.101C8.57622 11.101 8.91389 11.4387 8.91389 11.8699C8.91389 12.2965 8.57482 12.6327 8.14501 12.6327ZM7.58218 11.8699C7.58218 12.1846 7.83031 12.4327 8.14501 12.4327C8.16889 12.4327 8.19236 12.4313 8.21536 12.4287C8.1925 12.4313 8.16916 12.4327 8.14542 12.4327C7.83072 12.4327 7.58259 12.1845 7.58259 11.8698C7.58259 11.573 7.79516 11.3383 8.07632 11.305C7.79495 11.3381 7.58218 11.5729 7.58218 11.8699Z" fill="white"/>
</svg>