<svg width="20" height="20" viewBox="0 0 20 20" fill="none" xmlns="http://www.w3.org/2000/svg">
<path d="M10 16C8.6 16 7.36111 15.5749 6.28334 14.7247C5.20556 13.8744 4.50556 12.7884 4.18334 11.4667C4.13889 11.3 4.17222 11.1473 4.28334 11.0087C4.39445 10.87 4.54445 10.7893 4.73334 10.7667C4.91111 10.7444 5.07222 10.7778 5.21667 10.8667C5.36111 10.9556 5.46111 11.0889 5.51667 11.2667C5.78334 12.2667 6.33334 13.0833 7.16667 13.7167C8 14.35 8.94445 14.6667 10 14.6667C11.3 14.6667 12.4029 14.2138 13.3087 13.308C14.2144 12.4022 14.6671 11.2996 14.6667 10C14.6667 8.7 14.2138 7.59711 13.308 6.69133C12.4022 5.78556 11.2996 5.33289 10 5.33333C9.23334 5.33333 8.51667 5.51111 7.85 5.86667C7.18334 6.22222 6.62222 6.71111 6.16667 7.33333H7.33334C7.52222 7.33333 7.68067 7.39733 7.80867 7.52533C7.93667 7.65333 8.00045 7.81155 8 8C8 8.18889 7.936 8.34733 7.808 8.47533C7.68 8.60333 7.52178 8.66711 7.33334 8.66667H4.66667C4.47778 8.66667 4.31934 8.60267 4.19134 8.47467C4.06334 8.34667 3.99956 8.18844 4 8V5.33333C4 5.14444 4.064 4.986 4.192 4.858C4.32 4.73 4.47822 4.66622 4.66667 4.66667C4.85556 4.66667 5.014 4.73067 5.142 4.85867C5.27 4.98667 5.33378 5.14489 5.33334 5.33333V6.23333C5.9 5.52222 6.59178 4.97222 7.40867 4.58333C8.22556 4.19444 9.08934 4 10 4C10.8333 4 11.614 4.15844 12.342 4.47533C13.07 4.79222 13.7033 5.21978 14.242 5.758C14.7807 6.29711 15.2084 6.93044 15.5253 7.658C15.8422 8.38556 16.0004 9.16622 16 10C16 10.8333 15.8416 11.614 15.5247 12.342C15.2078 13.07 14.7802 13.7033 14.242 14.242C13.7029 14.7807 13.0696 15.2084 12.342 15.5253C11.6144 15.8422 10.8338 16.0004 10 16ZM10.6667 9.73333L12.3333 11.4C12.4556 11.5222 12.5167 11.6778 12.5167 11.8667C12.5167 12.0556 12.4556 12.2111 12.3333 12.3333C12.2111 12.4556 12.0556 12.5167 11.8667 12.5167C11.6778 12.5167 11.5222 12.4556 11.4 12.3333L9.53334 10.4667C9.46667 10.4 9.41667 10.3251 9.38334 10.242C9.35 10.1589 9.33334 10.0727 9.33334 9.98333V7.33333C9.33334 7.14444 9.39734 6.986 9.52534 6.858C9.65334 6.73 9.81156 6.66622 10 6.66667C10.1889 6.66667 10.3473 6.73067 10.4753 6.85867C10.6033 6.98667 10.6671 7.14489 10.6667 7.33333V9.73333Z" fill="#717171"/>
</svg>
