<svg xmlns="http://www.w3.org/2000/svg" width="10" height="11" viewBox="0 0 10 11" fill="none">
  <path fill-rule="evenodd" clip-rule="evenodd" d="M6.29211 1.08624C5.58353 0.360576 4.41647 0.360576 3.70789 1.08624L3.31923 1.48426L2.76297 1.47764C1.74881 1.46556 0.923566 2.2908 0.935646 3.30496L0.942272 3.86123L0.544249 4.24988C-0.181416 4.95846 -0.181416 6.12552 0.544249 6.83411L0.942272 7.22276L0.935646 7.77902C0.923566 8.79319 1.74881 9.61843 2.76297 9.60635L3.31923 9.59972L3.70789 9.99774C4.41647 10.7234 5.58353 10.7234 6.29211 9.99774L6.68077 9.59972L7.23703 9.60635C8.25119 9.61843 9.07644 8.79319 9.06435 7.77902L9.05773 7.22276L9.45575 6.83411C10.1814 6.12552 10.1814 4.95846 9.45575 4.24988L9.05773 3.86123L9.06435 3.30496C9.07644 2.2908 8.25119 1.46556 7.23703 1.47764L6.68077 1.48426L6.29211 1.08624ZM6.47097 4.82546C6.59301 4.70342 6.59301 4.50556 6.47097 4.38352C6.34893 4.26148 6.15107 4.26148 6.02903 4.38352L4.375 6.03755L3.65847 5.32102C3.53643 5.19898 3.33857 5.19898 3.21653 5.32102C3.09449 5.44306 3.09449 5.64092 3.21653 5.76296L4.15403 6.70046C4.21263 6.75907 4.29212 6.79199 4.375 6.79199C4.45788 6.79199 4.53737 6.75907 4.59597 6.70046L6.47097 4.82546Z" fill="#4E6EF3"/>
</svg>