<svg xmlns="http://www.w3.org/2000/svg" width="17" height="17" viewBox="0 0 17 17" fill="none">
  <path d="M11.6112 9.8138C11.9964 9.8138 12.3149 9.68788 12.5668 9.43602C12.8186 9.18417 12.9446 8.86565 12.9446 8.48047C12.9446 8.09528 12.8186 7.77677 12.5668 7.52491C12.3149 7.27306 11.9964 7.14714 11.6112 7.14714C11.226 7.14714 10.9075 7.27306 10.6557 7.52491C10.4038 7.77677 10.2779 8.09528 10.2779 8.48047C10.2779 8.86565 10.4038 9.18417 10.6557 9.43602C10.9075 9.68788 11.226 9.8138 11.6112 9.8138ZM1.83344 16.4805C1.34455 16.4805 0.925888 16.3062 0.577443 15.9578C0.228999 15.6094 0.055073 15.191 0.0556656 14.7027V2.25825C0.0556656 1.76936 0.229888 1.35069 0.578332 1.00225C0.926777 0.653803 1.34515 0.479878 1.83344 0.48047H14.2779C14.7668 0.48047 15.1854 0.654692 15.5339 1.00314C15.8823 1.35158 16.0563 1.76995 16.0557 2.25825V4.48047H14.2779V2.25825H1.83344V14.7027H14.2779V12.4805H16.0557V14.7027C16.0557 15.1916 15.8814 15.6102 15.533 15.9587C15.1846 16.3071 14.7662 16.4811 14.2779 16.4805H1.83344ZM8.94455 12.9249C8.45566 12.9249 8.037 12.7507 7.68855 12.4022C7.34011 12.0538 7.16618 11.6354 7.16678 11.1471V5.8138C7.16678 5.32491 7.341 4.90625 7.68944 4.5578C8.03789 4.20936 8.45626 4.03543 8.94455 4.03603H15.1668C15.6557 4.03603 16.0743 4.21025 16.4228 4.55869C16.7712 4.90714 16.9451 5.32551 16.9446 5.8138V11.1471C16.9446 11.636 16.7703 12.0547 16.4219 12.4031C16.0734 12.7516 15.6551 12.9255 15.1668 12.9249H8.94455ZM15.1668 11.1471V5.8138H8.94455V11.1471H15.1668Z" fill="white"/>
</svg>