<svg xmlns="http://www.w3.org/2000/svg" width="40" height="41" viewBox="0 0 40 41" fill="none">
  <path d="M18.7253 4.54987C18.112 4.8032 17.5636 5.3532 16.4653 6.44987C15.367 7.54987 14.817 8.0982 14.5653 8.70987C14.3977 9.11435 14.3115 9.54788 14.3115 9.9857C14.3115 10.4235 14.3977 10.8571 14.5653 11.2615C14.817 11.8749 15.3653 12.4232 16.4653 13.5215C17.562 14.6199 18.112 15.1699 18.7253 15.4215C19.5417 15.7595 20.4589 15.7595 21.2753 15.4215C21.8886 15.1699 22.437 14.6215 23.5353 13.5215C24.6353 12.4232 25.1819 11.8749 25.4353 11.2615C25.7733 10.4451 25.7733 9.52794 25.4353 8.71154C25.1819 8.0982 24.6353 7.54987 23.5353 6.45154C22.437 5.35154 21.8886 4.8032 21.2753 4.54987C20.4589 4.21189 19.5417 4.21189 18.7253 4.54987ZM8.11695 15.1565C7.50528 15.4099 6.95529 15.9582 5.85862 17.0565C4.75862 18.1565 4.21029 18.7049 3.95695 19.3165C3.78938 19.721 3.70313 20.1545 3.70312 20.5924C3.70312 21.0302 3.78938 21.4637 3.95695 21.8682C4.21029 22.4815 4.76028 23.0299 5.85695 24.1282C6.95695 25.2265 7.50528 25.7749 8.11695 26.0282C8.52143 26.1958 8.95496 26.282 9.39278 26.282C9.83061 26.282 10.2641 26.1958 10.6686 26.0282C11.282 25.7749 11.8303 25.2265 12.9286 24.1282C14.0286 23.0299 14.5753 22.4815 14.8286 21.8682C15.1666 21.0518 15.1666 20.1346 14.8286 19.3182C14.5753 18.7049 14.0286 18.1549 12.9286 17.0565C11.8303 15.9582 11.282 15.4099 10.6686 15.1565C9.85221 14.8186 8.93336 14.8186 8.11695 15.1565ZM27.072 17.0565C25.9736 18.1565 25.4253 18.7049 25.172 19.3165C25.0044 19.721 24.9181 20.1545 24.9181 20.5924C24.9181 21.0302 25.0044 21.4637 25.172 21.8682C25.4253 22.4815 25.9736 23.0299 27.072 24.1282C28.1703 25.2265 28.7203 25.7749 29.332 26.0282C30.1484 26.3662 31.0655 26.3662 31.8819 26.0282C32.4953 25.7749 33.0453 25.2265 34.1436 24.1282C35.242 23.0299 35.7886 22.4815 36.0436 21.8682C36.3816 21.0518 36.3816 20.1346 36.0436 19.3182C35.7886 18.7049 35.242 18.1549 34.1436 17.0565C33.0436 15.9582 32.4953 15.4099 31.8836 15.1565C31.4791 14.989 31.0456 14.9027 30.6078 14.9027C30.17 14.9027 29.7364 14.989 29.332 15.1565C28.7203 15.4099 28.1703 15.9582 27.072 17.0565ZM18.7253 25.7632C18.112 26.0165 17.5636 26.5665 16.4653 27.6632C15.367 28.7632 14.817 29.3115 14.5653 29.9249C14.2273 30.7413 14.2273 31.6585 14.5653 32.4749C14.817 33.0882 15.3653 33.6365 16.4653 34.7349C17.562 35.8332 18.112 36.3832 18.7253 36.6349C19.5417 36.9728 20.4589 36.9728 21.2753 36.6349C21.8886 36.3832 22.437 35.8349 23.5353 34.7349C24.6353 33.6365 25.1819 33.0882 25.4353 32.4749C25.7736 31.6582 25.7736 30.7415 25.4353 29.9249C25.1819 29.3115 24.6353 28.7615 23.5353 27.6649C22.437 26.5649 21.8886 26.0165 21.2753 25.7632C20.4589 25.4252 19.5417 25.4252 18.7253 25.7632Z" stroke="#4E6EF3" stroke-width="3" stroke-linecap="round" stroke-linejoin="round"/>
</svg>