<svg xmlns="http://www.w3.org/2000/svg" width="40" height="41" viewBox="0 0 40 41" fill="none">
  <path d="M37.134 14.0839L27.759 4.70889C27.6429 4.59267 27.5051 4.50047 27.3533 4.43757C27.2016 4.37466 27.0389 4.34229 26.8746 4.34229C26.7104 4.34229 26.5477 4.37466 26.396 4.43757C26.2442 4.50047 26.1064 4.59267 25.9903 4.70889L5.79809 24.9011C4.48609 26.2131 3.74902 27.9925 3.74902 29.848C3.74902 31.7034 4.48609 33.4828 5.79809 34.7948C7.11008 36.1068 8.88952 36.8439 10.745 36.8439C12.6004 36.8439 14.3798 36.1068 15.6918 34.7948L33.1746 17.312L36.645 16.1558C36.8472 16.0885 37.029 15.9706 37.1728 15.8133C37.3167 15.656 37.418 15.4645 37.467 15.257C37.516 15.0496 37.5111 14.833 37.4528 14.6279C37.3946 14.4229 37.2848 14.2361 37.134 14.0855V14.0839ZM32.1043 15.0323C31.9201 15.0935 31.7527 15.1968 31.6153 15.3339L25.4325 21.5167C24.109 21.9698 22.034 22.1417 19.3278 20.7355C17.6715 19.8698 16.1746 19.4855 14.8653 19.3714L26.8746 7.36046L33.9356 14.4214L32.1043 15.0323Z" fill="#4E6EF3"/>
</svg>