<svg xmlns="http://www.w3.org/2000/svg" width="32" height="33" viewBox="0 0 32 33" fill="none">
  <path d="M16.5977 21.7628L25.3714 12.5545C25.5179 12.4009 25.5996 12.1968 25.5996 11.9845C25.5996 11.7722 25.5179 11.5681 25.3714 11.4144L25.3615 11.4045C25.2905 11.3298 25.205 11.2703 25.1103 11.2296C25.0156 11.1889 24.9136 11.168 24.8105 11.168C24.7074 11.168 24.6054 11.1889 24.5106 11.2296C24.4159 11.2703 24.3304 11.3298 24.2594 11.4045L15.998 20.0758L7.73978 11.4045C7.66877 11.3298 7.58331 11.2703 7.48858 11.2296C7.39384 11.1889 7.29183 11.168 7.18874 11.168C7.08565 11.168 6.98363 11.1889 6.8889 11.2296C6.79417 11.2703 6.7087 11.3298 6.6377 11.4045L6.62778 11.4144C6.48131 11.5681 6.39961 11.7722 6.39961 11.9845C6.39961 12.1968 6.48131 12.4009 6.62778 12.5545L15.4015 21.7628C15.4786 21.8438 15.5714 21.9082 15.6742 21.9523C15.7771 21.9963 15.8878 22.019 15.9996 22.019C16.1115 22.019 16.2222 21.9963 16.325 21.9523C16.4278 21.9082 16.5206 21.8438 16.5977 21.7628Z" fill="white" stroke="white" stroke-width="0.5"/>
</svg>