<svg width="16" height="17" viewBox="0 0 16 17" fill="none" xmlns="http://www.w3.org/2000/svg">
<path d="M12.0451 10.1253C11.7813 9.86155 11.3613 9.86579 11.1018 10.1253L8.46711 12.76L8.46711 2.49279C8.46711 2.4055 8.44991 2.31907 8.41651 2.23843C8.38311 2.15779 8.33415 2.08451 8.27243 2.02279C8.2107 1.96107 8.13743 1.91211 8.05679 1.87871C7.97614 1.8453 7.88971 1.82811 7.80243 1.82811C7.62614 1.82811 7.45708 1.89814 7.33243 2.02279C7.2707 2.08451 7.22174 2.15779 7.18834 2.23843C7.15494 2.31907 7.13775 2.40551 7.13775 2.49279L7.13775 12.76L4.50307 10.1253C4.24356 9.86579 3.81929 9.86579 3.55979 10.1253C3.30028 10.3848 3.30028 10.8091 3.55979 11.0686L7.33079 14.8396C7.59029 15.0991 8.01456 15.0991 8.27407 14.8396L12.0451 11.0686C12.3046 10.8091 12.3046 10.3848 12.0451 10.1253Z" fill="#4E6EF3"/>
</svg>
