<svg width="285" height="281" viewBox="0 0 285 281" fill="none" xmlns="http://www.w3.org/2000/svg">
<g opacity="0.4">
<path fill-rule="evenodd" clip-rule="evenodd" d="M89.8303 29.3228V25.8228H82.8303V29.3228L82.8303 43.0294H75.168V76.386H82.8303L82.8303 104.405V107.905H89.8303L89.8303 104.405L89.8303 76.386H97.4861V43.0294H89.8303L89.8303 29.3228Z" fill="white" fill-opacity="0.1"/>
<path fill-rule="evenodd" clip-rule="evenodd" d="M201.282 68.6968L201.282 65.6968L195.282 65.697L195.282 68.697L195.283 85.9853H187.123V121.466H195.285L195.285 134.405L195.285 137.405L201.285 137.405L201.285 134.405L201.285 121.466H209.441V85.9853H201.283L201.282 68.6968Z" fill="white" fill-opacity="0.1"/>
<path fill-rule="evenodd" clip-rule="evenodd" d="M134.804 48.6969H112.486V130.898H120.644L120.646 168.552L120.646 171.552L126.646 171.552L126.646 168.552L126.644 130.898H134.804V48.6969Z" fill="white" fill-opacity="0.1"/>
<path fill-rule="evenodd" clip-rule="evenodd" d="M246.76 18.6969H224.441V88.3495H232.598L232.601 138.552L232.601 141.552L238.601 141.552L238.601 138.552L238.598 88.3495H246.76V18.6969Z" fill="white" fill-opacity="0.1"/>
<path fill-rule="evenodd" clip-rule="evenodd" d="M37.8496 58.6092H60.1677V131.143H52.0098L52.0107 151.259L52.0109 154.259L46.0109 154.259L46.0107 151.259L46.0098 131.143H37.8496V58.6092Z" fill="white" fill-opacity="0.1"/>
<path fill-rule="evenodd" clip-rule="evenodd" d="M163.961 48.6967L163.961 45.6967L157.961 45.6969L157.961 48.6969L157.963 100.524H149.805V144.092H172.123V100.524H163.963L163.961 48.6967Z" fill="white" fill-opacity="0.1"/>
<path fill-rule="evenodd" clip-rule="evenodd" d="M275.916 58.6967L275.916 55.6967L269.916 55.6969L269.916 58.6969L269.918 110.524H261.76V154.092H284.078V110.524H275.918L275.916 58.6967Z" fill="white" fill-opacity="0.1"/>
<path fill-rule="evenodd" clip-rule="evenodd" d="M14.6875 48.6967L14.6874 45.6967L8.68737 45.6969L8.6875 48.6969L8.68981 100.524H0.53125V144.092H22.8494V100.524H14.6898L14.6875 48.6967Z" fill="white" fill-opacity="0.1"/>
</g>
<rect x="38.4414" y="233.738" width="216.559" height="5.91589" fill="white"/>
<g filter="url(#filter0_d_4321_365693)">
<rect x="38.4414" y="169.738" width="60" height="60" rx="30" fill="#21627B"/>
<rect x="38.6914" y="169.988" width="59.5" height="59.5" rx="29.75" stroke="url(#paint0_linear_4321_365693)" stroke-width="0.5"/>
<path fill-rule="evenodd" clip-rule="evenodd" d="M78.5611 188.989C78.5576 189.208 78.5524 189.427 78.5384 189.646C78.4133 191.657 77.6619 193.623 76.4118 195.206C76.0487 195.679 75.6244 196.098 75.2004 196.516L75.2004 196.516L75.2004 196.516C75.0646 196.65 74.9289 196.784 74.7952 196.919C73.2887 198.423 71.7818 199.926 70.2748 201.429L70.2672 201.436L70.2668 201.437L70.2664 201.437L70.266 201.437L70.2656 201.438C68.4515 203.247 66.6374 205.056 64.8238 206.867C63.865 207.811 63.3157 209.141 63.3139 210.484C61.6501 210.485 59.9863 210.486 58.3234 210.483C58.3269 210.293 58.3313 210.104 58.3391 209.914C58.4642 207.52 59.4886 205.186 61.1681 203.472C62.817 201.826 64.4664 200.181 66.1158 198.536L66.1159 198.536L66.116 198.536L66.1161 198.536L66.1167 198.535L66.1178 198.534L66.1214 198.531C68.0991 196.558 70.0768 194.586 72.0537 192.613C73.016 191.668 73.5671 190.335 73.5697 188.989L74.4014 188.989C75.788 188.988 77.1745 188.987 78.5611 188.989ZM78.2899 208.152C78.471 208.916 78.5584 209.7 78.562 210.485C77.8651 210.486 77.1681 210.485 76.471 210.485H76.471H76.471H76.469C75.5025 210.484 74.5359 210.483 73.5697 210.488C73.5635 209.474 73.2617 208.461 72.6861 207.624C72.0187 206.631 70.99 205.897 69.8423 205.562C70.4257 204.982 71.0079 204.401 71.59 203.82L71.59 203.82L71.59 203.82L71.5901 203.82C72.263 203.148 72.9359 202.477 73.6108 201.807C75.9429 203.178 77.6758 205.521 78.2899 208.152ZM65.4282 195.519L65.4284 195.519L65.4287 195.519C65.9658 194.983 66.503 194.447 67.0409 193.911C66.0296 193.617 65.1103 193.015 64.4507 192.195C63.7185 191.296 63.3161 190.146 63.3135 188.989C62.4812 188.989 61.649 188.989 60.8169 188.989C59.9848 188.989 59.1527 188.989 58.3203 188.989C58.3238 190.087 58.4988 191.185 58.8522 192.225C59.6132 194.488 61.214 196.452 63.2724 197.667C63.9923 196.952 64.7102 196.236 65.428 195.519L65.4282 195.519ZM65.9404 188.988C65.9363 189.351 66.0116 189.715 66.1761 190.047C66.6747 191.167 68.0699 191.766 69.229 191.351C70.2393 191.039 70.9366 190.025 70.9388 188.988H65.9404ZM70.8417 209.801C70.9115 210.025 70.9436 210.255 70.9421 210.485H65.9435C65.9521 209.621 66.4106 208.76 67.1816 208.333C68.2147 207.704 69.6756 207.981 70.4034 208.945C70.6037 209.198 70.7533 209.49 70.8417 209.801Z" fill="white"/>
</g>
<path d="M146.721 227.094L169.731 266.95H123.71L146.721 227.094Z" fill="white"/>
<g filter="url(#filter1_d_4321_365693)">
<rect x="194.123" y="221.738" width="60" height="8" fill="#21627B" shape-rendering="crispEdges"/>
<rect x="194.123" y="221.738" width="60" height="8" stroke="url(#paint1_linear_4321_365693)" stroke-width="0.5" shape-rendering="crispEdges"/>
</g>
<g filter="url(#filter2_d_4321_365693)">
<rect x="194.123" y="205.738" width="60" height="8" fill="#21627B" shape-rendering="crispEdges"/>
<rect x="194.123" y="205.738" width="60" height="8" stroke="url(#paint2_linear_4321_365693)" stroke-width="0.5" shape-rendering="crispEdges"/>
</g>
<g filter="url(#filter3_d_4321_365693)">
<rect x="194.123" y="189.738" width="60" height="8" fill="#21627B" shape-rendering="crispEdges"/>
<rect x="194.123" y="189.738" width="60" height="8" stroke="url(#paint3_linear_4321_365693)" stroke-width="0.5" shape-rendering="crispEdges"/>
</g>
<g filter="url(#filter4_d_4321_365693)">
<rect x="188.123" y="213.738" width="60" height="8" fill="#21627B" shape-rendering="crispEdges"/>
<rect x="188.123" y="213.738" width="60" height="8" stroke="url(#paint4_linear_4321_365693)" stroke-width="0.5" shape-rendering="crispEdges"/>
</g>
<g filter="url(#filter5_d_4321_365693)">
<rect x="196.123" y="197.738" width="60" height="8" fill="#21627B" shape-rendering="crispEdges"/>
<rect x="196.123" y="197.738" width="60" height="8" stroke="url(#paint5_linear_4321_365693)" stroke-width="0.5" shape-rendering="crispEdges"/>
</g>
<path fill-rule="evenodd" clip-rule="evenodd" d="M163.36 150.661C164.411 150.96 166.029 151.534 166.907 152.413C167.788 153.293 168.362 154.917 168.661 155.968V169.623H169.161V155.952C169.461 154.901 170.034 153.289 170.911 152.413C171.789 151.534 173.407 150.96 174.458 150.661H188.123V150.161H174.458C173.407 149.862 171.789 149.288 170.911 148.409C170.034 147.533 169.461 145.921 169.161 144.87V131.199H168.661V144.854C168.362 145.905 167.788 147.529 166.907 148.409C166.029 149.288 164.411 149.862 163.36 150.161H149.698V150.661H163.36Z" fill="white"/>
<g filter="url(#filter6_d_4321_365693)">
<rect x="188.473" y="130.235" width="60" height="8" transform="rotate(-30 188.473 130.235)" fill="#21627B" shape-rendering="crispEdges"/>
<rect x="188.473" y="130.235" width="60" height="8" transform="rotate(-30 188.473 130.235)" stroke="url(#paint6_linear_4321_365693)" stroke-width="0.5" shape-rendering="crispEdges"/>
</g>
<defs>
<filter id="filter0_d_4321_365693" x="28.4414" y="161.738" width="84" height="84" filterUnits="userSpaceOnUse" color-interpolation-filters="sRGB">
<feFlood flood-opacity="0" result="BackgroundImageFix"/>
<feColorMatrix in="SourceAlpha" type="matrix" values="0 0 0 0 0 0 0 0 0 0 0 0 0 0 0 0 0 0 127 0" result="hardAlpha"/>
<feOffset dx="2" dy="4"/>
<feGaussianBlur stdDeviation="6"/>
<feComposite in2="hardAlpha" operator="out"/>
<feColorMatrix type="matrix" values="0 0 0 0 0 0 0 0 0 0 0 0 0 0 0 0 0 0 0.08 0"/>
<feBlend mode="normal" in2="BackgroundImageFix" result="effect1_dropShadow_4321_365693"/>
<feBlend mode="normal" in="SourceGraphic" in2="effect1_dropShadow_4321_365693" result="shape"/>
</filter>
<filter id="filter1_d_4321_365693" x="183.873" y="213.488" width="84.5" height="32.5" filterUnits="userSpaceOnUse" color-interpolation-filters="sRGB">
<feFlood flood-opacity="0" result="BackgroundImageFix"/>
<feColorMatrix in="SourceAlpha" type="matrix" values="0 0 0 0 0 0 0 0 0 0 0 0 0 0 0 0 0 0 127 0" result="hardAlpha"/>
<feOffset dx="2" dy="4"/>
<feGaussianBlur stdDeviation="6"/>
<feComposite in2="hardAlpha" operator="out"/>
<feColorMatrix type="matrix" values="0 0 0 0 0 0 0 0 0 0 0 0 0 0 0 0 0 0 0.08 0"/>
<feBlend mode="normal" in2="BackgroundImageFix" result="effect1_dropShadow_4321_365693"/>
<feBlend mode="normal" in="SourceGraphic" in2="effect1_dropShadow_4321_365693" result="shape"/>
</filter>
<filter id="filter2_d_4321_365693" x="183.873" y="197.488" width="84.5" height="32.5" filterUnits="userSpaceOnUse" color-interpolation-filters="sRGB">
<feFlood flood-opacity="0" result="BackgroundImageFix"/>
<feColorMatrix in="SourceAlpha" type="matrix" values="0 0 0 0 0 0 0 0 0 0 0 0 0 0 0 0 0 0 127 0" result="hardAlpha"/>
<feOffset dx="2" dy="4"/>
<feGaussianBlur stdDeviation="6"/>
<feComposite in2="hardAlpha" operator="out"/>
<feColorMatrix type="matrix" values="0 0 0 0 0 0 0 0 0 0 0 0 0 0 0 0 0 0 0.08 0"/>
<feBlend mode="normal" in2="BackgroundImageFix" result="effect1_dropShadow_4321_365693"/>
<feBlend mode="normal" in="SourceGraphic" in2="effect1_dropShadow_4321_365693" result="shape"/>
</filter>
<filter id="filter3_d_4321_365693" x="183.873" y="181.488" width="84.5" height="32.5" filterUnits="userSpaceOnUse" color-interpolation-filters="sRGB">
<feFlood flood-opacity="0" result="BackgroundImageFix"/>
<feColorMatrix in="SourceAlpha" type="matrix" values="0 0 0 0 0 0 0 0 0 0 0 0 0 0 0 0 0 0 127 0" result="hardAlpha"/>
<feOffset dx="2" dy="4"/>
<feGaussianBlur stdDeviation="6"/>
<feComposite in2="hardAlpha" operator="out"/>
<feColorMatrix type="matrix" values="0 0 0 0 0 0 0 0 0 0 0 0 0 0 0 0 0 0 0.08 0"/>
<feBlend mode="normal" in2="BackgroundImageFix" result="effect1_dropShadow_4321_365693"/>
<feBlend mode="normal" in="SourceGraphic" in2="effect1_dropShadow_4321_365693" result="shape"/>
</filter>
<filter id="filter4_d_4321_365693" x="177.873" y="205.488" width="84.5" height="32.5" filterUnits="userSpaceOnUse" color-interpolation-filters="sRGB">
<feFlood flood-opacity="0" result="BackgroundImageFix"/>
<feColorMatrix in="SourceAlpha" type="matrix" values="0 0 0 0 0 0 0 0 0 0 0 0 0 0 0 0 0 0 127 0" result="hardAlpha"/>
<feOffset dx="2" dy="4"/>
<feGaussianBlur stdDeviation="6"/>
<feComposite in2="hardAlpha" operator="out"/>
<feColorMatrix type="matrix" values="0 0 0 0 0 0 0 0 0 0 0 0 0 0 0 0 0 0 0.08 0"/>
<feBlend mode="normal" in2="BackgroundImageFix" result="effect1_dropShadow_4321_365693"/>
<feBlend mode="normal" in="SourceGraphic" in2="effect1_dropShadow_4321_365693" result="shape"/>
</filter>
<filter id="filter5_d_4321_365693" x="185.873" y="189.488" width="84.5" height="32.5" filterUnits="userSpaceOnUse" color-interpolation-filters="sRGB">
<feFlood flood-opacity="0" result="BackgroundImageFix"/>
<feColorMatrix in="SourceAlpha" type="matrix" values="0 0 0 0 0 0 0 0 0 0 0 0 0 0 0 0 0 0 127 0" result="hardAlpha"/>
<feOffset dx="2" dy="4"/>
<feGaussianBlur stdDeviation="6"/>
<feComposite in2="hardAlpha" operator="out"/>
<feColorMatrix type="matrix" values="0 0 0 0 0 0 0 0 0 0 0 0 0 0 0 0 0 0 0.08 0"/>
<feBlend mode="normal" in2="BackgroundImageFix" result="effect1_dropShadow_4321_365693"/>
<feBlend mode="normal" in="SourceGraphic" in2="effect1_dropShadow_4321_365693" result="shape"/>
</filter>
<filter id="filter6_d_4321_365693" x="178.131" y="91.8931" width="80.6445" height="61.6112" filterUnits="userSpaceOnUse" color-interpolation-filters="sRGB">
<feFlood flood-opacity="0" result="BackgroundImageFix"/>
<feColorMatrix in="SourceAlpha" type="matrix" values="0 0 0 0 0 0 0 0 0 0 0 0 0 0 0 0 0 0 127 0" result="hardAlpha"/>
<feOffset dx="2" dy="4"/>
<feGaussianBlur stdDeviation="6"/>
<feComposite in2="hardAlpha" operator="out"/>
<feColorMatrix type="matrix" values="0 0 0 0 0 0 0 0 0 0 0 0 0 0 0 0 0 0 0.08 0"/>
<feBlend mode="normal" in2="BackgroundImageFix" result="effect1_dropShadow_4321_365693"/>
<feBlend mode="normal" in="SourceGraphic" in2="effect1_dropShadow_4321_365693" result="shape"/>
</filter>
<linearGradient id="paint0_linear_4321_365693" x1="87.4719" y1="225.718" x2="42.9929" y2="169.738" gradientUnits="userSpaceOnUse">
<stop stop-color="white"/>
<stop offset="1" stop-color="white" stop-opacity="0"/>
</linearGradient>
<linearGradient id="paint1_linear_4321_365693" x1="243.154" y1="229.202" x2="241.878" y2="217.161" gradientUnits="userSpaceOnUse">
<stop stop-color="white"/>
<stop offset="1" stop-color="white" stop-opacity="0"/>
</linearGradient>
<linearGradient id="paint2_linear_4321_365693" x1="243.154" y1="213.202" x2="241.878" y2="201.161" gradientUnits="userSpaceOnUse">
<stop stop-color="white"/>
<stop offset="1" stop-color="white" stop-opacity="0"/>
</linearGradient>
<linearGradient id="paint3_linear_4321_365693" x1="243.154" y1="197.202" x2="241.878" y2="185.161" gradientUnits="userSpaceOnUse">
<stop stop-color="white"/>
<stop offset="1" stop-color="white" stop-opacity="0"/>
</linearGradient>
<linearGradient id="paint4_linear_4321_365693" x1="237.154" y1="221.202" x2="235.878" y2="209.161" gradientUnits="userSpaceOnUse">
<stop stop-color="white"/>
<stop offset="1" stop-color="white" stop-opacity="0"/>
</linearGradient>
<linearGradient id="paint5_linear_4321_365693" x1="245.154" y1="205.202" x2="243.878" y2="193.161" gradientUnits="userSpaceOnUse">
<stop stop-color="white"/>
<stop offset="1" stop-color="white" stop-opacity="0"/>
</linearGradient>
<linearGradient id="paint6_linear_4321_365693" x1="237.503" y1="137.699" x2="236.228" y2="125.658" gradientUnits="userSpaceOnUse">
<stop stop-color="white"/>
<stop offset="1" stop-color="white" stop-opacity="0"/>
</linearGradient>
</defs>
</svg>
