<svg width="242" height="281" viewBox="0 0 242 281" fill="none" xmlns="http://www.w3.org/2000/svg">
<path d="M138.166 58.2353C119.918 54.1577 100.86 55.766 83.5539 62.8437C66.2478 69.9215 51.5243 82.1293 41.3637 97.825C31.2032 113.521 26.093 131.952 26.7204 150.639C27.3479 169.326 33.683 187.372 44.8736 202.351" stroke="url(#paint0_linear_4929_257100)" stroke-width="0.5" stroke-linecap="round" stroke-linejoin="round"/>
<path d="M193.076 92.3702C192.993 92.2596 192.837 92.2369 192.726 92.3196C192.615 92.4022 192.593 92.5589 192.675 92.6695L193.076 92.3702ZM99.5289 236.879C117.826 240.968 136.937 239.356 154.29 232.259L154.101 231.796C136.842 238.854 117.836 240.458 99.638 236.391L99.5289 236.879ZM154.29 232.259C171.643 225.161 186.407 212.92 196.595 197.182L196.176 196.91C186.043 212.563 171.36 224.737 154.101 231.796L154.29 232.259ZM196.595 197.182C206.784 181.443 211.908 162.962 211.279 144.224L210.779 144.241C211.405 162.876 206.308 181.257 196.176 196.91L196.595 197.182ZM211.279 144.224C210.649 125.486 204.297 107.39 193.076 92.3702L192.675 92.6695C203.835 107.607 210.153 125.605 210.779 144.241L211.279 144.224Z" fill="url(#paint1_linear_4929_257100)"/>
<g filter="url(#filter0_d_4929_257100)">
<rect x="147.75" y="50.8266" width="80" height="80" rx="40" fill="#D8AB15"/>
<rect x="148" y="51.0766" width="79.5" height="79.5" rx="39.75" stroke="url(#paint2_linear_4929_257100)" stroke-width="0.5"/>
<path fill-rule="evenodd" clip-rule="evenodd" d="M201.278 87.2995C201.845 83.5171 198.963 81.4833 195.025 80.1262L196.303 75.0011L193.185 74.2252L191.939 79.2149C191.12 79.0092 190.279 78.8179 189.44 78.6266L190.694 73.6044L187.576 72.8266L186.298 77.9499C185.62 77.7947 184.952 77.6431 184.306 77.4807L184.309 77.4644L180.007 76.3907L179.177 79.722C179.177 79.722 181.492 80.2525 181.444 80.285C182.707 80.6008 182.934 81.4364 182.896 82.1004L181.442 87.9383C181.529 87.96 181.64 87.9925 181.767 88.0412L181.437 87.96L179.397 96.1384C179.242 96.521 178.851 97.0967 177.966 96.8783C177.999 96.9234 175.7 96.3135 175.7 96.3135L174.151 99.883L178.212 100.895C178.966 101.085 179.706 101.283 180.433 101.469L179.143 106.652L182.259 107.428L183.537 102.303C184.389 102.532 185.215 102.745 186.024 102.947L184.75 108.051L187.868 108.827L189.158 103.655C194.478 104.662 198.477 104.256 200.161 99.4445C201.518 95.5718 200.094 93.3359 197.295 91.8796C199.335 91.4104 200.868 90.0696 201.278 87.2995ZM194.15 97.2934C193.188 101.168 186.664 99.0727 184.549 98.5476L186.264 91.6811C188.379 92.2098 195.159 93.2547 194.15 97.2934ZM195.115 87.2436C194.237 90.768 188.808 88.976 187.049 88.5375L188.601 82.3116C190.36 82.7501 196.032 83.5676 195.115 87.2436Z" fill="white"/>
</g>
<g filter="url(#filter1_d_4929_257100)">
<rect x="10" y="166.621" width="80" height="80" rx="40" fill="#D8AB15" shape-rendering="crispEdges"/>
<rect x="10.25" y="166.871" width="79.5" height="79.5" rx="39.75" stroke="url(#paint3_linear_4929_257100)" stroke-width="0.5" shape-rendering="crispEdges"/>
<path fill-rule="evenodd" clip-rule="evenodd" d="M62.7087 193.502C62.7043 193.777 62.6977 194.052 62.6802 194.327C62.5231 196.852 61.5794 199.321 60.0096 201.308C59.5536 201.903 59.0208 202.428 58.4883 202.954L58.4882 202.954L58.4882 202.954C58.3177 203.122 58.1473 203.29 57.9795 203.46C56.0851 205.351 54.1903 207.24 52.2955 209.13L52.295 209.131L52.292 209.134C50.0136 211.406 47.735 213.679 45.4572 215.952C44.2532 217.138 43.5633 218.809 43.5611 220.495C41.4716 220.496 39.3822 220.497 37.2939 220.494C37.2983 220.255 37.3038 220.017 37.3137 219.78C37.4708 216.773 38.7571 213.842 40.8664 211.689C42.9368 209.623 45.0079 207.557 47.0791 205.492L47.0794 205.491L47.0803 205.49C49.566 203.011 52.0518 200.532 54.5366 198.052C55.745 196.865 56.4371 195.191 56.4404 193.502L57.4855 193.501H57.4862H57.4862H57.4862C59.2271 193.5 60.9679 193.499 62.7087 193.502ZM62.3681 217.567C62.5955 218.526 62.7054 219.511 62.7098 220.496C61.8337 220.498 60.9575 220.497 60.0812 220.496H60.0812H60.0812H60.0812C58.8675 220.495 57.6537 220.494 56.4404 220.5C56.4327 219.227 56.0537 217.955 55.3308 216.903C54.4926 215.656 53.2008 214.735 51.7595 214.314C52.4915 213.586 53.2219 212.857 53.9523 212.128L53.953 212.127L53.9537 212.127L53.9544 212.126L53.9549 212.126C54.7998 211.282 55.6446 210.439 56.492 209.598C59.4207 211.32 61.5969 214.262 62.3681 217.567ZM46.2162 201.702C46.891 201.029 47.5657 200.355 48.2414 199.683C46.9715 199.313 45.817 198.557 44.9886 197.527C44.0692 196.399 43.5638 194.954 43.5605 193.501C42.5152 193.501 41.4701 193.501 40.425 193.501C39.3801 193.501 38.3352 193.501 37.29 193.502C37.2944 194.88 37.5141 196.259 37.958 197.565C38.9137 200.407 40.924 202.873 43.5089 204.4C44.413 203.502 45.3145 202.602 46.216 201.702L46.2162 201.702L46.2162 201.702ZM46.8595 193.5C46.8544 193.956 46.9489 194.413 47.1554 194.83C47.7816 196.236 49.5337 196.989 50.9893 196.468C52.258 196.076 53.1337 194.802 53.1365 193.5H46.8595ZM53.0145 219.637C53.1022 219.918 53.1425 220.208 53.1406 220.496H46.8633C46.8741 219.411 47.4499 218.329 48.4182 217.793C49.7156 217.004 51.5501 217.352 52.4641 218.562C52.7157 218.88 52.9036 219.247 53.0145 219.637Z" fill="white"/>
</g>
<path d="M121.365 68.9969L138.217 58.2265L127.446 41.3743" stroke="white" stroke-width="0.5" stroke-linecap="round"/>
<path d="M116.566 226.018L99.5996 236.608L110.189 253.574" stroke="white" stroke-width="0.5" stroke-linecap="round"/>
<rect x="98.875" y="127.435" width="40" height="40" rx="20" fill="white"/>
<path d="M125.719 143.045L116.948 151.826L112.03 146.909" stroke="#1B1B1B" stroke-width="2" stroke-linecap="round" stroke-linejoin="round"/>
<path fill-rule="evenodd" clip-rule="evenodd" d="M19.8827 70.2889C20.9338 70.5883 22.5513 71.162 23.4298 72.0405C24.3099 72.9206 24.8841 74.5424 25.183 75.5934V89.2512H25.683V75.582C25.9828 74.5308 26.5561 72.9174 27.433 72.0405C28.3115 71.162 29.929 70.5883 30.9801 70.2889H44.6453V69.7889H30.9803C29.9292 69.4896 28.3115 68.9158 27.433 68.0373C26.5561 67.1604 25.9828 65.547 25.683 64.4957V50.8266H25.183V64.4844C24.8841 65.5353 24.3099 67.1572 23.4298 68.0373C22.5513 68.9158 20.9336 69.4896 19.8824 69.7889H6.2207V70.2889H19.8827Z" fill="white"/>
<ellipse cx="0.802253" cy="0.801763" rx="0.802253" ry="0.801763" transform="matrix(0.838389 -0.545072 0.547786 0.836619 75.9883 65.4163)" fill="white"/>
<ellipse cx="0.802253" cy="0.801763" rx="0.802253" ry="0.801763" transform="matrix(0.626682 -0.779275 0.781302 0.624154 131.232 238.109)" fill="white"/>
<ellipse cx="1.45197" cy="1.45108" rx="1.45197" ry="1.45108" transform="matrix(0.838389 -0.545072 0.547786 0.836619 71.9648 66.7578)" fill="white"/>
<defs>
<filter id="filter0_d_4929_257100" x="137.75" y="42.8266" width="104" height="104" filterUnits="userSpaceOnUse" color-interpolation-filters="sRGB">
<feFlood flood-opacity="0" result="BackgroundImageFix"/>
<feColorMatrix in="SourceAlpha" type="matrix" values="0 0 0 0 0 0 0 0 0 0 0 0 0 0 0 0 0 0 127 0" result="hardAlpha"/>
<feOffset dx="2" dy="4"/>
<feGaussianBlur stdDeviation="6"/>
<feComposite in2="hardAlpha" operator="out"/>
<feColorMatrix type="matrix" values="0 0 0 0 0 0 0 0 0 0 0 0 0 0 0 0 0 0 0.08 0"/>
<feBlend mode="normal" in2="BackgroundImageFix" result="effect1_dropShadow_4929_257100"/>
<feBlend mode="normal" in="SourceGraphic" in2="effect1_dropShadow_4929_257100" result="shape"/>
</filter>
<filter id="filter1_d_4929_257100" x="0" y="158.621" width="104" height="104" filterUnits="userSpaceOnUse" color-interpolation-filters="sRGB">
<feFlood flood-opacity="0" result="BackgroundImageFix"/>
<feColorMatrix in="SourceAlpha" type="matrix" values="0 0 0 0 0 0 0 0 0 0 0 0 0 0 0 0 0 0 127 0" result="hardAlpha"/>
<feOffset dx="2" dy="4"/>
<feGaussianBlur stdDeviation="6"/>
<feComposite in2="hardAlpha" operator="out"/>
<feColorMatrix type="matrix" values="0 0 0 0 0 0 0 0 0 0 0 0 0 0 0 0 0 0 0.08 0"/>
<feBlend mode="normal" in2="BackgroundImageFix" result="effect1_dropShadow_4929_257100"/>
<feBlend mode="normal" in="SourceGraphic" in2="effect1_dropShadow_4929_257100" result="shape"/>
</filter>
<linearGradient id="paint0_linear_4929_257100" x1="135.058" y1="58.2012" x2="29.1783" y2="172.308" gradientUnits="userSpaceOnUse">
<stop stop-color="white"/>
<stop offset="1" stop-color="white" stop-opacity="0"/>
</linearGradient>
<linearGradient id="paint1_linear_4929_257100" x1="110.082" y1="242.463" x2="207.493" y2="125.206" gradientUnits="userSpaceOnUse">
<stop stop-color="white"/>
<stop offset="1" stop-color="white" stop-opacity="0"/>
</linearGradient>
<linearGradient id="paint2_linear_4929_257100" x1="217.138" y1="121.644" x2="154.948" y2="44.5772" gradientUnits="userSpaceOnUse">
<stop stop-color="white"/>
<stop offset="1" stop-color="white" stop-opacity="0"/>
</linearGradient>
<linearGradient id="paint3_linear_4929_257100" x1="75.374" y1="241.261" x2="16.0687" y2="166.621" gradientUnits="userSpaceOnUse">
<stop stop-color="white"/>
<stop offset="1" stop-color="white" stop-opacity="0"/>
</linearGradient>
</defs>
</svg>
