<svg width="241" height="281" viewBox="0 0 241 281" fill="none" xmlns="http://www.w3.org/2000/svg">
<rect x="10.4414" y="222.605" width="216.559" height="5.91589" fill="white"/>
<g filter="url(#filter0_d_4321_365748)">
<rect x="10.4414" y="158.605" width="60" height="60" rx="30" fill="#F7931B"/>
<rect x="10.6914" y="158.855" width="59.5" height="59.5" rx="29.75" stroke="url(#paint0_linear_4321_365748)" stroke-width="0.5"/>
<path fill-rule="evenodd" clip-rule="evenodd" d="M50.5611 177.856C50.5576 178.075 50.5524 178.294 50.5384 178.513C50.4133 180.524 49.6619 182.49 48.4118 184.072C48.0487 184.546 47.6244 184.964 47.2004 185.383L47.2004 185.383L47.2004 185.383C47.0646 185.517 46.9289 185.65 46.7952 185.786C45.2887 187.289 43.7818 188.792 42.2748 190.295L42.2672 190.303L42.2668 190.303L42.2664 190.304L42.266 190.304L42.2656 190.304C40.4515 192.114 38.6374 193.923 36.8238 195.733C35.865 196.677 35.3157 198.008 35.3139 199.351C33.6501 199.352 31.9863 199.352 30.3234 199.35C30.3269 199.16 30.3313 198.97 30.3391 198.781C30.4642 196.387 31.4886 194.053 33.1681 192.338C34.817 190.693 36.4664 189.048 38.1158 187.403L38.1159 187.403L38.116 187.403L38.1161 187.403L38.1167 187.402L38.1178 187.401L38.1214 187.397C40.0991 185.425 42.0768 183.453 44.0537 181.479C45.016 180.534 45.5671 179.201 45.5697 177.856L46.4014 177.855C47.788 177.855 49.1745 177.854 50.5611 177.856ZM50.2899 197.019C50.471 197.783 50.5584 198.567 50.562 199.351C49.8651 199.353 49.1681 199.352 48.471 199.352H48.471H48.471H48.469C47.5025 199.351 46.5359 199.35 45.5697 199.355C45.5635 198.341 45.2617 197.328 44.6861 196.49C44.0187 195.497 42.99 194.764 41.8423 194.429C42.4257 193.849 43.0079 193.268 43.59 192.687L43.59 192.687L43.59 192.687L43.5901 192.687C44.263 192.015 44.9359 191.343 45.6108 190.673C47.9429 192.045 49.6758 194.388 50.2899 197.019ZM37.4282 184.386L37.4284 184.386L37.4287 184.385C37.9658 183.849 38.503 183.313 39.0409 182.778C38.0296 182.484 37.1103 181.882 36.4507 181.062C35.7185 180.163 35.3161 179.012 35.3135 177.855C34.4812 177.856 33.649 177.856 32.8169 177.856C31.9848 177.856 31.1527 177.856 30.3203 177.856C30.3238 178.954 30.4988 180.051 30.8522 181.091C31.6132 183.355 33.214 185.319 35.2724 186.534C35.9923 185.819 36.7102 185.103 37.428 184.386L37.4282 184.386ZM37.9404 177.855C37.9363 178.218 38.0116 178.581 38.1761 178.913C38.6747 180.034 40.0699 180.633 41.229 180.218C42.2393 179.906 42.9366 178.891 42.9388 177.855H37.9404ZM42.8417 198.668C42.9115 198.892 42.9436 199.122 42.9421 199.352H37.9435C37.9521 198.488 38.4106 197.626 39.1816 197.199C40.2147 196.571 41.6756 196.848 42.4034 197.812C42.6037 198.065 42.7533 198.357 42.8417 198.668Z" fill="white"/>
</g>
<g filter="url(#filter1_d_4321_365748)">
<rect x="167" y="158.605" width="60" height="60" rx="30" fill="#F7931B"/>
<rect x="167.25" y="158.855" width="59.5" height="59.5" rx="29.75" stroke="url(#paint1_linear_4321_365748)" stroke-width="0.5"/>
<path fill-rule="evenodd" clip-rule="evenodd" d="M204.891 186.547C205.222 184.341 203.541 183.154 201.244 182.363L201.989 179.373L200.17 178.921L199.444 181.831C198.966 181.711 198.475 181.6 197.986 181.488L198.717 178.558L196.898 178.105L196.153 181.093C195.757 181.003 195.368 180.914 194.991 180.82L194.993 180.81L192.483 180.184L191.999 182.127C191.999 182.127 193.35 182.437 193.321 182.455C194.058 182.64 194.191 183.127 194.169 183.514L193.32 186.92C193.371 186.933 193.436 186.951 193.51 186.98L193.317 186.933L192.128 191.703C192.037 191.926 191.809 192.262 191.293 192.135C191.312 192.161 189.971 191.805 189.971 191.805L189.067 193.888L191.436 194.478C191.876 194.589 192.308 194.705 192.732 194.813L191.979 197.836L193.797 198.289L194.542 195.299C195.039 195.433 195.521 195.557 195.993 195.675L195.25 198.652L197.069 199.105L197.822 196.088C200.925 196.675 203.258 196.438 204.24 193.632C205.031 191.373 204.201 190.068 202.568 189.219C203.758 188.945 204.652 188.163 204.891 186.547ZM200.733 192.377C200.172 194.637 196.367 193.415 195.133 193.109L196.133 189.103C197.367 189.412 201.322 190.021 200.733 192.377ZM201.296 186.515C200.784 188.571 197.617 187.525 196.591 187.269L197.496 183.638C198.523 183.893 201.831 184.37 201.296 186.515Z" fill="white"/>
</g>
<path fill-rule="evenodd" clip-rule="evenodd" d="M118.783 248.988C130.058 248.954 139.188 239.803 139.188 228.521H98.2535C98.2535 239.803 107.383 248.954 118.658 248.988C101.43 249.021 87.4736 262.998 87.4736 280.235L149.968 280.235C149.968 262.998 136.012 249.021 118.783 248.988Z" fill="white"/>
<path d="M136.737 74.5911C136.502 73.8461 136.066 73.1803 135.478 72.6672C134.889 72.1542 134.169 71.8139 133.399 71.6839C132.629 71.5538 131.838 71.6391 131.113 71.9304C130.388 72.2216 129.758 72.7074 129.292 73.3342C125.526 78.1822 123.153 83.9649 122.427 90.0606L122.621 92.7678C122.604 98.3986 121.427 103.966 119.165 109.122C116.903 114.279 113.603 118.914 109.472 122.74C100.156 131.132 88.0085 135.687 75.4716 135.489C62.9347 135.292 50.937 130.357 41.8895 121.676C34.2293 114.106 29.8536 103.827 29.7073 93.0578C29.7764 87.4689 30.987 81.953 33.2648 76.8489C35.5425 71.7447 38.8394 67.1598 42.953 63.3758C52.0115 55.1181 63.8588 50.5934 76.1157 50.7101C84.2303 50.6944 92.227 52.6521 99.4166 56.4145C102.085 52.1656 105.196 48.2117 108.698 44.619L110.245 43.0721C99.7463 36.6326 87.6586 33.2507 75.3422 33.307C67.2515 33.0413 59.1878 34.3747 51.6133 37.2309C44.0388 40.087 37.1024 44.4098 31.2015 49.9515C25.3005 55.4931 20.5511 62.1447 17.2254 69.5251C13.8997 76.9055 12.063 84.8697 11.8207 92.9611C11.8157 100.567 13.3361 108.097 16.2921 115.105C19.2482 122.113 23.5797 128.457 29.0305 133.762C35.1428 139.813 42.3872 144.601 50.35 147.853C58.3127 151.104 66.838 152.755 75.4389 152.712C91.7925 153.228 107.683 147.238 119.627 136.055C131.571 124.872 138.593 109.41 139.154 93.0578C139.368 86.8113 138.552 80.5721 136.737 74.5911Z" fill="white" fill-opacity="0.1"/>
<path d="M223.951 92.9657C223.956 85.3597 222.436 77.83 219.48 70.8219C216.524 63.8138 212.192 57.4697 206.741 52.165C194.405 40.0031 177.753 33.224 160.43 33.3116C144.076 32.7958 128.185 38.7859 116.241 49.9685C104.297 61.1511 97.2753 76.6136 96.7146 92.9657C96.8039 99.2271 97.9142 105.432 100.002 111.336C100.236 112.066 100.663 112.719 101.239 113.225C101.814 113.732 102.517 114.073 103.271 114.212C104.025 114.351 104.802 114.282 105.521 114.014C106.239 113.746 106.871 113.288 107.35 112.689C111.186 107.809 113.566 101.944 114.214 95.7696L114.021 93.0624C114.064 87.4408 115.262 81.888 117.54 76.7487C119.819 71.6094 123.13 66.9933 127.267 63.187C136.583 54.7952 148.73 50.2402 161.267 50.4375C173.804 50.6348 185.802 55.5697 194.849 64.2505C202.509 71.8209 206.885 82.1002 207.031 92.869C206.962 98.458 205.752 103.974 203.474 109.078C201.196 114.182 197.899 118.767 193.786 122.551C184.727 130.809 172.88 135.333 160.623 135.217C152.508 135.233 144.512 133.275 137.322 129.512C134.531 133.954 131.256 138.072 127.557 141.791L126.01 143.338C136.509 149.778 148.597 153.16 160.913 153.103C169.003 153.304 177.054 151.906 184.603 148.991C192.153 146.075 199.053 141.699 204.909 136.113C210.764 130.527 215.46 123.84 218.728 116.436C221.996 109.032 223.77 101.057 223.951 92.9657Z" fill="white" fill-opacity="0.1"/>
<path fill-rule="evenodd" clip-rule="evenodd" d="M57.7215 67.3637C58.7727 67.663 60.3902 68.2368 61.2687 69.1153C62.1493 69.9959 62.7237 71.6193 63.0225 72.6702V86.326H63.5225V72.6548C63.8224 71.6034 64.3955 69.9916 65.2719 69.1153C66.1503 68.2368 67.7678 67.663 68.819 67.3637H82.4842V66.8637H68.8192C67.7681 66.5644 66.1504 65.9906 65.2719 65.112C64.3955 64.2357 63.8224 62.6238 63.5225 61.5725V47.9014H63.0225V61.5571C62.7237 62.608 62.1493 64.2314 61.2687 65.112C60.3901 65.9906 58.7724 66.5644 57.7213 66.8637H44.0596V67.3637H57.7215Z" fill="white"/>
<defs>
<filter id="filter0_d_4321_365748" x="0.441406" y="150.605" width="84" height="84" filterUnits="userSpaceOnUse" color-interpolation-filters="sRGB">
<feFlood flood-opacity="0" result="BackgroundImageFix"/>
<feColorMatrix in="SourceAlpha" type="matrix" values="0 0 0 0 0 0 0 0 0 0 0 0 0 0 0 0 0 0 127 0" result="hardAlpha"/>
<feOffset dx="2" dy="4"/>
<feGaussianBlur stdDeviation="6"/>
<feComposite in2="hardAlpha" operator="out"/>
<feColorMatrix type="matrix" values="0 0 0 0 0 0 0 0 0 0 0 0 0 0 0 0 0 0 0.08 0"/>
<feBlend mode="normal" in2="BackgroundImageFix" result="effect1_dropShadow_4321_365748"/>
<feBlend mode="normal" in="SourceGraphic" in2="effect1_dropShadow_4321_365748" result="shape"/>
</filter>
<filter id="filter1_d_4321_365748" x="157" y="150.605" width="84" height="84" filterUnits="userSpaceOnUse" color-interpolation-filters="sRGB">
<feFlood flood-opacity="0" result="BackgroundImageFix"/>
<feColorMatrix in="SourceAlpha" type="matrix" values="0 0 0 0 0 0 0 0 0 0 0 0 0 0 0 0 0 0 127 0" result="hardAlpha"/>
<feOffset dx="2" dy="4"/>
<feGaussianBlur stdDeviation="6"/>
<feComposite in2="hardAlpha" operator="out"/>
<feColorMatrix type="matrix" values="0 0 0 0 0 0 0 0 0 0 0 0 0 0 0 0 0 0 0.08 0"/>
<feBlend mode="normal" in2="BackgroundImageFix" result="effect1_dropShadow_4321_365748"/>
<feBlend mode="normal" in="SourceGraphic" in2="effect1_dropShadow_4321_365748" result="shape"/>
</filter>
<linearGradient id="paint0_linear_4321_365748" x1="59.4719" y1="214.585" x2="14.9929" y2="158.605" gradientUnits="userSpaceOnUse">
<stop stop-color="white"/>
<stop offset="1" stop-color="white" stop-opacity="0"/>
</linearGradient>
<linearGradient id="paint1_linear_4321_365748" x1="216.03" y1="214.585" x2="171.552" y2="158.605" gradientUnits="userSpaceOnUse">
<stop stop-color="white"/>
<stop offset="1" stop-color="white" stop-opacity="0"/>
</linearGradient>
</defs>
</svg>
