<svg width="28" height="29" viewBox="0 0 28 29" fill="none" xmlns="http://www.w3.org/2000/svg">
<g id="Group 1000004848">
<path id="Vector" d="M14.0002 24.7349C19.7993 24.7349 24.5004 20.0338 24.5004 14.2347C24.5004 8.43559 19.7993 3.7345 14.0002 3.7345C8.20109 3.7345 3.5 8.43559 3.5 14.2347C3.5 20.0338 8.20109 24.7349 14.0002 24.7349Z" fill="white" stroke="white" stroke-width="1.5" stroke-linecap="round" stroke-linejoin="round"/>
<path id="Vector_2" d="M17.2658 10.7347C17.0545 10.368 16.7474 10.0658 16.3775 9.86029C16.0076 9.65478 15.5887 9.55373 15.1658 9.56797H12.8324C12.2135 9.56797 11.62 9.81381 11.1825 10.2514C10.7449 10.689 10.499 11.2825 10.499 11.9013C10.499 12.5202 10.7449 13.1137 11.1825 13.5513C11.62 13.9889 12.2135 14.2347 12.8324 14.2347H15.1658C15.7846 14.2347 16.3781 14.4806 16.8157 14.9182C17.2533 15.3557 17.4991 15.9492 17.4991 16.5681C17.4991 17.1869 17.2533 17.7804 16.8157 18.218C16.3781 18.6556 15.7846 18.9015 15.1658 18.9015H12.8324C12.4095 18.9157 11.9906 18.8147 11.6207 18.6092C11.2508 18.4036 10.9437 18.1014 10.7324 17.7348" stroke="#F7931B" stroke-width="1.5" stroke-linecap="round" stroke-linejoin="round"/>
<path id="Vector_3" d="M13.999 7.23438V9.56775M13.999 18.9012V21.2346" stroke="#F7931B" stroke-width="1.5" stroke-linecap="round" stroke-linejoin="round"/>
</g>
</svg>
