<svg xmlns="http://www.w3.org/2000/svg" width="17" height="17" viewBox="0 0 17 17" fill="none">
  <path fill-rule="evenodd" clip-rule="evenodd" d="M1.5 8.58176C1.5 4.813 4.55518 1.75781 8.32394 1.75781C12.0927 1.75781 15.1479 4.813 15.1479 8.58176C15.1479 12.3505 12.0927 15.4057 8.32394 15.4057C4.55518 15.4057 1.5 12.3505 1.5 8.58176ZM8.32394 0.757812C4.0029 0.757812 0.5 4.26071 0.5 8.58176C0.5 12.9028 4.0029 16.4057 8.32394 16.4057C12.645 16.4057 16.1479 12.9028 16.1479 8.58176C16.1479 4.26071 12.645 0.757812 8.32394 0.757812ZM7.53348 10.558V9.78907C7.53348 9.35793 7.62744 8.9917 7.84415 8.6581C8.05775 8.32929 8.38145 8.04645 8.81588 7.76398C9.18459 7.51908 9.42284 7.30493 9.5702 7.08686C9.71372 6.87449 9.77875 6.64688 9.77875 6.35763V6.35157C9.77875 5.61702 9.19996 5.06885 8.32052 5.06885C7.8821 5.06885 7.52406 5.20612 7.26768 5.43314C7.01156 5.65993 6.84494 5.98677 6.80693 6.38857L6.80683 6.38963L6.78277 6.63025H5.59766L5.62176 6.34102C5.67681 5.69342 5.937 5.09283 6.40163 4.65387C6.86765 4.21361 7.52554 3.94867 8.35078 3.94867C9.88875 3.94867 11.0321 4.94076 11.0321 6.30921V6.31526C11.0321 7.29857 10.5309 7.98987 9.6632 8.54725C9.27277 8.7976 9.0475 8.99275 8.91611 9.19081C8.78983 9.38114 8.73839 9.59242 8.73839 9.90406V10.558H7.53348ZM6.60177 6.43025H5.81502L5.82107 6.35763C5.8247 6.31489 5.82928 6.27242 5.83481 6.23025C5.97019 5.19799 6.67333 4.34467 7.90127 4.17812C6.62343 4.35162 5.91402 5.26892 5.82148 6.35758L5.81543 6.4302H6.60177L6.60177 6.43025ZM7.73389 10.3579H8.53839V10.358H7.73348V9.78907C7.73348 8.99022 8.07844 8.48186 8.92571 7.93113C9.6822 7.42882 9.97875 7.00518 9.97875 6.35763V6.35157C9.97875 5.48615 9.28883 4.86885 8.32052 4.86885C8.23226 4.86885 8.14649 4.87394 8.06344 4.88388C8.14662 4.87391 8.23253 4.8688 8.32093 4.8688C9.28924 4.8688 9.97916 5.4861 9.97916 6.35153V6.35758C9.97916 7.00513 9.68262 7.42877 8.92612 7.93108C8.07885 8.48181 7.73389 8.99017 7.73389 9.78903V10.3579ZM8.14501 13.2148C7.71985 13.2148 7.38218 12.8771 7.38218 12.4519C7.38218 12.0221 7.71845 11.683 8.14501 11.683C8.57622 11.683 8.91389 12.0207 8.91389 12.4519C8.91389 12.8785 8.57482 13.2148 8.14501 13.2148ZM7.58218 12.4519C7.58218 12.7666 7.83031 13.0148 8.14501 13.0148C8.16889 13.0148 8.19236 13.0134 8.21536 13.0107C8.1925 13.0133 8.16916 13.0147 8.14542 13.0147C7.83072 13.0147 7.58259 12.7666 7.58259 12.4519C7.58259 12.155 7.79516 11.9203 8.07632 11.887C7.79495 11.9202 7.58218 12.1549 7.58218 12.4519Z" fill="white"/>
</svg>