<svg xmlns="http://www.w3.org/2000/svg" width="65" height="68" viewBox="0 0 65 68" fill="none">
  <path d="M64.0914 0.120192L64.0646 1.17377L64.0437 1.71564L64.0199 2.1711C63.6296 8.44935 61.2819 14.5861 57.3819 19.527C56.8278 20.2472 56.2289 20.9273 55.6092 21.5861C54.9597 22.2758 54.2834 22.9428 53.6071 23.6094L53.5713 23.6493L52.9486 24.2612L52.3349 24.8768L42.9052 34.2845C35.6714 41.499 28.4345 48.712 21.2036 55.9306C18.2123 58.8779 16.4962 63.0319 16.4903 67.2234C11.2973 67.2264 6.10127 67.229 0.911232 67.2208C0.92315 66.6272 0.935067 66.0362 0.961881 65.4451C1.35218 57.9707 4.54902 50.6847 9.79269 45.3323L43.7752 11.4321C46.7784 8.48212 48.5005 4.31996 48.5094 0.120192L58.7375 0.115723L64.0914 0.120192Z" fill="white"/>
  <path d="M63.2453 59.943C63.8084 62.3265 64.0825 64.7752 64.0944 67.2238L57.6322 67.2253C54.5903 67.2227 51.5483 67.2205 48.5094 67.2346C48.4885 64.0698 47.5471 60.9072 45.7505 58.2925C43.6679 55.1928 40.4562 52.9021 36.872 51.8563L48.6375 40.1329C55.9161 44.4146 61.3266 51.7282 63.2453 59.943Z" fill="white"/>
  <path d="M22.8005 20.7973L28.1306 15.4858C24.9725 14.5678 22.1034 12.6882 20.0446 10.1278C17.7565 7.32241 16.5022 3.72968 16.4933 0.117957L0.905273 0.120564C0.917191 3.54719 1.46241 6.97382 2.56477 10.2206C4.9423 17.2861 9.93868 23.4173 16.3651 27.2115C18.5162 25.0764 20.6584 22.9368 22.8005 20.7973Z" fill="white"/>
  <path d="M24.9248 2.01096C25.044 2.49436 25.2168 2.96734 25.4403 3.42132C26.9985 6.91871 31.3543 8.78974 34.9712 7.49335C38.1263 6.52059 40.3013 3.35242 40.3102 0.115723H24.7044C24.6984 0.752932 24.7699 1.39051 24.9248 2.01096Z" fill="white"/>
  <path d="M39.9944 65.0913C40.2149 65.7904 40.3132 66.5099 40.3102 67.2268H24.7044C24.7312 64.5301 26.1613 61.8401 28.5686 60.5072C31.7952 58.5461 36.3566 59.4093 38.6269 62.4192C39.2525 63.2091 39.7203 64.1216 39.9944 65.0913Z" fill="white"/>
</svg>