<svg width="24" height="24" viewBox="0 0 24 24" fill="#999">
  <path fillRule="evenodd" clipRule="evenodd" d="M8.28776 7.22703C7.99487 6.93414 7.52 6.93414 7.2271 7.22703C6.93421 7.51992 6.93421 7.9948 7.2271 8.28769L10.9393 11.9999L7.22702 15.7122C6.93412 16.0051 6.93412 16.48 7.22702 16.7729C7.51991 17.0658 7.99478 17.0658 8.28768 16.7729L12 13.0606L15.7124 16.773C16.0053 17.0659 16.4802 17.0659 16.773 16.773C17.0659 16.4801 17.0659 16.0052 16.773 15.7123L13.0606 11.9999L16.773 8.2876C17.0659 7.99471 17.0659 7.51984 16.773 7.22694C16.4801 6.93405 16.0052 6.93405 15.7123 7.22694L12 10.9393L8.28776 7.22703Z" />
</svg>