<svg width="20" height="20" viewBox="0 0 20 20" fill="#2C2C2C">
    <path d="M10.9042 10.0008L15.6557 5.24931C15.8959 5.00913 15.8959 4.61484 15.6557 4.37465L15.6297 4.34864C15.3895 4.10846 14.9952 4.10846 14.7551 4.34864L10.0035 9.10618L5.252 4.34664C5.01182 4.10646 4.61753 4.10646 4.37735 4.34664L4.35132 4.37265C4.10514 4.61283 4.10514 5.00712 4.35132 5.2473L9.10286 10.0008L4.35132 14.7524C4.11114 14.9925 4.11114 15.3868 4.35132 15.627L4.37735 15.653C4.61753 15.8932 5.01182 15.8932 5.252 15.653L10.0035 10.9015L14.7551 15.653C14.9952 15.8932 15.3895 15.8932 15.6297 15.653L15.6557 15.627C15.8959 15.3868 15.8959 14.9925 15.6557 14.7524L10.9042 10.0008Z" />
</svg>
