<svg width="24" height="24" viewBox="0 0 24 24" fill="none" xmlns="http://www.w3.org/2000/svg">
<path d="M18.6613 4.15009C18.6613 4.15009 20.5483 3.41424 20.3904 5.20118C20.3385 5.93704 19.8668 8.51278 19.4996 11.2984L18.2416 19.5506C18.2416 19.5506 18.1367 20.7596 17.193 20.9699C16.2497 21.1797 14.8343 20.234 14.5721 20.0237C14.3622 19.8659 10.6407 17.5004 9.33023 16.3444C8.96303 16.0287 8.54337 15.3983 9.38269 14.6624L14.8868 9.40601C15.5158 8.77458 16.1448 7.30287 13.5239 9.09029L6.18474 14.0834C6.18474 14.0834 5.34592 14.6095 3.77366 14.1364L0.365886 13.0848C0.365886 13.0848 -0.892115 12.2965 1.25717 11.5082C6.49949 9.03784 12.9473 6.51504 18.6608 4.14961" fill="white"/>
</svg>
