<svg xmlns="http://www.w3.org/2000/svg" width="15" height="15" viewBox="0 0 15 15" fill="none">
  <g clip-path="url(#clip0_4089_382909)">
    <path d="M10.6934 2.15551C11.5801 2.66749 12.3165 3.40388 12.8285 4.29067C13.3405 5.17746 13.61 6.18339 13.61 7.20736C13.61 8.23133 13.3405 9.23725 12.8285 10.124C12.3165 11.0108 11.5801 11.7472 10.6933 12.2592C9.8065 12.7711 8.80057 13.0407 7.7766 13.0407C6.75263 13.0406 5.7467 12.7711 4.85993 12.2591C3.97316 11.7471 3.23678 11.0107 2.72481 10.1239C2.21285 9.23708 1.94333 8.23114 1.94336 7.20717L1.94628 7.01817C1.97894 6.01075 2.2721 5.02898 2.79715 4.16858C3.3222 3.30819 4.06124 2.59852 4.94221 2.10877C5.82319 1.61902 6.81603 1.3659 7.82395 1.37409C8.83186 1.38228 9.82046 1.6515 10.6934 2.15551ZM7.77669 3.70717C7.62198 3.70717 7.47361 3.76863 7.36421 3.87803C7.25482 3.98742 7.19336 4.1358 7.19336 4.29051C6.72923 4.29051 6.28411 4.47488 5.95592 4.80307C5.62773 5.13126 5.44336 5.57638 5.44336 6.04051C5.44336 6.50463 5.62773 6.94975 5.95592 7.27794C6.28411 7.60613 6.72923 7.7905 7.19336 7.7905V8.95717C7.09664 8.96233 7.00012 8.94389 6.91212 8.90344C6.82411 8.863 6.74726 8.80176 6.68819 8.72501L6.64853 8.66609C6.56872 8.53738 6.44198 8.44475 6.29511 8.40779C6.14824 8.37084 5.99275 8.39245 5.86153 8.46806C5.73031 8.54368 5.63364 8.66736 5.59196 8.81296C5.55028 8.95856 5.56686 9.11466 5.63819 9.24825C5.78708 9.50648 5.99946 9.72239 6.25519 9.87552C6.51092 10.0286 6.80152 10.1139 7.09944 10.1233H7.19336C7.19324 10.2662 7.24563 10.4043 7.34058 10.5112C7.43554 10.6181 7.56645 10.6864 7.70844 10.7031L7.77669 10.7072C7.9314 10.7072 8.07978 10.6457 8.18917 10.5363C8.29857 10.4269 8.36003 10.2785 8.36003 10.1238L8.46269 10.1209C8.91746 10.0946 9.34406 9.89206 9.65184 9.55624C9.95962 9.22041 10.1243 8.77782 10.111 8.32248C10.0976 7.86715 9.90721 7.43498 9.58025 7.11779C9.2533 6.8006 8.81555 6.6234 8.36003 6.62384V5.45717C8.56886 5.45017 8.75144 5.53884 8.86519 5.68934L8.90486 5.74826C8.98467 5.87697 9.11141 5.96959 9.25828 6.00655C9.40515 6.0435 9.56063 6.02189 9.69186 5.94628C9.82308 5.87067 9.91975 5.74698 9.96143 5.60139C10.0031 5.45579 9.98653 5.29968 9.91519 5.16609C9.76638 4.90776 9.55403 4.69173 9.2983 4.5385C9.04256 4.38526 8.75192 4.2999 8.45394 4.29051H8.36003C8.36003 4.1358 8.29857 3.98742 8.18917 3.87803C8.07978 3.76863 7.9314 3.70717 7.77669 3.70717ZM8.36003 7.7905C8.51474 7.7905 8.66311 7.85196 8.77251 7.96136C8.8819 8.07076 8.94336 8.21913 8.94336 8.37384C8.94336 8.52855 8.8819 8.67692 8.77251 8.78632C8.66311 8.89571 8.51474 8.95717 8.36003 8.95717V7.7905ZM7.19336 5.45717V6.62384C7.03865 6.62384 6.89028 6.56238 6.78088 6.45298C6.67148 6.34359 6.61003 6.19521 6.61003 6.04051C6.61003 5.8858 6.67148 5.73742 6.78088 5.62803C6.89028 5.51863 7.03865 5.45717 7.19336 5.45717Z" fill="white"/>
  </g>
  <defs>
    <clipPath id="clip0_4089_382909">
      <rect width="14" height="14" fill="white" transform="translate(0.777344 0.207153)"/>
    </clipPath>
  </defs>
</svg>