<svg xmlns="http://www.w3.org/2000/svg" width="15" height="15" viewBox="0 0 15 15" fill="none">
  <g clip-path="url(#clip0_4373_57909)">
    <path d="M10.6934 2.65551C11.5801 3.16749 12.3165 3.90388 12.8285 4.79067C13.3405 5.67746 13.61 6.68339 13.61 7.70736C13.61 8.73133 13.3405 9.73725 12.8285 10.624C12.3165 11.5108 11.5801 12.2472 10.6933 12.7592C9.8065 13.2711 8.80057 13.5407 7.7766 13.5407C6.75263 13.5406 5.7467 13.2711 4.85993 12.7591C3.97316 12.2471 3.23678 11.5107 2.72481 10.6239C2.21285 9.73708 1.94333 8.73114 1.94336 7.70717L1.94628 7.51817C1.97894 6.51075 2.2721 5.52898 2.79715 4.66858C3.3222 3.80819 4.06124 3.09852 4.94221 2.60877C5.82319 2.11902 6.81603 1.8659 7.82395 1.87409C8.83186 1.88228 9.82046 2.1515 10.6934 2.65551ZM7.77669 4.20717C7.62198 4.20717 7.47361 4.26863 7.36421 4.37803C7.25482 4.48742 7.19336 4.6358 7.19336 4.79051C6.72923 4.79051 6.28411 4.97488 5.95592 5.30307C5.62773 5.63126 5.44336 6.07638 5.44336 6.54051C5.44336 7.00463 5.62773 7.44975 5.95592 7.77794C6.28411 8.10613 6.72923 8.2905 7.19336 8.2905V9.45717C7.09664 9.46233 7.00012 9.44389 6.91212 9.40344C6.82411 9.363 6.74726 9.30176 6.68819 9.22501L6.64853 9.16609C6.56872 9.03738 6.44198 8.94475 6.29511 8.90779C6.14824 8.87084 5.99275 8.89245 5.86153 8.96806C5.73031 9.04368 5.63364 9.16736 5.59196 9.31296C5.55028 9.45856 5.56686 9.61466 5.63819 9.74825C5.78708 10.0065 5.99946 10.2224 6.25519 10.3755C6.51092 10.5286 6.80152 10.6139 7.09944 10.6233H7.19336C7.19324 10.7662 7.24563 10.9043 7.34058 11.0112C7.43554 11.1181 7.56645 11.1864 7.70844 11.2031L7.77669 11.2072C7.9314 11.2072 8.07978 11.1457 8.18917 11.0363C8.29857 10.9269 8.36003 10.7785 8.36003 10.6238L8.46269 10.6209C8.91746 10.5946 9.34406 10.3921 9.65184 10.0562C9.95962 9.72041 10.1243 9.27782 10.111 8.82248C10.0976 8.36715 9.90721 7.93498 9.58025 7.61779C9.2533 7.3006 8.81555 7.1234 8.36003 7.12384V5.95717C8.56886 5.95017 8.75144 6.03884 8.86519 6.18934L8.90486 6.24826C8.98467 6.37697 9.11141 6.46959 9.25828 6.50655C9.40515 6.5435 9.56063 6.52189 9.69186 6.44628C9.82308 6.37067 9.91975 6.24698 9.96143 6.10139C10.0031 5.95579 9.98653 5.79968 9.91519 5.66609C9.76638 5.40776 9.55403 5.19173 9.2983 5.0385C9.04256 4.88526 8.75192 4.7999 8.45394 4.79051H8.36003C8.36003 4.6358 8.29857 4.48742 8.18917 4.37803C8.07978 4.26863 7.9314 4.20717 7.77669 4.20717ZM8.36003 8.2905C8.51474 8.2905 8.66311 8.35196 8.77251 8.46136C8.8819 8.57076 8.94336 8.71913 8.94336 8.87384C8.94336 9.02855 8.8819 9.17692 8.77251 9.28632C8.66311 9.39571 8.51474 9.45717 8.36003 9.45717V8.2905ZM7.19336 5.95717V7.12384C7.03865 7.12384 6.89028 7.06238 6.78088 6.95298C6.67148 6.84359 6.61003 6.69521 6.61003 6.54051C6.61003 6.3858 6.67148 6.23742 6.78088 6.12803C6.89028 6.01863 7.03865 5.95717 7.19336 5.95717Z" fill="white" fill-opacity="0.4"/>
  </g>
  <defs>
    <clipPath id="clip0_4373_57909">
      <rect width="14" height="14" fill="white" transform="translate(0.777344 0.707153)"/>
    </clipPath>
  </defs>
</svg>