<svg width="13" height="13" viewBox="0 0 13 13" fill="none" xmlns="http://www.w3.org/2000/svg">
<path d="M9.69336 1.65551C10.5801 2.16749 11.3165 2.90388 11.8285 3.79067C12.3405 4.67746 12.61 5.68339 12.61 6.70736C12.61 7.73133 12.3405 8.73725 11.8285 9.62403C11.3165 10.5108 10.5801 11.2472 9.6933 11.7592C8.8065 12.2711 7.80057 12.5407 6.7766 12.5407C5.75263 12.5406 4.7467 12.2711 3.85993 11.7591C2.97316 11.2471 2.23678 10.5107 1.72481 9.62387C1.21285 8.73708 0.943333 7.73114 0.943359 6.70717L0.946276 6.51817C0.978945 5.51075 1.2721 4.52898 1.79715 3.66858C2.3222 2.80819 3.06124 2.09852 3.94221 1.60877C4.82319 1.11902 5.81603 0.865903 6.82395 0.874094C7.83186 0.882285 8.82046 1.1515 9.69336 1.65551ZM6.77669 3.20717C6.62198 3.20717 6.47361 3.26863 6.36421 3.37803C6.25482 3.48742 6.19336 3.6358 6.19336 3.79051C5.72923 3.79051 5.28411 3.97488 4.95592 4.30307C4.62773 4.63126 4.44336 5.07638 4.44336 5.54051C4.44336 6.00463 4.62773 6.44975 4.95592 6.77794C5.28411 7.10613 5.72923 7.2905 6.19336 7.2905V8.45717C6.09664 8.46233 6.00012 8.44389 5.91212 8.40344C5.82411 8.363 5.74726 8.30176 5.68819 8.22501L5.64853 8.16609C5.56872 8.03738 5.44198 7.94475 5.29511 7.90779C5.14824 7.87084 4.99275 7.89245 4.86153 7.96806C4.73031 8.04368 4.63364 8.16736 4.59196 8.31296C4.55028 8.45856 4.56686 8.61466 4.63819 8.74825C4.78708 9.00648 4.99946 9.22239 5.25519 9.37552C5.51092 9.52865 5.80152 9.61392 6.09944 9.62325H6.19336C6.19324 9.76623 6.24563 9.90428 6.34058 10.0112C6.43554 10.1181 6.56645 10.1864 6.70844 10.2031L6.77669 10.2072C6.9314 10.2072 7.07978 10.1457 7.18917 10.0363C7.29857 9.92692 7.36003 9.77855 7.36003 9.62384L7.46269 9.62092C7.91746 9.59464 8.34406 9.39206 8.65184 9.05624C8.95962 8.72041 9.12433 8.27782 9.11096 7.82248C9.09759 7.36715 8.90721 6.93498 8.58025 6.61779C8.2533 6.3006 7.81555 6.1234 7.36003 6.12384V4.95717C7.56886 4.95017 7.75144 5.03884 7.86519 5.18934L7.90486 5.24826C7.98467 5.37697 8.11141 5.46959 8.25828 5.50655C8.40515 5.5435 8.56063 5.52189 8.69186 5.44628C8.82308 5.37067 8.91975 5.24698 8.96143 5.10139C9.00311 4.95579 8.98653 4.79968 8.91519 4.66609C8.76638 4.40776 8.55403 4.19173 8.2983 4.0385C8.04256 3.88526 7.75192 3.7999 7.45394 3.79051H7.36003C7.36003 3.6358 7.29857 3.48742 7.18917 3.37803C7.07978 3.26863 6.9314 3.20717 6.77669 3.20717ZM7.36003 7.2905C7.51474 7.2905 7.66311 7.35196 7.77251 7.46136C7.8819 7.57076 7.94336 7.71913 7.94336 7.87384C7.94336 8.02855 7.8819 8.17692 7.77251 8.28632C7.66311 8.39571 7.51474 8.45717 7.36003 8.45717V7.2905ZM6.19336 4.95717V6.12384C6.03865 6.12384 5.89028 6.06238 5.78088 5.95298C5.67148 5.84359 5.61003 5.69521 5.61003 5.54051C5.61003 5.3858 5.67148 5.23742 5.78088 5.12803C5.89028 5.01863 6.03865 4.95717 6.19336 4.95717Z" fill="white" fill-opacity="0.4"/>
</svg>
