<svg xmlns="http://www.w3.org/2000/svg" width="15" height="15" viewBox="0 0 15 15" fill="none">
  <path fill-rule="evenodd" clip-rule="evenodd" d="M5.50025 7.70719C5.50025 8.95164 6.51895 9.96416 7.77668 9.96416C9.02871 9.96416 10.0474 8.95164 10.0474 7.70719C10.0474 6.45709 9.02871 5.44457 7.77668 5.44457C6.51895 5.44457 5.50025 6.45709 5.50025 7.70719ZM11.123 4.23406C12.119 5.00336 12.9669 6.12901 13.5759 7.5375C13.6214 7.64497 13.6214 7.76942 13.5759 7.87123C12.358 10.6882 10.1897 12.3739 7.77669 12.3739H7.771C5.36368 12.3739 3.19539 10.6882 1.97751 7.87123C1.93198 7.76942 1.93198 7.64497 1.97751 7.5375C3.19539 4.72053 5.36368 3.04053 7.771 3.04053H7.77669C8.9832 3.04053 10.1271 3.45911 11.123 4.23406ZM7.77739 9.11443C8.55707 9.11443 9.19446 8.4809 9.19446 7.70595C9.19446 6.92534 8.55707 6.29181 7.77739 6.29181C7.7091 6.29181 7.64081 6.29747 7.5782 6.30878C7.55544 6.931 7.04324 7.42878 6.41154 7.42878H6.38308C6.36601 7.51928 6.35463 7.60979 6.35463 7.70595C6.35463 8.4809 6.99202 9.11443 7.77739 9.11443Z" fill="white" fill-opacity="0.4"/>
</svg>