<svg width="13" height="13" viewBox="0 0 13 13" fill="none" xmlns="http://www.w3.org/2000/svg">
<path d="M8.11068 7.37402C8.88422 7.37402 9.62609 7.68131 10.1731 8.2283C10.7201 8.77528 11.0273 9.51714 11.0273 10.2907V10.874C11.0273 11.1834 10.9044 11.4802 10.6856 11.699C10.4668 11.9178 10.1701 12.0407 9.86068 12.0407H1.69401C1.38459 12.0407 1.08784 11.9178 0.869052 11.699C0.65026 11.4802 0.527344 11.1834 0.527344 10.874V10.2907C0.527344 9.51714 0.834635 8.77528 1.38162 8.2283C1.9286 7.68131 2.67046 7.37402 3.44401 7.37402H8.11068ZM11.2688 4.50461C11.3736 4.39888 11.5148 4.33717 11.6635 4.33212C11.8122 4.32708 11.9573 4.37907 12.0689 4.47746C12.1806 4.57585 12.2504 4.7132 12.2641 4.86139C12.2778 5.00958 12.2344 5.1574 12.1427 5.27461L12.0937 5.33002L10.444 6.97969C10.3436 7.08013 10.2099 7.14046 10.0682 7.14938C9.92639 7.15829 9.78625 7.11517 9.67401 7.02811L9.61918 6.97969L8.79434 6.15486C8.68861 6.05012 8.62691 5.90894 8.62186 5.7602C8.61681 5.61147 8.66881 5.46643 8.7672 5.35477C8.86559 5.24311 9.00294 5.17328 9.15112 5.15957C9.29931 5.14586 9.44714 5.18931 9.56434 5.28102L9.61918 5.33002L10.0316 5.74244L11.2688 4.50461ZM5.77734 0.374023C6.55089 0.374023 7.29276 0.681314 7.83974 1.2283C8.38672 1.77528 8.69401 2.51714 8.69401 3.29069C8.69401 4.06424 8.38672 4.8061 7.83974 5.35309C7.29276 5.90007 6.55089 6.20736 5.77734 6.20736C5.0038 6.20736 4.26193 5.90007 3.71495 5.35309C3.16797 4.8061 2.86068 4.06424 2.86068 3.29069C2.86068 2.51714 3.16797 1.77528 3.71495 1.2283C4.26193 0.681314 5.0038 0.374023 5.77734 0.374023Z" fill="white" fill-opacity="0.4"/>
</svg>
