<svg width="10" height="18" viewBox="0 0 10 18" fill="none" xmlns="http://www.w3.org/2000/svg">
<path id="Vector" d="M0.69232 9.7056L8.36586 17.017C8.49389 17.1391 8.664 17.2072 8.84089 17.2072C9.01779 17.2072 9.18789 17.1391 9.31593 17.017L9.32419 17.0087C9.38647 16.9496 9.43607 16.8784 9.46996 16.7994C9.50385 16.7205 9.52133 16.6355 9.52133 16.5495C9.52133 16.4636 9.50385 16.3786 9.46996 16.2997C9.43607 16.2207 9.38647 16.1495 9.32419 16.0903L2.09815 9.20578L9.32419 2.32396C9.38647 2.26479 9.43607 2.19357 9.46996 2.11463C9.50385 2.03568 9.52133 1.95067 9.52133 1.86476C9.52133 1.77885 9.50385 1.69384 9.46996 1.6149C9.43607 1.53596 9.38647 1.46473 9.32419 1.40556L9.31593 1.3973C9.18789 1.27524 9.01779 1.20715 8.84089 1.20715C8.664 1.20715 8.4939 1.27524 8.36586 1.3973L0.692321 8.70871C0.624835 8.77301 0.571109 8.85034 0.534399 8.93602C0.49769 9.0217 0.478761 9.11394 0.478761 9.20715C0.478761 9.30037 0.49769 9.39261 0.534399 9.47829C0.571109 9.56397 0.624835 9.6413 0.69232 9.7056Z" fill="white" stroke="white" stroke-width="0.5"/>
</svg>
