<svg width="22" height="25" viewBox="0 0 22 25" fill="none" xmlns="http://www.w3.org/2000/svg">
<path id="Vector (Stroke)" fill-rule="evenodd" clip-rule="evenodd" d="M10.5364 0.331904C10.823 0.165407 11.1769 0.165407 11.4636 0.331904L20.9991 5.87037C21.2835 6.03557 21.4586 6.33964 21.4586 6.66857V17.7455C21.4586 18.0744 21.2835 18.3785 20.9991 18.5437L11.4636 24.0822C11.1769 24.2487 10.823 24.2487 10.5364 24.0822L1.00084 18.5437C0.716413 18.3785 0.541382 18.0744 0.541382 17.7455V6.66857C0.541382 6.33964 0.716413 6.03557 1.00084 5.87037L10.5364 0.331904ZM2.38754 8.2722V17.2142L10.0769 21.6803V12.7384L2.38754 8.2722ZM11.9231 12.7384V21.6803L19.6124 17.2142V8.2722L11.9231 12.7384ZM18.6976 6.66857L11 11.1395L3.30234 6.66857L11 2.19759L18.6976 6.66857Z" fill="white"/>
</svg>
