<svg width="20" height="21" viewBox="0 0 20 21" fill="none" xmlns="http://www.w3.org/2000/svg">
<g id="ic:baseline-create">
<path id="Vector" d="M5 13.124V15.207H7.08305L13.2267 9.06342L11.1436 6.98037L5 13.124ZM14.8376 7.45253C14.889 7.40114 14.9299 7.3401 14.9578 7.2729C14.9857 7.2057 15 7.13367 15 7.06092C15 6.98816 14.9857 6.91613 14.9578 6.84893C14.9299 6.78173 14.889 6.72069 14.8376 6.6693L13.5377 5.36948C13.4863 5.31798 13.4253 5.27713 13.3581 5.24925C13.2909 5.22138 13.2189 5.20703 13.1461 5.20703C13.0734 5.20703 13.0013 5.22138 12.9341 5.24925C12.8669 5.27713 12.8059 5.31798 12.7545 5.36948L11.738 6.38601L13.821 8.46906L14.8376 7.45253Z" fill="#717171"/>
</g>
</svg>
