<svg xmlns="http://www.w3.org/2000/svg" width="15" height="15" viewBox="0 0 15 15" fill="none">
  <path d="M7.25009 12.7501C10.1496 12.7501 12.5002 10.3996 12.5002 7.50003C12.5002 4.60048 10.1496 2.24994 7.25009 2.24994C4.35055 2.24994 2 4.60048 2 7.50003C2 10.3996 4.35055 12.7501 7.25009 12.7501Z" fill="#282828" stroke="#282828" stroke-width="1.5" stroke-linecap="round" stroke-linejoin="round"/>
  <path d="M8.88339 5.75002C8.77772 5.56671 8.62418 5.41559 8.43922 5.31283C8.25426 5.21008 8.04484 5.15956 7.83337 5.16668H6.66669C6.35726 5.16668 6.06051 5.2896 5.84171 5.50839C5.62292 5.72719 5.5 6.02394 5.5 6.33336C5.5 6.64279 5.62292 6.93954 5.84171 7.15834C6.06051 7.37713 6.35726 7.50005 6.66669 7.50005H7.83337C8.1428 7.50005 8.43955 7.62297 8.65835 7.84177C8.87714 8.06056 9.00006 8.35731 9.00006 8.66674C9.00006 8.97616 8.87714 9.27291 8.65835 9.49171C8.43955 9.71051 8.1428 9.83343 7.83337 9.83343H6.66669C6.45522 9.84054 6.2458 9.79002 6.06084 9.68727C5.87588 9.58451 5.72234 9.43339 5.61667 9.25008" stroke="white" stroke-width="1.5" stroke-linecap="round" stroke-linejoin="round"/>
  <path d="M7.25 3.99988V5.16656M7.25 9.83331V11" stroke="white" stroke-width="1.5" stroke-linecap="round" stroke-linejoin="round"/>
</svg>