<svg xmlns="http://www.w3.org/2000/svg" width="29" height="28" viewBox="0 0 29 28" fill="none">
  <path d="M14.5002 24.5003C20.2993 24.5003 25.0004 19.7992 25.0004 14.0001C25.0004 8.20103 20.2993 3.49994 14.5002 3.49994C8.70109 3.49994 4 8.20103 4 14.0001C4 19.7992 8.70109 24.5003 14.5002 24.5003Z" fill="#282828" stroke="#282828" stroke-width="1.5" stroke-linecap="round" stroke-linejoin="round"/>
  <path d="M17.7668 10.5C17.5554 10.1334 17.2484 9.83112 16.8784 9.62561C16.5085 9.4201 16.0897 9.31905 15.6667 9.33329H13.3334C12.7145 9.33329 12.121 9.57913 11.6834 10.0167C11.2458 10.4543 11 11.0478 11 11.6667C11 12.2855 11.2458 12.879 11.6834 13.3166C12.121 13.7542 12.7145 14 13.3334 14H15.6667C16.2856 14 16.8791 14.2459 17.3167 14.6835C17.7543 15.1211 18.0001 15.7146 18.0001 16.3334C18.0001 16.9523 17.7543 17.5458 17.3167 17.9834C16.8791 18.421 16.2856 18.6668 15.6667 18.6668H13.3334C12.9104 18.681 12.4916 18.58 12.1217 18.3745C11.7518 18.169 11.4447 17.8667 11.2333 17.5001" stroke="white" stroke-width="1.5" stroke-linecap="round" stroke-linejoin="round"/>
  <path d="M14.5 6.99982V9.33319M14.5 18.6667V21.0001" stroke="white" stroke-width="1.5" stroke-linecap="round" stroke-linejoin="round"/>
</svg>