<svg width="9" height="13" viewBox="0 0 9 13" fill="none" xmlns="http://www.w3.org/2000/svg">
<g id="Vector">
<path d="M1.52633 0.207153C1.11211 0.207153 0.776327 0.54294 0.776327 0.957153C0.776327 1.37137 1.11211 1.70715 1.52633 1.70715H4.02633C4.44054 1.70715 4.77633 1.37137 4.77633 0.957153C4.77633 0.54294 4.44054 0.207153 4.02633 0.207153H1.52633Z" fill="white"/>
<path d="M8.28561 2.66091C8.67428 2.51772 8.87328 2.08655 8.73008 1.69787C8.58689 1.3092 8.15572 1.1102 7.76705 1.2534L1.26705 3.64813C0.878373 3.79133 0.679374 4.22249 0.82257 4.61117C0.965765 4.99984 1.39693 5.19884 1.78561 5.05565L8.28561 2.66091Z" fill="white"/>
<path d="M8.28561 8.76617C8.67428 8.62298 8.87328 8.19181 8.73008 7.80314C8.58689 7.41446 8.15572 7.21546 7.76705 7.35866L1.26705 9.7534C0.878373 9.89659 0.679374 10.3278 0.82257 10.7164C0.965765 11.1051 1.39693 11.3041 1.78561 11.1609L8.28561 8.76617Z" fill="white"/>
<path d="M5.52633 10.7072C5.11211 10.7072 4.77633 11.0429 4.77633 11.4572C4.77633 11.8714 5.11211 12.2072 5.52633 12.2072H8.02633C8.44054 12.2072 8.77633 11.8714 8.77633 11.4572C8.77633 11.0429 8.44054 10.7072 8.02633 10.7072H5.52633Z" fill="white"/>
<path d="M8.29556 5.65737C8.68216 5.50867 8.87503 5.07473 8.72634 4.68812C8.57764 4.30152 8.1437 4.10865 7.75709 4.25735L1.25709 6.75735C0.870487 6.90604 0.677623 7.33999 0.826317 7.72659C0.975011 8.11319 1.40896 8.30606 1.79556 8.15737L8.29556 5.65737Z" fill="white"/>
</g>
</svg>
