<svg width="8" height="9" viewBox="0 0 8 9" fill="none" xmlns="http://www.w3.org/2000/svg">
<path fill-rule="evenodd" clip-rule="evenodd" d="M2.83528 0.707153C2.83377 0.842293 2.86177 0.977612 2.92297 1.10113C3.1085 1.51798 3.62766 1.74101 4.05894 1.58649C4.43485 1.47055 4.6943 1.09292 4.69512 0.707153H2.83528ZM7.53147 0.707668C7.53016 0.789154 7.52821 0.87064 7.52301 0.952127C7.47646 1.70043 7.19687 2.43187 6.73173 3.02077C6.59663 3.19684 6.43875 3.3526 6.28099 3.50823C6.23047 3.55808 6.17996 3.6079 6.13022 3.65838C5.56867 4.21877 5.00699 4.77895 4.44529 5.33915L4.44512 5.33932L4.4428 5.34163C3.76846 6.01417 3.09411 6.68673 2.41994 7.35967C2.0632 7.71094 1.85879 8.20603 1.85814 8.70566C1.23905 8.70599 0.619972 8.70631 0.00121069 8.70533C0.00251244 8.63456 0.00414144 8.56412 0.00707058 8.49366C0.053616 7.60284 0.434767 6.73441 1.05971 6.09648C1.67321 5.48427 2.28692 4.8722 2.90064 4.26011L2.90127 4.25948C3.63764 3.52508 4.37403 2.79065 5.11013 2.05592C5.46817 1.70433 5.67324 1.20827 5.67421 0.707668L5.98376 0.707487C6.49966 0.707172 7.01556 0.706856 7.53147 0.707668ZM7.43046 7.83803C7.49784 8.12209 7.53038 8.41395 7.53169 8.70581C7.27216 8.70635 7.01258 8.70615 6.75299 8.70596H6.75298H6.75297H6.75297H6.75271C6.39315 8.70568 6.03358 8.70541 5.67411 8.7071C5.67183 8.32986 5.55953 7.95295 5.34536 7.6413C5.09701 7.27184 4.71423 6.99881 4.28719 6.87415C4.50429 6.65836 4.72091 6.44215 4.93752 6.22594L4.93753 6.22594L4.93753 6.22594L4.93753 6.22593C5.18791 5.97603 5.43828 5.72612 5.6894 5.47687C6.55717 5.98721 7.20196 6.85889 7.43046 7.83803ZM2.64475 3.13745L2.645 3.13721C2.84485 2.93776 3.04469 2.73832 3.24483 2.53912C2.86856 2.42971 2.52647 2.2057 2.28105 1.90053C2.00861 1.56615 1.85888 1.13794 1.85791 0.707456C1.54821 0.707618 1.23858 0.707619 0.928956 0.707619C0.619331 0.707619 0.309706 0.707619 0 0.707781C0.00130175 1.11619 0.0664006 1.52459 0.1979 1.91157C0.481078 2.7537 1.07672 3.48449 1.84261 3.93671C2.11047 3.67066 2.3776 3.40407 2.64471 3.1375L2.64473 3.13748L2.64475 3.13745ZM4.65917 8.45153C4.68514 8.53487 4.6971 8.62064 4.69653 8.70605H2.8366C2.83979 8.38464 3.0104 8.06405 3.29731 7.90515C3.68171 7.6714 4.22528 7.77431 4.49609 8.13305C4.57063 8.2272 4.62629 8.33595 4.65917 8.45153Z" fill="#0D0D0D"/>
</svg>
