<svg width="20" height="20" viewBox="0 0 20 20" fill="none" xmlns="http://www.w3.org/2000/svg">
<g id="circle-exclamation-solid 1" clip-path="url(#clip0_12194_3062)">
<path id="Vector" d="M9.92405 20C15.4055 20 19.8481 15.5234 19.8481 10C19.8481 4.47656 15.4055 0 9.92405 0C4.44256 0 0 4.47656 0 10C0 15.5234 4.44256 20 9.92405 20ZM9.92405 5C10.4396 5 10.8544 5.41797 10.8544 5.9375V10.3125C10.8544 10.832 10.4396 11.25 9.92405 11.25C9.40846 11.25 8.99367 10.832 8.99367 10.3125V5.9375C8.99367 5.41797 9.40846 5 9.92405 5ZM11.1646 13.75C11.1646 14.4414 10.6102 15 9.92405 15C9.23789 15 8.68354 14.4414 8.68354 13.75C8.68354 13.0586 9.23789 12.5 9.92405 12.5C10.6102 12.5 11.1646 13.0586 11.1646 13.75Z" fill="#FFFFE5"/>
</g>
<defs>
<clipPath id="clip0_12194_3062">
<rect width="19.8481" height="20" fill="white"/>
</clipPath>
</defs>
</svg>
