<svg xmlns="http://www.w3.org/2000/svg" width="48" height="48" viewBox="0 0 48 48" fill="none">
  <path d="M24.0005 47.9375C22.853 47.9375 21.9297 47.0658 21.9297 45.9989V43.799H21.8672V39.3992H21.9297V34.9994H21.8672V30.5997H21.9297V26.1999H21.8672V21.8001H21.9297V17.4003H21.8672V13.0006H21.9297V8.60078H21.8672V4.20101H21.9297V2.00112C21.9297 1.73076 21.9888 1.47341 22.0956 1.23964L22.0387 1.21368C22.2606 0.727821 22.6817 0.341005 23.2056 0.143549L23.2276 0.202033C23.4663 0.112072 23.7271 0.0625 24.0005 0.0625C24.2739 0.0625 24.5347 0.112072 24.7734 0.202033L24.7955 0.143549C25.3194 0.341005 25.7404 0.727821 25.9623 1.21368L25.9055 1.23964C26.0123 1.47341 26.0714 1.73076 26.0714 2.00112V4.20101H26.1339V8.60078H26.0714V13.0006H26.1339V17.4003H26.0714V21.8001H26.1339V26.1999H26.0714V30.5997H26.1339V34.9994H26.0714V39.3992H26.1339V43.799H26.0714V45.9989C26.0714 47.0658 25.148 47.9375 24.0005 47.9375Z" fill="#D7D6D9" stroke="#D7D6D9" stroke-width="0.125" stroke-dasharray="4 4"/>
  <path d="M2.00112 26.0715C1.73076 26.0715 1.47341 26.0124 1.23964 25.9056L1.21368 25.9625C0.72782 25.7405 0.341005 25.3195 0.143548 24.7956L0.202032 24.7735C0.112072 24.5349 0.0625 24.274 0.0625 24.0006C0.0625 23.7273 0.112072 23.4664 0.202033 23.2277L0.143549 23.2057C0.341005 22.6818 0.72782 22.2608 1.21368 22.0388L1.23964 22.0957C1.47341 21.9889 1.73076 21.9298 2.00112 21.9298H4.20101V21.8673H8.60078V21.9298H13.0006V21.8673H17.4003V21.9298H21.8001V21.8673H26.1999V21.9298H30.5997V21.8673H34.9994V21.9298H39.3992V21.8673H43.799V21.9298H45.9989C46.2692 21.9298 46.5266 21.9889 46.7604 22.0957L46.7863 22.0388C47.2722 22.2608 47.659 22.6818 47.8565 23.2057L47.798 23.2277C47.8879 23.4664 47.9375 23.7273 47.9375 24.0006C47.9375 24.274 47.8879 24.5349 47.798 24.7735L47.8565 24.7956C47.659 25.3195 47.2722 25.7405 46.7863 25.9625L46.7604 25.9056C46.5266 26.0124 46.2692 26.0715 45.9989 26.0715H43.799V26.134H39.3992V26.0715H34.9994V26.134H30.5997V26.0715H26.1999V26.134H21.8001V26.0715H17.4003V26.134H13.0006V26.0715H8.60078V26.134H4.20101V26.0715H2.00112Z" fill="#D7D6D9" stroke="#D7D6D9" stroke-width="0.125" stroke-dasharray="4 4"/>
</svg>