<svg xmlns="http://www.w3.org/2000/svg" width="8" height="9" viewBox="0 0 8 9" fill="none">
  <path fill-rule="evenodd" clip-rule="evenodd" d="M2.83528 0.5C2.83377 0.635139 2.86177 0.770459 2.92297 0.893981C3.1085 1.31083 3.62766 1.53386 4.05894 1.37933C4.43485 1.26339 4.6943 0.885769 4.69512 0.5H2.83528ZM7.53147 0.500514C7.53016 0.582001 7.52821 0.663487 7.52301 0.744974C7.47646 1.49328 7.19687 2.22471 6.73173 2.81362C6.59663 2.98969 6.43875 3.14545 6.28099 3.30108C6.23047 3.35092 6.17996 3.40075 6.13022 3.45123C5.56867 4.01161 5.00699 4.5718 4.44529 5.132L4.44512 5.13216L4.4428 5.13448C3.76846 5.80702 3.09411 6.47957 2.41994 7.15252C2.0632 7.50379 1.85879 7.99888 1.85814 8.4985C1.23905 8.49883 0.619972 8.49915 0.00121069 8.49818C0.00251244 8.42741 0.00414144 8.35696 0.00707058 8.28651C0.053616 7.39568 0.434767 6.52725 1.05971 5.88932C1.67321 5.27712 2.28692 4.66505 2.90064 4.05296L2.90127 4.05233C3.63764 3.31792 4.37403 2.58349 5.11013 1.84877C5.46817 1.49718 5.67324 1.00112 5.67421 0.500514L5.98376 0.500334C6.49966 0.500018 7.01556 0.499703 7.53147 0.500514ZM7.43046 7.63087C7.49784 7.91494 7.53038 8.2068 7.53169 8.49865C7.27216 8.4992 7.01258 8.499 6.75299 8.4988H6.75298H6.75297H6.75297H6.75271C6.39315 8.49853 6.03358 8.49825 5.67411 8.49995C5.67183 8.12271 5.55953 7.7458 5.34536 7.43414C5.09701 7.06469 4.71423 6.79166 4.28719 6.667C4.50429 6.45121 4.72091 6.235 4.93752 6.01879L4.93753 6.01879L4.93753 6.01878L4.93753 6.01878C5.18791 5.76887 5.43828 5.51897 5.6894 5.26972C6.55717 5.78006 7.20196 6.65174 7.43046 7.63087ZM2.64475 2.9303L2.645 2.93005C2.84485 2.73061 3.04469 2.53116 3.24483 2.33196C2.86856 2.22256 2.52647 1.99855 2.28105 1.69338C2.00861 1.35899 1.85888 0.930784 1.85791 0.500303C1.54821 0.500465 1.23858 0.500465 0.928956 0.500465C0.619331 0.500465 0.309706 0.500465 0 0.500628C0.00130175 0.909033 0.0664006 1.31744 0.1979 1.70442C0.481078 2.54655 1.07672 3.27733 1.84261 3.72956C2.11047 3.4635 2.3776 3.19691 2.64471 2.93034L2.64473 2.93032L2.64475 2.9303ZM4.65917 8.24438C4.68514 8.32772 4.6971 8.41349 4.69653 8.4989H2.8366C2.83979 8.17748 3.0104 7.8569 3.29731 7.698C3.68171 7.46425 4.22528 7.56716 4.49609 7.9259C4.57063 8.02005 4.62629 8.1288 4.65917 8.24438Z" fill="#0D0D0D"/>
</svg>