<svg xmlns="http://www.w3.org/2000/svg" width="16" height="16" viewBox="0 0 16 16" fill="none">
<path d="M10.5848 7.70089L5.98063 3.31404C5.90381 3.2408 5.80175 3.19995 5.69561 3.19995C5.58948 3.19995 5.48741 3.2408 5.41059 3.31404L5.40563 3.319C5.36826 3.3545 5.33851 3.39723 5.31817 3.4446C5.29784 3.49196 5.28735 3.54297 5.28735 3.59452C5.28735 3.64606 5.29784 3.69707 5.31817 3.74443C5.33851 3.7918 5.36826 3.83453 5.40563 3.87004L9.74126 8.00078L5.40563 12.1299C5.36826 12.1654 5.33851 12.2081 5.31817 12.2555C5.29784 12.3028 5.28735 12.3538 5.28735 12.4054C5.28735 12.4569 5.29784 12.5079 5.31817 12.5553C5.33851 12.6027 5.36826 12.6454 5.40563 12.6809L5.41059 12.6859C5.48741 12.7591 5.58948 12.8 5.69561 12.8C5.80175 12.8 5.90381 12.7591 5.98063 12.6859L10.5848 8.29902C10.6252 8.26044 10.6575 8.21404 10.6795 8.16263C10.7015 8.11122 10.7129 8.05588 10.7129 7.99995C10.7129 7.94402 10.7015 7.88868 10.6795 7.83727C10.6575 7.78586 10.6252 7.73946 10.5848 7.70089Z" fill="#4E6EF3" stroke="#4E6EF3" stroke-width="0.5"/>
</svg>