<svg xmlns="http://www.w3.org/2000/svg" width="38" height="40" viewBox="0 0 38 40" fill="none">
  <path fill-rule="evenodd" clip-rule="evenodd" d="M17.3134 0L14.4594 7.15843L17.6121 6.70058L19.2183 17.7603C18.3016 18.1455 17.6452 19.0276 17.5863 20.0695L6.4512 22.2753L5.83212 19.1503L0.0341797 24.2269L7.32968 26.7098L6.71059 23.5847L17.8447 21.379C18.0437 21.7923 18.346 22.1465 18.7182 22.4081L14.5476 33.5173L11.5651 32.3976L12.8268 40L18.7798 35.1061L15.7972 33.9864L19.9678 22.8773C20.061 22.8871 20.1557 22.8922 20.2515 22.8922C20.9405 22.8922 21.5685 22.6311 22.0421 22.2026L29.7186 27.2646L27.9648 29.9242L35.6577 30.3814L32.2072 23.4906L30.4534 26.1503L22.7775 21.0887C22.8706 20.8171 22.9211 20.5257 22.9211 20.2226C22.9211 19.9214 22.8713 19.632 22.7793 19.3619L32.7525 12.8175L34.5003 15.481L37.9662 8.59792L30.2723 9.03795L32.0202 11.7015L22.0464 18.2464C21.639 17.8762 21.1166 17.6302 20.5392 17.5683L18.9331 6.50875L22.0858 6.05089L17.3134 0Z" fill="white"/>
  <path d="M24.0892 20.3112C24.0892 22.431 22.3708 24.1495 20.2509 24.1495C18.1311 24.1495 16.4126 22.431 16.4126 20.3112C16.4126 18.1913 18.1311 16.4729 20.2509 16.4729C22.3708 16.4729 24.0892 18.1913 24.0892 20.3112Z" fill="white"/>
</svg>