<svg xmlns="http://www.w3.org/2000/svg" width="32" height="40" viewBox="0 0 32 40" fill="none">
  <path d="M4.57124 40C3.52362 40 2.62712 39.6273 1.88172 38.8819C1.13632 38.1365 0.762989 37.2394 0.761719 36.1905V17.1429C0.761719 16.0952 1.13505 15.1987 1.88172 14.4533C2.62838 13.7079 3.52489 13.3346 4.57124 13.3333H6.476V9.52381C6.476 6.88889 7.40489 4.64317 9.26267 2.78667C11.1204 0.930159 13.3662 0.00126984 15.9998 0C18.6347 0 20.8811 0.928889 22.7389 2.78667C24.5966 4.64444 25.5249 6.89016 25.5236 9.52381V13.3333H27.4284C28.476 13.3333 29.3731 13.7067 30.1198 14.4533C30.8665 15.2 31.2392 16.0965 31.2379 17.1429V36.1905C31.2379 37.2381 30.8652 38.1352 30.1198 38.8819C29.3744 39.6286 28.4773 40.0013 27.4284 40H4.57124ZM4.57124 36.1905H27.4284V17.1429H4.57124V36.1905ZM15.9998 30.4762C17.0474 30.4762 17.9446 30.1035 18.6912 29.3581C19.4379 28.6127 19.8106 27.7156 19.8093 26.6667C19.8093 25.619 19.4366 24.7225 18.6912 23.9771C17.9458 23.2317 17.0487 22.8584 15.9998 22.8571C14.9522 22.8571 14.0557 23.2305 13.3103 23.9771C12.5649 24.7238 12.1916 25.6203 12.1903 26.6667C12.1903 27.7143 12.5636 28.6114 13.3103 29.3581C14.057 30.1048 14.9535 30.4775 15.9998 30.4762ZM10.2855 13.3333H21.7141V9.52381C21.7141 7.93651 21.1585 6.5873 20.0474 5.47619C18.9363 4.36508 17.5871 3.80952 15.9998 3.80952C14.4125 3.80952 13.0633 4.36508 11.9522 5.47619C10.8411 6.5873 10.2855 7.93651 10.2855 9.52381V13.3333Z" fill="white"/>
</svg>