<svg xmlns="http://www.w3.org/2000/svg" width="38" height="42" viewBox="0 0 38 42" fill="none">
  <path d="M18.8788 41.2187L18.9999 41.2858L19.1211 41.2187L37.1621 31.2197L37.2909 31.1483V31.0011V10.9989V10.8517L37.1621 10.7803L19.1211 0.781338L18.9999 0.71417L18.8788 0.781338L0.837794 10.7803L0.708984 10.8517V10.9989V31.0011V31.1483L0.837794 31.2197L18.8788 41.2187ZM15.5862 14.1179L15.586 14.118C14.582 14.6179 13.7159 15.2955 12.9888 16.1492L4.82659 11.608L18.9999 3.71847L33.1713 11.608L25.0109 16.1493C24.2827 15.2956 23.4167 14.618 22.4141 14.1181L22.4137 14.1179C21.3444 13.5869 20.2055 13.3214 18.9999 13.3214C17.7944 13.3214 16.6555 13.5869 15.5862 14.1179ZM13.1955 25.9972C14.396 27.3734 15.8964 28.2467 17.6887 28.6138V37.5467L3.33145 29.5846V13.7943L11.7345 18.5024C11.6056 18.8812 11.5073 19.2544 11.44 19.6221C11.3606 20.0559 11.3213 20.5153 11.3213 21C11.3213 22.8971 11.9474 24.5664 13.1955 25.9972ZM22.5969 24.597C21.6239 25.5699 20.4304 26.0562 18.9999 26.0562C17.5695 26.0562 16.3759 25.5699 15.403 24.597C14.43 23.624 13.9438 22.4304 13.9438 21C13.9438 19.5696 14.43 18.376 15.403 17.403C16.3759 16.4301 17.5695 15.9438 18.9999 15.9438C20.4304 15.9438 21.6239 16.4301 22.5969 17.403C23.5699 18.376 24.0561 19.5696 24.0561 21C24.0561 22.4304 23.5699 23.624 22.5969 24.597ZM34.6684 29.5825L20.3112 37.5467V28.6138C22.1034 28.2467 23.6039 27.3734 24.8044 25.9972C26.0525 24.5664 26.6786 22.8971 26.6786 21C26.6786 20.5153 26.6393 20.0559 26.5599 19.6221C26.4926 19.2544 26.3943 18.8811 26.2654 18.5024L34.6684 13.7922V29.5825Z" fill="white" stroke="white" stroke-width="0.5"/>
</svg>