<svg width="180" height="29" viewBox="0 0 180 29" fill="none" xmlns="http://www.w3.org/2000/svg">
<g id="logo-white-BounceBit-name 1" clip-path="url(#clip0_1194_959)">
<g id="Clip path group">
<mask id="mask0_1194_959" style="mask-type:luminance" maskUnits="userSpaceOnUse" x="0" y="0" width="180" height="29">
<g id="clip0_8824_22356">
<path id="Vector" d="M179.667 0.207031H0V28.207H179.667V0.207031Z" fill="white"/>
</g>
</mask>
<g mask="url(#mask0_1194_959)">
<g id="Group">
<path id="Vector_2" d="M178.892 21.4651V24.9983C177.896 25.4947 176.959 25.6991 175.759 25.6991C172.539 25.6991 170.519 23.8595 170.519 20.3555V13.2891H167.357V9.8143H170.519V5.20068H174.559V9.8143H179.038V13.2891H174.559V19.4211C174.559 21.2315 175.379 21.9615 176.842 21.9615C177.603 21.9615 178.306 21.7863 178.892 21.4651Z" fill="#0D0D0D"/>
<path id="Vector_3" d="M166.78 6.19352C166.78 7.56592 165.668 8.58791 164.057 8.58791C162.477 8.58791 161.364 7.56592 161.364 6.19352C161.364 4.76272 162.477 3.74072 164.057 3.74072C165.668 3.74072 166.78 4.76272 166.78 6.19352ZM166.136 25.4071H162.067V9.81431H166.136V25.4071Z" fill="#0D0D0D"/>
<path id="Vector_4" d="M159.77 19.2458C159.77 23.1294 156.9 25.407 152.275 25.407H144.048V4.44141H151.953C156.373 4.44141 159.096 6.427 159.096 10.0186C159.096 11.9458 158.013 13.4934 156.139 14.457C158.481 15.2746 159.77 16.939 159.77 19.2458ZM151.602 7.94538H148.089V12.8218H151.602C153.768 12.8218 154.881 11.8874 154.881 10.369C154.881 8.8798 153.768 7.94538 151.602 7.94538ZM151.924 16.355H148.089V21.903H151.924C154.324 21.903 155.583 20.8518 155.583 19.0706C155.583 17.4062 154.324 16.355 151.924 16.355Z" fill="#0D0D0D"/>
<path id="Vector_5" d="M134.121 25.6698C129.437 25.6698 126.304 22.4286 126.304 17.5522C126.304 12.9094 129.554 9.52222 134.062 9.52222C139.01 9.52222 142.289 13.5226 141.557 18.6034H130.462C130.725 21.1438 131.954 22.5454 134.033 22.5454C135.819 22.5454 137.019 21.6694 137.488 20.1218H141.528C140.649 23.655 137.927 25.6698 134.121 25.6698ZM133.975 12.5006C132.071 12.5006 130.871 13.727 130.52 16.0338H137.253C137.136 13.873 135.907 12.5006 133.975 12.5006Z" fill="#0D0D0D"/>
<path id="Vector_6" d="M117.777 25.699C113.268 25.699 110.165 22.3702 110.165 17.6106C110.165 12.9386 113.385 9.52222 117.777 9.52222C121.846 9.52222 124.861 12.267 125.359 16.4718H121.085C120.88 14.3986 119.621 13.1138 117.777 13.1138C115.669 13.1138 114.322 14.8366 114.322 17.6106C114.322 20.4138 115.639 22.1074 117.777 22.1074C119.65 22.1074 120.851 20.881 121.085 18.7494H125.359C124.89 23.0418 121.963 25.699 117.777 25.699Z" fill="#0D0D0D"/>
<path id="Vector_7" d="M98.4901 16.9098V25.407H94.4207V9.8142H98.1681V12.0334C99.3098 10.4858 100.92 9.52222 102.969 9.52222C106.102 9.52222 108.268 11.5662 108.268 15.333V25.407H104.228V16.7054C104.228 14.3986 103.321 13.1138 101.476 13.1138C99.866 13.1138 98.4901 14.3986 98.4901 16.9098Z" fill="#0D0D0D"/>
<path id="Vector_8" d="M87.3098 18.837V9.81421H91.3501V25.407H87.6321V23.363C86.7829 24.7354 85.0556 25.699 83.0649 25.699C79.9323 25.699 77.6488 23.801 77.6488 19.7422V9.81421H81.7183V18.9538C81.7183 21.1438 82.8013 22.1074 84.4408 22.1074C85.9048 22.1074 87.3098 20.9394 87.3098 18.837Z" fill="#0D0D0D"/>
<path id="Vector_9" d="M67.8499 25.699C63.3122 25.699 59.9163 22.1366 59.9163 17.6106C59.9163 13.0554 63.3122 9.52222 67.8499 9.52222C72.3877 9.52222 75.7839 13.0554 75.7839 17.6106C75.7839 22.1366 72.3877 25.699 67.8499 25.699ZM67.8499 22.1074C69.8701 22.1074 71.5974 20.5014 71.5974 17.6106C71.5974 14.7198 69.8701 13.143 67.8499 13.143C65.8298 13.143 64.1028 14.7198 64.1028 17.6106C64.1028 20.5014 65.8298 22.1074 67.8499 22.1074Z" fill="#0D0D0D"/>
<path id="Vector_10" d="M58.6437 19.2458C58.6437 23.1294 55.7747 25.407 51.1491 25.407H42.9226V4.44141H50.8271C55.2477 4.44141 57.9705 6.427 57.9705 10.0186C57.9705 11.9458 56.8872 13.4934 55.0136 14.457C57.3557 15.2746 58.6437 16.939 58.6437 19.2458ZM50.4759 7.94541H46.9626V12.8218H50.4759C52.6423 12.8218 53.7548 11.8874 53.7548 10.369C53.7548 8.8798 52.6423 7.94541 50.4759 7.94541ZM50.7979 16.355H46.9626V21.903H50.7979C53.1984 21.903 54.4575 20.8518 54.4575 19.0706C54.4575 17.4062 53.1984 16.355 50.7979 16.355Z" fill="#0D0D0D"/>
<path id="Vector_11" d="M27.2023 0.208832C27.1978 0.49404 27.1909 0.779248 27.1727 1.06446C27.0098 3.6836 26.0312 6.24366 24.4032 8.30488C23.7789 9.11848 23.0156 9.80821 22.2979 10.5366C17.9699 14.8556 13.6396 19.1712 9.31158 23.4914C8.06295 24.7209 7.34751 26.4537 7.34524 28.2024C5.17837 28.2036 3.01154 28.2047 0.845825 28.2013C0.850381 27.9536 0.856083 27.707 0.866335 27.4604C1.02925 24.3425 2.36331 21.3029 4.55066 19.0701C9.27511 14.3556 14.003 9.64345 18.7275 4.92783C19.9806 3.69723 20.6984 1.96099 20.7018 0.208831C22.8686 0.207695 25.0355 0.205423 27.2023 0.208832Z" fill="#0D0D0D"/>
<path id="Vector_12" d="M26.8478 25.1651C27.0836 26.1594 27.1975 27.1809 27.2021 28.2024C25.0352 28.2069 22.8672 28.1967 20.7004 28.2069C20.6924 26.8866 20.2994 25.5674 19.5498 24.4765C18.6805 23.1834 17.3408 22.2278 15.8461 21.7915C17.4843 20.1632 19.1146 18.528 20.7539 16.9009C23.7912 18.6871 26.048 21.738 26.8478 25.1651Z" fill="#0D0D0D"/>
<path id="Vector_13" d="M12.1993 6.61896C10.5622 8.24839 8.93081 9.88236 7.29144 11.5107C4.61078 9.92783 2.52597 7.37003 1.53483 4.4225C1.07457 3.06806 0.846719 1.6386 0.842163 0.209145C3.01015 0.208009 5.17701 0.209144 7.345 0.208008C7.3484 1.71473 7.87246 3.21349 8.82601 4.38386C9.68502 5.45198 10.8824 6.23603 12.1993 6.61896Z" fill="#0D0D0D"/>
<path id="Vector_14" d="M10.77 0.207031C10.7647 0.68003 10.8627 1.15366 11.0769 1.586C11.7263 3.045 13.5434 3.82561 15.0529 3.28476C16.3686 2.87897 17.2767 1.55725 17.2796 0.207031H10.77Z" fill="#0D0D0D"/>
<path id="Vector_15" d="M17.2803 28.2036C17.2823 27.9046 17.2404 27.6044 17.1495 27.3127C17.0344 26.9082 16.8396 26.5275 16.5787 26.198C15.6309 24.9424 13.7283 24.5822 12.3829 25.4003C11.3787 25.9565 10.7816 27.0786 10.7704 28.2036H17.2803Z" fill="#0D0D0D"/>
</g>
</g>
</g>
</g>
<defs>
<clipPath id="clip0_1194_959">
<rect width="179.667" height="28" fill="white" transform="translate(0 0.207031)"/>
</clipPath>
</defs>
</svg>
