<svg width="77" height="82" viewBox="0 0 77 82" fill="none" xmlns="http://www.w3.org/2000/svg">
<path d="M75.9397 0.00527293C75.9265 0.840525 75.9068 1.67578 75.8544 2.51104C75.3849 10.1814 72.5657 17.6787 67.8755 23.7151C66.0769 26.0978 63.8779 28.1177 61.8101 30.2508C49.3413 42.8994 36.866 55.5379 24.3972 68.1899C20.8 71.7905 18.7389 76.8652 18.7323 81.9866C12.4897 81.9899 6.24713 81.9932 0.0078125 81.9832C0.0209388 81.2578 0.0373649 80.5357 0.0669011 79.8136C0.536245 70.6824 4.37961 61.7808 10.6813 55.2418C24.2922 41.4352 37.913 27.6352 51.524 13.8252C55.1343 10.2213 57.2021 5.13659 57.2119 0.00527211C63.4545 0.00194468 69.6971 -0.00471045 75.9397 0.00527293Z" fill="white"/>
<path d="M74.922 73.093C75.6014 76.0047 75.9296 78.9964 75.9427 81.988C69.7001 82.0013 63.4542 81.9713 57.2117 82.0012C57.1887 78.1345 56.0564 74.271 53.8967 71.0765C51.3924 67.2895 47.5327 64.4909 43.2266 63.2131C47.9462 58.4444 52.643 53.6559 57.3659 48.8906C66.1161 54.1217 72.6179 63.0566 74.922 73.093Z" fill="white"/>
<path d="M32.7194 18.7749C28.0031 23.5468 23.303 28.332 18.5801 33.1007C10.8572 28.4652 4.85098 20.9745 1.99554 12.3424C0.669554 8.37586 0.0131263 4.18958 0 0.00333012C6.24587 2.6897e-06 12.4885 0.00332742 18.7344 0C18.7442 4.41253 20.254 8.80176 23.0011 12.2293C25.4758 15.3573 28.9253 17.6535 32.7194 18.7749Z" fill="white"/>
<g clip-path="url(#clip0_5135_272027)">
<path d="M28.6041 0C28.5889 1.38521 28.8712 2.77226 29.4883 4.0384C31.3591 8.31119 36.5941 10.5973 40.9429 9.01336C44.7334 7.82497 47.3496 3.95422 47.3579 0H28.6041Z" fill="white"/>
</g>
<g clip-path="url(#clip1_5135_272027)">
<path d="M47.3582 81.9863C47.3639 81.1108 47.2433 80.2317 46.9815 79.3774C46.6499 78.1927 46.0887 77.078 45.3371 76.1129C42.6064 72.4358 37.1253 71.3809 33.2491 73.7769C30.356 75.4057 28.6357 78.6917 28.6035 81.9863H47.3582Z" fill="white"/>
</g>
<defs>
<clipPath id="clip0_5135_272027">
<rect width="20" height="10" fill="white" transform="matrix(1 0 0 -1 28 10)"/>
</clipPath>
<clipPath id="clip1_5135_272027">
<rect width="20" height="10" fill="white" transform="translate(28 72)"/>
</clipPath>
</defs>
</svg>
