<svg width="10" height="14" viewBox="0 0 10 14" fill="none" xmlns="http://www.w3.org/2000/svg">
<path d="M9.76172 5.89063C9.95703 4.5625 8.94922 3.84375 7.55859 3.36719L8.01172 1.5625L6.91797 1.28906L6.48047 3.04688C6.19141 2.97656 5.89453 2.90625 5.59766 2.84375L6.03516 1.07812L4.94141 0.804688L4.49609 2.60156C4.25391 2.54687 4.01953 2.49219 3.79297 2.4375V2.42969L2.27734 2.05469L1.98828 3.22656C1.98828 3.22656 2.80078 3.41406 2.78516 3.42187C3.23047 3.53125 3.30859 3.82812 3.29297 4.0625L2.77734 6.11719C2.80859 6.125 2.84766 6.13281 2.89453 6.15625C2.85547 6.14844 2.81641 6.14063 2.77734 6.125L2.05859 9C2.00391 9.13281 1.86328 9.33594 1.55859 9.25781C1.56641 9.27344 0.761719 9.0625 0.761719 9.0625L0.214844 10.3203L1.64453 10.6797C1.91016 10.75 2.16797 10.8125 2.42578 10.8828L1.97266 12.7031L3.06641 12.9766L3.51953 11.1719C3.81641 11.25 4.11328 11.3281 4.39453 11.3984L3.94922 13.1953L5.04297 13.4688L5.49609 11.6484C7.37109 12 8.77734 11.8594 9.36328 10.1641C9.83984 8.80469 9.33984 8.01562 8.35547 7.5C9.08203 7.33594 9.62109 6.85938 9.76172 5.89063ZM7.25391 9.40625C6.91797 10.7656 4.62109 10.0312 3.87891 9.84375L4.48047 7.42969C5.22266 7.61719 7.61328 7.98438 7.25391 9.40625ZM7.59766 5.86719C7.28516 7.10938 5.37891 6.47656 4.76172 6.32031L5.30859 4.13281C5.92578 4.28906 7.91797 4.57813 7.59766 5.86719Z" fill="white"/>
</svg>
