
<svg xmlns="http://www.w3.org/2000/svg" width="12" height="13" viewBox="0 0 12 13" fill="none">
  <path fill-rule="evenodd" clip-rule="evenodd" d="M7.55054 1.59914C6.70024 0.728345 5.29976 0.728345 4.44946 1.59914L3.98308 2.07677L3.31556 2.06882C2.09857 2.05432 1.10828 3.04461 1.12278 4.26161L1.13073 4.92913L0.653099 5.39551C-0.217699 6.24581 -0.2177 7.64628 0.653098 8.49658L1.13073 8.96297L1.12278 9.63048C1.10828 10.8475 2.09857 11.8378 3.31556 11.8233L3.98308 11.8153L4.44946 12.2929C5.29976 13.1637 6.70024 13.1637 7.55054 12.2929L8.01692 11.8153L8.68444 11.8233C9.90143 11.8378 10.8917 10.8475 10.8772 9.63048L10.8693 8.96297L11.3469 8.49658C12.2177 7.64628 12.2177 6.24581 11.3469 5.39551L10.8693 4.92913L10.8772 4.26161C10.8917 3.04461 9.90143 2.05432 8.68444 2.06882L8.01692 2.07677L7.55054 1.59914ZM7.76517 6.08621C7.91161 5.93976 7.91161 5.70233 7.76517 5.55588C7.61872 5.40943 7.38128 5.40943 7.23483 5.55588L5.25 7.54072L4.39017 6.68088C4.24372 6.53443 4.00628 6.53443 3.85984 6.68088C3.71339 6.82733 3.71339 7.06476 3.85984 7.21121L4.98484 8.33621C5.05516 8.40654 5.15054 8.44604 5.25 8.44604C5.34946 8.44604 5.44484 8.40654 5.51516 8.33621L7.76517 6.08621Z" fill="#4C6FFF"/>
</svg>