<svg xmlns="http://www.w3.org/2000/svg" width="17" height="17" viewBox="0 0 17 17" fill="none">
  <path fill-rule="evenodd" clip-rule="evenodd" d="M10.7687 1.32852C9.61232 0.144236 7.70767 0.144236 6.55127 1.32852L5.91699 1.9781L5.00917 1.96728C3.35405 1.94757 2.00726 3.29436 2.02697 4.94948L2.03779 5.8573L1.38821 6.49158C0.203929 7.64798 0.203929 9.55263 1.38821 10.709L2.03779 11.3433L2.02697 12.2511C2.00726 13.9063 3.35405 15.253 5.00917 15.2333L5.91699 15.2225L6.55127 15.8721C7.70767 17.0564 9.61232 17.0564 10.7687 15.8721L11.403 15.2225L12.3108 15.2333C13.966 15.253 15.3127 13.9063 15.293 12.2511L15.2822 11.3433L15.9318 10.709C17.1161 9.55263 17.1161 7.64798 15.9318 6.49158L15.2822 5.8573L15.293 4.94948C15.3127 3.29436 13.966 1.94757 12.3108 1.96728L11.403 1.9781L10.7687 1.32852ZM11.0606 7.43093C11.2598 7.23176 11.2598 6.90885 11.0606 6.70968C10.8615 6.51052 10.5385 6.51052 10.3394 6.70968L7.64 9.40906L6.47062 8.23968C6.27146 8.04052 5.94854 8.04052 5.74938 8.23968C5.55021 8.43885 5.55021 8.76176 5.74938 8.96093L7.27938 10.4909C7.37502 10.5866 7.50474 10.6403 7.64 10.6403C7.77526 10.6403 7.90498 10.5866 8.00062 10.4909L11.0606 7.43093Z" fill="#4C6FFF"/>
</svg>