<svg width="80" height="81" viewBox="0 0 80 81" fill="none" xmlns="http://www.w3.org/2000/svg">
<rect x="0.5" y="1" width="79" height="79" rx="39.5" stroke="white" stroke-opacity="0.1"/>
<path fill-rule="evenodd" clip-rule="evenodd" d="M51.2974 28.5015C51.2935 28.746 51.2876 28.9905 51.272 29.2349C51.1324 31.4798 50.2936 33.6741 48.8982 35.4408C48.4929 35.969 48.0192 36.4363 47.546 36.9032L47.5458 36.9034C47.3943 37.0529 47.2428 37.2023 47.0937 37.3537C45.4093 39.0345 43.7245 40.7148 42.0397 42.3951L42.0392 42.3956L42.0387 42.3961L42.0382 42.3966L42.0354 42.3994C40.0111 44.4184 37.9867 46.4374 35.9628 48.4575C34.8926 49.5113 34.2794 50.9966 34.2774 52.4955C32.4202 52.4965 30.5629 52.4974 28.7066 52.4945C28.7105 52.2822 28.7154 52.0709 28.7242 51.8595C28.8639 49.187 30.0073 46.5817 31.8821 44.668C33.7228 42.8311 35.5642 40.9947 37.4055 39.1583L37.4065 39.1573L37.4165 39.1473L37.4265 39.1374C39.629 36.9407 41.8316 34.7439 44.0334 32.5463C45.1075 31.4915 45.7227 30.0034 45.7256 28.5015L46.6543 28.501C48.202 28.5001 49.7497 28.4991 51.2974 28.5015ZM50.9943 49.8929C51.1964 50.7451 51.294 51.6207 51.298 52.4963C50.5194 52.4979 49.7406 52.4973 48.9618 52.4967H48.9618H48.9617H48.9617C47.8828 52.4959 46.8038 52.4951 45.7252 52.5002C45.7184 51.3684 45.3815 50.2377 44.739 49.3027C43.9939 48.1944 42.8456 47.3753 41.5645 47.0013C42.2151 46.3546 42.8642 45.7067 43.5134 45.0588L43.5134 45.0587L43.5141 45.0581L43.5155 45.0567C44.2666 44.307 45.0177 43.5572 45.7711 42.8095C48.3744 44.3405 50.3088 46.9555 50.9943 49.8929ZM36.6373 35.7909L36.6378 35.7904L36.6383 35.7899C37.2378 35.1916 37.8372 34.5934 38.4376 33.9958C37.3088 33.6676 36.2825 32.9956 35.5463 32.0801C34.729 31.0769 34.2798 29.7923 34.2769 28.5009C33.3477 28.5014 32.4189 28.5014 31.49 28.5014C30.5611 28.5014 29.6322 28.5014 28.7031 28.5019C28.707 29.7271 28.9023 30.9523 29.2968 32.1132C30.1464 34.6396 31.9333 36.832 34.2309 38.1886C35.0346 37.3904 35.836 36.5906 36.6373 35.7909ZM37.2088 28.5C37.2042 28.9054 37.2882 29.3114 37.4718 29.6819C38.0284 30.9325 39.5859 31.6016 40.8797 31.138C42.0075 30.7902 42.7858 29.6573 42.7883 28.5H37.2088ZM42.681 51.7328C42.7589 51.9828 42.7948 52.2401 42.793 52.4964H37.2133C37.2229 51.5321 37.7347 50.5704 38.5954 50.0937C39.7486 49.3924 41.3793 49.7012 42.1917 50.7774C42.4154 51.0598 42.5823 51.3861 42.681 51.7328Z" fill="#BCBCBC"/>
</svg>
