<svg width="40" height="41" viewBox="0 0 40 41" fill="none" xmlns="http://www.w3.org/2000/svg">
<g clip-path="url(#clip0_6523_138358)">
<rect y="0.794922" width="40" height="40" rx="10" fill="#717171"/>
<g clip-path="url(#clip1_6523_138358)">
<rect y="0.794922" width="40" height="40" rx="20" fill="#717171"/>
<path d="M25.822 25.9406C25.6013 25.6798 25.491 25.3841 25.491 25.0535C25.491 24.7228 25.6013 24.4468 25.822 24.2253L28.0488 21.9985H19.4123C19.0712 21.9985 18.7851 21.8829 18.554 21.6518C18.3229 21.4207 18.2077 21.135 18.2085 20.7948C18.2085 20.4537 18.3241 20.1676 18.5552 19.9365C18.7863 19.7054 19.072 19.5903 19.4123 19.5911H28.0488L25.822 17.3642C25.5812 17.1235 25.4609 16.8374 25.4609 16.506C25.4609 16.1745 25.5812 15.8889 25.822 15.6489C26.0427 15.4082 26.3187 15.2878 26.6501 15.2878C26.9815 15.2878 27.2572 15.3982 27.4771 15.6188L31.8104 19.9522C31.9308 20.0725 32.0162 20.2029 32.0668 20.3434C32.1173 20.4838 32.1422 20.6343 32.1414 20.7948C32.1414 20.9553 32.1165 21.1057 32.0668 21.2461C32.017 21.3866 31.9316 21.517 31.8104 21.6374L27.4771 25.9707C27.2163 26.2315 26.9302 26.347 26.6188 26.3173C26.3075 26.2877 26.0418 26.1621 25.822 25.9406ZM13.3937 31.6281C12.7317 31.6281 12.1648 31.3922 11.6929 30.9203C11.2211 30.4485 10.9855 29.8819 10.9863 29.2207V12.3688C10.9863 11.7068 11.2223 11.1399 11.6941 10.668C12.166 10.1961 12.7325 9.96063 13.3937 9.96143H20.616C20.957 9.96143 21.2431 10.077 21.4742 10.3081C21.7053 10.5392 21.8205 10.8249 21.8197 11.1651C21.8197 11.5062 21.7041 11.7923 21.473 12.0234C21.2419 12.2545 20.9562 12.3696 20.616 12.3688H13.3937V29.2207H20.616C20.957 29.2207 21.2431 29.3362 21.4742 29.5673C21.7053 29.7985 21.8205 30.0841 21.8197 30.4244C21.8197 30.7654 21.7041 31.0515 21.473 31.2826C21.2419 31.5137 20.9562 31.6289 20.616 31.6281H13.3937Z" fill="#282828"/>
</g>
</g>
<defs>
<clipPath id="clip0_6523_138358">
<rect y="0.794922" width="40" height="40" rx="10" fill="white"/>
</clipPath>
<clipPath id="clip1_6523_138358">
<rect y="0.794922" width="40" height="40" rx="20" fill="white"/>
</clipPath>
</defs>
</svg>
