<svg width="152" height="33" viewBox="0 0 152 33" fill="none" xmlns="http://www.w3.org/2000/svg">
<g id="Vector">
<path d="M42.4848 14.607V9.26303H47.1888C47.6368 9.26303 48.0635 9.3057 48.4688 9.39103C48.8955 9.45503 49.2688 9.58303 49.5888 9.77503C49.9088 9.96703 50.1648 10.2337 50.3568 10.575C50.5488 10.9164 50.6448 11.3537 50.6448 11.887C50.6448 12.847 50.3568 13.5404 49.7808 13.967C49.2048 14.3937 48.4688 14.607 47.5728 14.607H42.4848ZM37.4608 5.35903V28.207H48.5328C49.5568 28.207 50.5488 28.079 51.5088 27.823C52.4901 27.567 53.3541 27.1724 54.1008 26.639C54.8688 26.1057 55.4768 25.423 55.9248 24.591C56.3728 23.7377 56.5968 22.735 56.5968 21.583C56.5968 20.1537 56.2448 18.9377 55.5408 17.935C54.8581 16.911 53.8128 16.1964 52.4048 15.791C53.4288 15.3004 54.1968 14.671 54.7088 13.903C55.2421 13.135 55.5088 12.175 55.5088 11.023C55.5088 9.95636 55.3275 9.06036 54.9648 8.33503C54.6235 7.6097 54.1328 7.0337 53.4928 6.60703C52.8528 6.15903 52.0848 5.83903 51.1888 5.64703C50.2928 5.45503 49.3008 5.35903 48.2128 5.35903H37.4608ZM42.4848 24.303V18.031H47.9568C49.0448 18.031 49.9195 18.287 50.5808 18.799C51.2421 19.2897 51.5728 20.1217 51.5728 21.295C51.5728 21.8924 51.4661 22.383 51.2528 22.767C51.0608 23.151 50.7941 23.4604 50.4528 23.695C50.1115 23.9084 49.7168 24.0684 49.2688 24.175C48.8208 24.2604 48.3515 24.303 47.8608 24.303H42.4848Z" fill="#0D0D0D"/>
<path d="M63.544 19.951C63.544 19.2897 63.6081 18.639 63.736 17.999C63.8641 17.359 64.0774 16.7937 64.3761 16.303C64.6961 15.8124 65.1121 15.4177 65.6241 15.119C66.1361 14.799 66.776 14.639 67.5441 14.639C68.312 14.639 68.952 14.799 69.4641 15.119C69.9974 15.4177 70.4134 15.8124 70.7121 16.303C71.0321 16.7937 71.2561 17.359 71.384 17.999C71.5121 18.639 71.576 19.2897 71.576 19.951C71.576 20.6124 71.5121 21.263 71.384 21.903C71.2561 22.5217 71.0321 23.087 70.7121 23.599C70.4134 24.0897 69.9974 24.4844 69.4641 24.783C68.952 25.0817 68.312 25.231 67.5441 25.231C66.776 25.231 66.1361 25.0817 65.6241 24.783C65.1121 24.4844 64.6961 24.0897 64.3761 23.599C64.0774 23.087 63.8641 22.5217 63.736 21.903C63.6081 21.263 63.544 20.6124 63.544 19.951ZM59.0001 19.951C59.0001 21.2737 59.2027 22.4684 59.608 23.535C60.0134 24.6017 60.5894 25.519 61.3361 26.287C62.0827 27.0337 62.9787 27.6097 64.024 28.015C65.0694 28.4204 66.2427 28.623 67.5441 28.623C68.8454 28.623 70.0187 28.4204 71.0641 28.015C72.1307 27.6097 73.0374 27.0337 73.784 26.287C74.5307 25.519 75.1067 24.6017 75.5121 23.535C75.9174 22.4684 76.1201 21.2737 76.1201 19.951C76.1201 18.6284 75.9174 17.4337 75.5121 16.367C75.1067 15.279 74.5307 14.3617 73.784 13.615C73.0374 12.847 72.1307 12.2604 71.0641 11.855C70.0187 11.4284 68.8454 11.215 67.5441 11.215C66.2427 11.215 65.0694 11.4284 64.024 11.855C62.9787 12.2604 62.0827 12.847 61.3361 13.615C60.5894 14.3617 60.0134 15.279 59.608 16.367C59.2027 17.4337 59.0001 18.6284 59.0001 19.951Z" fill="#0D0D0D"/>
<path d="M94.5946 28.207V11.663H90.0506V20.335C90.0506 22.0204 89.7732 23.2364 89.2186 23.983C88.6639 24.7084 87.7679 25.071 86.5306 25.071C85.4426 25.071 84.6852 24.7404 84.2586 24.079C83.8319 23.3964 83.6185 22.3724 83.6185 21.007V11.663H79.0746V21.839C79.0746 22.863 79.1599 23.8017 79.3306 24.655C79.5226 25.487 79.8426 26.2017 80.2906 26.799C80.7386 27.375 81.3465 27.823 82.1145 28.143C82.9039 28.463 83.9066 28.623 85.1226 28.623C86.0826 28.623 87.0212 28.4097 87.9386 27.983C88.8559 27.5564 89.6026 26.863 90.1786 25.903H90.2746V28.207H94.5946Z" fill="#0D0D0D"/>
<path d="M98.0433 11.663V28.207H102.587V19.535C102.587 17.8497 102.865 16.6444 103.419 15.919C103.974 15.1724 104.87 14.799 106.107 14.799C107.195 14.799 107.953 15.1404 108.379 15.823C108.806 16.4844 109.019 17.4977 109.019 18.863V28.207H113.563V18.031C113.563 17.007 113.467 16.079 113.275 15.247C113.105 14.3937 112.795 13.679 112.347 13.103C111.899 12.5057 111.281 12.047 110.491 11.727C109.723 11.3857 108.731 11.215 107.515 11.215C106.555 11.215 105.617 11.439 104.699 11.887C103.782 12.3137 103.035 13.007 102.459 13.967H102.363V11.663H98.0433Z" fill="#0D0D0D"/>
<path d="M128.276 17.487H132.724C132.66 16.4204 132.404 15.503 131.956 14.735C131.508 13.9457 130.921 13.295 130.196 12.783C129.492 12.2497 128.681 11.855 127.764 11.599C126.868 11.343 125.929 11.215 124.948 11.215C123.604 11.215 122.409 11.439 121.364 11.887C120.319 12.335 119.433 12.9644 118.708 13.775C117.983 14.5644 117.428 15.5137 117.044 16.623C116.681 17.711 116.5 18.895 116.5 20.175C116.5 21.4124 116.703 22.5537 117.108 23.599C117.513 24.623 118.079 25.5084 118.804 26.255C119.529 27.0017 120.404 27.5884 121.428 28.015C122.473 28.4204 123.615 28.623 124.852 28.623C127.049 28.623 128.852 28.047 130.26 26.895C131.668 25.743 132.521 24.0684 132.82 21.871H128.436C128.287 22.895 127.913 23.7164 127.316 24.335C126.74 24.9324 125.908 25.231 124.82 25.231C124.116 25.231 123.519 25.071 123.028 24.751C122.537 24.431 122.143 24.0257 121.844 23.535C121.567 23.023 121.364 22.4577 121.236 21.839C121.108 21.2204 121.044 20.6124 121.044 20.015C121.044 19.3964 121.108 18.7777 121.236 18.159C121.364 17.519 121.577 16.943 121.876 16.431C122.196 15.8977 122.601 15.471 123.092 15.151C123.583 14.8097 124.191 14.639 124.916 14.639C126.857 14.639 127.977 15.5884 128.276 17.487Z" fill="#0D0D0D"/>
<path d="M146.523 18.159H139.131C139.152 17.839 139.216 17.4764 139.323 17.071C139.451 16.6657 139.654 16.2817 139.931 15.919C140.23 15.5564 140.614 15.2577 141.083 15.023C141.574 14.767 142.182 14.639 142.907 14.639C144.016 14.639 144.838 14.9377 145.371 15.535C145.926 16.1324 146.31 17.007 146.523 18.159ZM139.131 21.039H151.067C151.152 19.759 151.046 18.5324 150.747 17.359C150.448 16.1857 149.958 15.1404 149.275 14.223C148.614 13.3057 147.76 12.5804 146.715 12.047C145.67 11.4924 144.443 11.215 143.035 11.215C141.776 11.215 140.624 11.439 139.579 11.887C138.555 12.335 137.67 12.9537 136.923 13.743C136.176 14.511 135.6 15.4284 135.195 16.495C134.79 17.5617 134.587 18.7137 134.587 19.951C134.587 21.231 134.779 22.4044 135.163 23.471C135.568 24.5377 136.134 25.455 136.859 26.223C137.584 26.991 138.47 27.5884 139.515 28.015C140.56 28.4204 141.734 28.623 143.035 28.623C144.912 28.623 146.512 28.1964 147.835 27.343C149.158 26.4897 150.139 25.071 150.779 23.087H146.779C146.63 23.599 146.224 24.0897 145.563 24.559C144.902 25.007 144.112 25.231 143.195 25.231C141.915 25.231 140.934 24.9004 140.251 24.239C139.568 23.5777 139.195 22.511 139.131 21.039Z" fill="#0D0D0D"/>
<path d="M2.00054 0.207031C0.895974 0.207031 0.000543465 1.10246 0.000543465 2.20703C0.000543465 3.3116 0.895974 4.20703 2.00054 4.20703H8.66721C9.77178 4.20703 10.6672 3.3116 10.6672 2.20703C10.6672 1.10246 9.77178 0.207031 8.66721 0.207031H2.00054Z" fill="#0D0D0D"/>
<path d="M20.0253 6.75038C21.0618 6.36853 21.5924 5.21875 21.2106 4.18229C20.8287 3.14582 19.6789 2.61516 18.6425 2.99701L1.30913 9.38298C0.272668 9.76483 -0.257998 10.9146 0.123857 11.9511C0.505713 12.9875 1.65549 13.5182 2.69195 13.1363L20.0253 6.75038Z" fill="#0D0D0D"/>
<path d="M20.0253 23.0311C21.0618 22.6492 21.5924 21.4995 21.2106 20.463C20.8287 19.4265 19.6789 18.8959 18.6425 19.2777L1.30913 25.6637C0.272668 26.0455 -0.257998 27.1953 0.123857 28.2318C0.505713 29.2682 1.65549 29.7989 2.69195 29.4171L20.0253 23.0311Z" fill="#0D0D0D"/>
<path d="M12.6672 28.207C11.5626 28.207 10.6672 29.1025 10.6672 30.207C10.6672 31.3116 11.5626 32.207 12.6672 32.207H19.3339C20.4384 32.207 21.3339 31.3116 21.3339 30.207C21.3339 29.1025 20.4384 28.207 19.3339 28.207H12.6672Z" fill="#0D0D0D"/>
<path d="M20.0518 14.7409C21.0828 14.3444 21.5971 13.1872 21.2006 12.1563C20.8041 11.1253 19.6469 10.611 18.6159 11.0075L1.28258 17.6742C0.251638 18.0707 -0.262667 19.2279 0.13385 20.2589C0.530367 21.2898 1.68755 21.8041 2.7185 21.4076L20.0518 14.7409Z" fill="#0D0D0D"/>
</g>
</svg>
