<svg width="36" height="37" viewBox="0 0 36 37" fill="none" xmlns="http://www.w3.org/2000/svg">
<g id="Frame 1000005264">
<rect y="0.207031" width="36" height="36" rx="18" fill="white"/>
<path id="Vector" d="M17.9996 10.207C14.0764 10.2065 10.732 13.1249 10.1039 17.0969C9.47576 21.0691 11.7493 24.922 15.4716 26.1934C15.8725 26.2675 16.016 26.015 16.016 25.7979C16.016 25.603 16.0096 25.0865 16.0072 24.3998C13.7822 24.8932 13.3123 23.2995 13.3123 23.2995C13.1659 22.8036 12.851 22.3778 12.4248 22.0996C11.7032 21.5905 12.4801 21.602 12.4801 21.602C12.9938 21.6743 13.4459 21.9865 13.7044 22.4475C13.9233 22.8556 14.2919 23.1572 14.7285 23.2851C15.1652 23.4132 15.6335 23.357 16.0296 23.1292C16.0668 22.7131 16.2473 22.3242 16.5387 22.0322C14.7636 21.8257 12.897 21.1218 12.897 17.9778C12.8872 17.1646 13.1816 16.3785 13.7197 15.7812C13.4762 15.0734 13.5049 14.297 13.7998 13.6101C13.7998 13.6101 14.4709 13.3889 15.9983 14.4497C17.3084 14.0813 18.6909 14.0813 20.0009 14.4497C21.5291 13.388 22.1994 13.6101 22.1994 13.6101C22.4957 14.2967 22.5244 15.0736 22.2795 15.7812C22.8196 16.3784 23.1138 17.1666 23.1006 17.9811C23.1006 21.1333 21.2324 21.8257 19.4508 22.0289C19.8351 22.4319 20.0323 22.9847 19.992 23.547C19.992 24.6441 19.9824 25.529 19.9824 25.7979C19.9824 26.0174 20.1251 26.2724 20.5332 26.1918C24.2539 24.9182 26.5251 21.065 25.8956 17.094C25.2662 13.1229 21.922 10.2061 17.9996 10.207Z" fill="#0D0D0D"/>
</g>
</svg>
