<svg xmlns="http://www.w3.org/2000/svg" width="60" height="61" viewBox="0 0 60 61" fill="none">
  <g style="mix-blend-mode:difference">
    <path fill-rule="evenodd" clip-rule="evenodd" d="M44.1209 15.5952C44.116 15.9008 44.1087 16.2063 44.0892 16.5119C43.9146 19.3181 42.8661 22.061 41.1219 24.2694C40.6153 24.9297 40.0232 25.5138 39.4316 26.0974L39.4315 26.0975C39.2421 26.2844 39.0527 26.4712 38.8662 26.6605C36.7611 28.7612 34.6555 30.8612 32.5499 32.9612L32.5493 32.9618L32.5487 32.9624L32.548 32.963L32.5387 32.9723C30.0098 35.4945 27.4808 38.0167 24.9525 40.5404C23.6147 41.8577 22.8482 43.7143 22.8458 45.5879C20.5242 45.5891 18.2026 45.5903 15.8822 45.5867C15.8871 45.3213 15.8932 45.0571 15.9042 44.7929C16.0787 41.4523 17.5081 38.1957 19.8516 35.8034C22.1524 33.5075 24.4539 31.2121 26.7554 28.9167L26.7598 28.9123C29.5205 26.159 32.2812 23.4057 35.0408 20.6512C36.3835 19.3327 37.1525 17.4725 37.1561 15.5952L38.3169 15.5945C40.2516 15.5933 42.1863 15.5921 44.1209 15.5952ZM43.7425 42.3345C43.9951 43.3997 44.1172 44.4942 44.1221 45.5887C43.1488 45.5907 42.1753 45.59 41.2017 45.5892H41.2017H41.2017H41.2016C39.853 45.5882 38.5043 45.5872 37.1561 45.5935C37.1475 44.1789 36.7264 42.7654 35.9233 41.5967C34.9919 40.2112 33.5565 39.1874 31.9551 38.7199C32.7692 37.9107 33.5815 37.1 34.3937 36.2892L34.3938 36.2892L34.3938 36.2892L34.3938 36.2892C35.3327 35.352 36.2717 34.4148 37.2134 33.4801C40.4676 35.3938 42.8856 38.6627 43.7425 42.3345ZM25.7957 24.707L25.7967 24.706L25.7977 24.705C26.5468 23.9574 27.2959 23.2098 28.0461 22.4631C26.6351 22.0528 25.3523 21.2128 24.4319 20.0684C23.4103 18.8144 22.8488 17.2086 22.8452 15.5943C21.6838 15.5949 20.5226 15.5949 19.3615 15.5949C18.2004 15.5949 17.0393 15.5949 15.8779 15.5955C15.8828 17.1271 16.1269 18.6586 16.6201 20.1098C17.682 23.2678 19.9157 26.0083 22.7878 27.7042C23.7919 26.7068 24.7933 25.7074 25.7947 24.708L25.7951 24.7077L25.7957 24.707ZM26.5106 15.5933C26.505 16.1 26.61 16.6075 26.8395 17.0707C27.5352 18.6339 29.482 19.4703 31.0994 18.8908C32.509 18.456 33.482 17.0399 33.4851 15.5933H26.5106ZM33.3496 44.6348C33.447 44.9473 33.4918 45.2689 33.4897 45.5892H26.5149C26.5269 44.3839 27.1667 43.1817 28.2426 42.5858C29.6841 41.7093 31.7225 42.0952 32.738 43.4405C33.0176 43.7935 33.2263 44.2013 33.3496 44.6348Z" fill="white"/>
  </g>
</svg>