<svg width="64" height="65" viewBox="0 0 64 65" fill="none" xmlns="http://www.w3.org/2000/svg">
<circle cx="32" cy="32.5" r="32" fill="white" fill-opacity="0.2"/>
<g clip-path="url(#clip0_3629_201499)">
<path d="M44.61 38.5196C43.0031 36.7786 41.0532 35.3892 38.8829 34.4389C36.7127 33.4886 34.3692 32.998 32 32.998C29.6308 32.998 27.2873 33.4886 25.1171 34.4389C22.9468 35.3892 20.9969 36.7786 19.39 38.5196C19.1419 38.7939 19.0031 39.1498 19 39.5196V45.5196C19.0053 45.9139 19.1656 46.2904 19.4463 46.5674C19.7271 46.8443 20.1056 46.9996 20.5 46.9996H43.5C43.8978 46.9996 44.2794 46.8416 44.5607 46.5603C44.842 46.279 45 45.8974 45 45.4996V39.4996C44.992 39.1367 44.8536 38.7888 44.61 38.5196Z" fill="white" fill-opacity="0.2"/>
<path d="M32 31C35.866 31 39 27.866 39 24C39 20.134 35.866 17 32 17C28.134 17 25 20.134 25 24C25 27.866 28.134 31 32 31Z" fill="white" fill-opacity="0.2"/>
</g>
<defs>
<clipPath id="clip0_3629_201499">
<rect width="36" height="36" fill="white" transform="translate(14 14)"/>
</clipPath>
</defs>
</svg>
