<svg width="36" height="37" viewBox="0 0 36 37" fill="none" xmlns="http://www.w3.org/2000/svg">
<g id="Frame 1000003001">
<rect y="0.207031" width="36" height="36" rx="18" fill="white"/>
<path id="telegram-1" fill-rule="evenodd" clip-rule="evenodd" d="M22.256 25.0525C22.4706 25.2121 22.7473 25.252 22.994 25.154C23.2406 25.0553 23.422 24.8341 23.4766 24.566C24.0559 21.7071 25.4612 14.4712 25.9886 11.8707C26.0286 11.6747 25.9619 11.471 25.8152 11.3401C25.6686 11.2092 25.4652 11.1714 25.2839 11.2421C22.4886 12.3285 13.8802 15.72 10.3616 17.0871C10.1383 17.1739 9.99293 17.3993 10.0003 17.6464C10.0083 17.8942 10.1669 18.1091 10.3956 18.1812C11.9736 18.6768 14.0448 19.3663 14.0448 19.3663C14.0448 19.3663 15.0128 22.4358 15.5175 23.9969C15.5808 24.1929 15.7268 24.3469 15.9195 24.4001C16.1115 24.4526 16.3168 24.3973 16.4601 24.2552C17.2708 23.4516 18.5241 22.209 18.5241 22.209C18.5241 22.209 20.9053 24.0424 22.256 25.0525ZM14.9141 18.9772L16.0334 22.8538L16.282 20.3989C16.282 20.3989 20.6066 16.3032 23.0719 13.9687C23.1439 13.9001 23.1539 13.7853 23.0939 13.7048C23.0345 13.6243 22.9252 13.6054 22.8432 13.66C19.9859 15.5759 14.9141 18.9772 14.9141 18.9772Z" fill="#0D0D0D"/>
</g>
</svg>
