<svg width="36" height="37" viewBox="0 0 36 37" fill="none" xmlns="http://www.w3.org/2000/svg">
<g id="Frame 1000003000">
<rect y="0.207031" width="36" height="36" rx="18" fill="white"/>
<path id="Shape" fill-rule="evenodd" clip-rule="evenodd" d="M24.8796 13.4204C25.6424 12.9836 26.2277 12.291 26.5024 11.4659C25.7882 11.8713 24.9989 12.1646 24.1569 12.3233C23.4849 11.6357 22.5246 11.207 21.4617 11.207C19.4226 11.207 17.7702 12.7894 17.7702 14.7409C17.7702 15.018 17.8008 15.2879 17.8642 15.5458C14.7961 15.3981 12.0755 13.9927 10.253 11.8531C9.93502 12.3769 9.7533 12.9836 9.7533 13.6307C9.7533 14.8562 10.4052 15.9381 11.3962 16.5731C10.7908 16.5549 10.2213 16.3941 9.72266 16.1312V16.1747C9.72266 17.8875 10.9947 19.3162 12.6862 19.6398C12.3756 19.7227 12.0502 19.7642 11.7121 19.7642C11.4744 19.7642 11.2419 19.7429 11.018 19.7015C11.4871 21.1049 12.851 22.1282 14.4675 22.1555C13.2029 23.1039 11.6107 23.6681 9.88114 23.6681C9.5832 23.6681 9.28843 23.6529 9 23.6196C10.6344 24.6216 12.5753 25.207 14.6609 25.207C21.4543 25.207 25.1669 19.8218 25.1669 15.1514C25.1669 14.9977 25.1648 14.845 25.1574 14.6944C25.879 14.1959 26.5066 13.5731 27 12.8643C26.3376 13.1454 25.6255 13.3354 24.8796 13.4204Z" fill="#0D0D0D"/>
</g>
</svg>
