<svg width="24" height="24" viewBox="0 0 24 24" fill="none" xmlns="http://www.w3.org/2000/svg">
<path d="M18.6904 8.91527L17.5022 7.11872C16.0888 5.52857 14.084 4.61719 11.9998 4.61719C7.92711 4.61719 4.61523 7.92998 4.61523 12.0018C4.61523 16.0736 7.92711 19.3864 11.9998 19.3864C16.0726 19.3864 19.3844 16.0736 19.3844 12.0018L18.6904 8.91527Z" fill="url(#paint0_linear_12240_409803)"/>
<path d="M23.9027 11.5871L22.6767 9.1361L22.5216 6.40921C22.5054 6.11622 22.3512 5.84939 22.106 5.68896L19.8119 4.18804L18.311 1.89389C18.1505 1.64872 17.8837 1.49457 17.5907 1.47832L14.8638 1.32324L12.4129 0.0973383C12.1533 -0.0324461 11.8468 -0.0324461 11.5872 0.0973383L9.13616 1.32331L6.40927 1.47838C6.11628 1.49463 5.84945 1.64878 5.68902 1.89395L4.1881 4.1881L1.89395 5.68902C1.64878 5.84945 1.49463 6.11628 1.47838 6.40927L1.32331 9.13616L0.0973383 11.5872C-0.0324461 11.8468 -0.0324461 12.1533 0.0973383 12.4129L1.32331 14.8639L1.47838 17.5908C1.49463 17.8838 1.64878 18.1506 1.89395 18.311L4.1881 19.812L5.68902 22.1061C5.84859 22.3504 6.11542 22.5046 6.40656 22.5217L9.13794 22.6776L11.5872 23.9027C11.8468 24.0324 12.1533 24.0324 12.4129 23.9027L14.8621 22.6776L17.5935 22.5217C17.8846 22.5046 18.1515 22.3504 18.311 22.1061L19.812 19.812L22.1061 18.311C22.3513 18.1506 22.5054 17.8838 22.5217 17.5908L22.6768 14.8639L23.9027 12.4129C24.0324 12.1532 24.0324 11.8467 23.9027 11.5871ZM12 18.4615C8.43751 18.4615 5.5385 15.5625 5.5385 12C5.5385 8.43745 8.43751 5.53844 12 5.53844C13.9192 5.53844 15.6267 6.39653 16.8112 7.72964L12 12.5408L10.8065 11.3473C10.4459 10.9867 9.86176 10.9867 9.5012 11.3473C9.14065 11.7078 9.14065 12.292 9.5012 12.6526L11.3474 14.4987C11.5277 14.679 11.7638 14.7692 12 14.7692C12.2361 14.7692 12.4723 14.679 12.6526 14.4987L17.8512 9.30022C18.2333 10.1245 18.4616 11.0334 18.4616 12C18.4616 15.5625 15.5625 18.4615 12 18.4615Z" fill="#CFB023"/>
<defs>
<linearGradient id="paint0_linear_12240_409803" x1="11.9998" y1="31.5095" x2="11.9998" y2="4.61719" gradientUnits="userSpaceOnUse">
<stop stop-color="#ADDCFF"/>
<stop offset="0.5028" stop-color="#EAF6FF"/>
<stop offset="1" stop-color="#EAF6FF"/>
</linearGradient>
</defs>
</svg>
