<svg width="17" height="17" viewBox="0 0 17 17" fill="none" xmlns="http://www.w3.org/2000/svg">
<path d="M13.3248 6.70401L12.5327 5.50631C11.5904 4.44621 10.2539 3.83862 8.86448 3.83862C6.14932 3.83862 3.94141 6.04715 3.94141 8.76169C3.94141 11.4762 6.14932 13.6848 8.86448 13.6848C11.5796 13.6848 13.7875 11.4762 13.7875 8.76169L13.3248 6.70401Z" fill="url(#paint0_linear_12774_27220)"/>
<path d="M16.8003 8.48646L15.983 6.85245L15.8796 5.03452C15.8688 4.8392 15.766 4.66131 15.6026 4.55436L14.0732 3.55375L13.0726 2.02431C12.9656 1.86087 12.7877 1.7581 12.5924 1.74727L10.7745 1.64388L9.1405 0.826611C8.96741 0.740088 8.7631 0.740088 8.59001 0.826611L6.95601 1.64392L5.13808 1.74731C4.94276 1.75814 4.76487 1.86091 4.65792 2.02435L3.6573 3.55379L2.12787 4.5544C1.96442 4.66135 1.86165 4.83924 1.85082 5.03456L1.74744 6.85249L0.930127 8.4865C0.843604 8.65959 0.843604 8.86389 0.930127 9.03698L1.74744 10.671L1.85082 12.4889C1.86165 12.6842 1.96442 12.8621 2.12787 12.9691L3.6573 13.9697L4.65792 15.4991C4.7643 15.662 4.94218 15.7648 5.13627 15.7762L6.9572 15.8801L8.59001 16.6968C8.7631 16.7833 8.96741 16.7833 9.1405 16.6968L10.7733 15.8801L12.5942 15.7762C12.7883 15.7648 12.9662 15.662 13.0726 15.4991L14.0732 13.9697L15.6026 12.9691C15.7661 12.8621 15.8689 12.6842 15.8797 12.4889L15.9831 10.671L16.8004 9.03698C16.8869 8.86385 16.8869 8.65954 16.8003 8.48646ZM8.86525 13.0694C6.49024 13.0694 4.55757 11.1367 4.55757 8.7617C4.55757 6.38669 6.49024 4.45401 8.86525 4.45401C10.1447 4.45401 11.2831 5.02607 12.0727 5.91481L8.86525 9.12227L8.06956 8.32658C7.82919 8.08621 7.43974 8.08621 7.19937 8.32658C6.959 8.56695 6.959 8.95641 7.19937 9.19677L8.43014 10.4275C8.55034 10.5477 8.7078 10.6078 8.86521 10.6078C9.02263 10.6078 9.18013 10.5477 9.30029 10.4275L12.7661 6.96186C13.0207 7.5114 13.1729 8.11731 13.1729 8.7617C13.1729 11.1367 11.2403 13.0694 8.86525 13.0694Z" fill="#CFB023"/>
<defs>
<linearGradient id="paint0_linear_12774_27220" x1="8.86448" y1="21.7668" x2="8.86448" y2="3.83862" gradientUnits="userSpaceOnUse">
<stop stop-color="#ADDCFF"/>
<stop offset="0.5028" stop-color="#EAF6FF"/>
<stop offset="1" stop-color="#EAF6FF"/>
</linearGradient>
</defs>
</svg>
