<svg width="142" height="22" viewBox="0 0 142 22" fill="none" xmlns="http://www.w3.org/2000/svg">
<g id="logo-white-BounceBit-name 1" clip-path="url(#clip0_1194_6984)">
<g id="Clip path group">
<mask id="mask0_1194_6984" style="mask-type:luminance" maskUnits="userSpaceOnUse" x="0" y="0" width="142" height="22">
<g id="clip0_8824_22356">
<path id="Vector" d="M141.167 0H0V22H141.167V0Z" fill="white"/>
</g>
</mask>
<g mask="url(#mask0_1194_6984)">
<g id="Group">
<path id="Vector_2" d="M140.558 16.7028V19.4788C139.776 19.8689 139.04 20.0295 138.096 20.0295C135.566 20.0295 133.979 18.5841 133.979 15.8309V10.2788H131.495V7.54857H133.979V3.92358H137.153V7.54857H140.673V10.2788H137.153V15.0968C137.153 16.5192 137.798 17.0928 138.948 17.0928C139.546 17.0928 140.098 16.9551 140.558 16.7028Z" fill="white"/>
<path id="Vector_3" d="M131.042 4.70357C131.042 5.78188 130.168 6.58488 128.902 6.58488C127.66 6.58488 126.786 5.78188 126.786 4.70357C126.786 3.57937 127.66 2.77637 128.902 2.77637C130.168 2.77637 131.042 3.57937 131.042 4.70357ZM130.536 19.8H127.338V7.54847H130.536V19.8Z" fill="white"/>
<path id="Vector_4" d="M125.533 14.959C125.533 18.0104 123.279 19.8 119.645 19.8H113.181V3.32703H119.392C122.865 3.32703 125.004 4.88713 125.004 7.7091C125.004 9.22333 124.153 10.4393 122.681 11.1964C124.521 11.8388 125.533 13.1465 125.533 14.959ZM119.116 6.08015H116.355V9.91163H119.116C120.818 9.91163 121.692 9.17744 121.692 7.98443C121.692 6.81433 120.818 6.08015 119.116 6.08015ZM119.369 12.6877H116.355V17.0468H119.369C121.255 17.0468 122.244 16.2209 122.244 14.8214C122.244 13.5136 121.255 12.6877 119.369 12.6877Z" fill="white"/>
<path id="Vector_5" d="M105.381 20.0065C101.701 20.0065 99.2391 17.4598 99.2391 13.6284C99.2391 9.98045 101.792 7.31909 105.335 7.31909C109.222 7.31909 111.799 10.4623 111.224 14.4543H102.506C102.712 16.4503 103.679 17.5516 105.312 17.5516C106.715 17.5516 107.658 16.8633 108.026 15.6473H111.201C110.51 18.4234 108.371 20.0065 105.381 20.0065ZM105.266 9.65925C103.771 9.65925 102.828 10.6229 102.551 12.4353H107.842C107.75 10.7376 106.784 9.65925 105.266 9.65925Z" fill="white"/>
<path id="Vector_6" d="M92.5388 20.0294C88.9964 20.0294 86.558 17.4139 86.558 13.6743C86.558 10.0034 89.0884 7.31909 92.5388 7.31909C95.736 7.31909 98.1054 9.47571 98.4965 12.7795H95.138C94.977 11.1505 93.988 10.1411 92.5388 10.1411C90.8825 10.1411 89.8244 11.4947 89.8244 13.6743C89.8244 15.8768 90.8596 17.2075 92.5388 17.2075C94.0109 17.2075 94.9541 16.2439 95.138 14.569H98.4965C98.1284 17.9416 95.828 20.0294 92.5388 20.0294Z" fill="white"/>
<path id="Vector_7" d="M77.3852 13.1236V19.8H74.1877V7.54851H77.1322V9.29216C78.0292 8.0762 79.2944 7.31909 80.9046 7.31909C83.3658 7.31909 85.0679 8.92509 85.0679 11.8847V19.8H81.8937V12.963C81.8937 11.1505 81.1806 10.1411 79.7314 10.1411C78.4662 10.1411 77.3852 11.1505 77.3852 13.1236Z" fill="white"/>
<path id="Vector_8" d="M68.6007 14.6378V7.54846H71.7752V19.8H68.8539V18.194C68.1867 19.2723 66.8295 20.0294 65.2654 20.0294C62.804 20.0294 61.0099 18.5381 61.0099 15.349V7.54846H64.2073V14.7296C64.2073 16.4503 65.0583 17.2074 66.3464 17.2074C67.4967 17.2074 68.6007 16.2897 68.6007 14.6378Z" fill="white"/>
<path id="Vector_9" d="M53.3108 20.0294C49.7454 20.0294 47.0771 17.2304 47.0771 13.6743C47.0771 10.0952 49.7454 7.31909 53.3108 7.31909C56.8761 7.31909 59.5446 10.0952 59.5446 13.6743C59.5446 17.2304 56.8761 20.0294 53.3108 20.0294ZM53.3108 17.2075C54.898 17.2075 56.2552 15.9456 56.2552 13.6743C56.2552 11.4029 54.898 10.164 53.3108 10.164C51.7235 10.164 50.3666 11.4029 50.3666 13.6743C50.3666 15.9456 51.7235 17.2075 53.3108 17.2075Z" fill="white"/>
<path id="Vector_10" d="M46.0773 14.9591C46.0773 18.0105 43.823 19.8 40.1886 19.8H33.725V3.32703H39.9356C43.409 3.32703 45.5483 4.88713 45.5483 7.70912C45.5483 9.22333 44.6972 10.4393 43.225 11.1964C45.0653 11.8388 46.0773 13.1466 46.0773 14.9591ZM39.6597 6.08017H36.8992V9.91163H39.6597C41.3619 9.91163 42.236 9.17746 42.236 7.98443C42.236 6.81433 41.3619 6.08017 39.6597 6.08017ZM39.9127 12.6877H36.8992V17.0469H39.9127C41.7988 17.0469 42.7881 16.2209 42.7881 14.8214C42.7881 13.5137 41.7988 12.6877 39.9127 12.6877Z" fill="white"/>
<path id="Vector_11" d="M21.3729 0.00141469C21.3693 0.225507 21.3639 0.449599 21.3496 0.673693C21.2216 2.73159 20.4527 4.74307 19.1735 6.3626C18.683 7.00185 18.0833 7.54378 17.5194 8.11607C14.1188 11.5096 10.7164 14.9004 7.31585 18.2948C6.33478 19.2609 5.77265 20.6224 5.77087 21.9964C4.06833 21.9973 2.36582 21.9982 0.664185 21.9955C0.667764 21.8009 0.672244 21.6071 0.6803 21.4134C0.808303 18.9636 1.85649 16.5753 3.57513 14.821C7.2872 11.1168 11.002 7.41433 14.714 3.7092C15.6987 2.7423 16.2626 1.37811 16.2653 0.00141447C17.9678 0.000521743 19.6703 -0.00126378 21.3729 0.00141469Z" fill="white"/>
<path id="Vector_12" d="M21.0948 19.61C21.28 20.3912 21.3696 21.1938 21.3732 21.9965C19.6706 22 17.9672 21.992 16.2647 22C16.2584 20.9626 15.9496 19.9261 15.3606 19.069C14.6776 18.053 13.625 17.3021 12.4506 16.9593C13.7377 15.6799 15.0187 14.3952 16.3067 13.1167C18.6931 14.5202 20.4664 16.9173 21.0948 19.61Z" fill="white"/>
<path id="Vector_13" d="M9.58522 5.03791C8.29895 6.31818 7.01711 7.60201 5.72903 8.8814C3.6228 7.63774 1.98474 5.62804 1.20598 3.31212C0.844349 2.24791 0.665323 1.12477 0.661743 0.00162587C2.36516 0.000733144 4.0677 0.00162514 5.77112 0.000732422C5.77379 1.18458 6.18555 2.36218 6.93477 3.28176C7.6097 4.12099 8.55047 4.73704 9.58522 5.03791Z" fill="white"/>
<path id="Vector_14" d="M8.46219 0C8.45805 0.371642 8.53505 0.743778 8.70335 1.08347C9.21356 2.22983 10.6413 2.84317 11.8273 2.41822C12.8611 2.09938 13.5746 1.06089 13.5769 0H8.46219Z" fill="white"/>
<path id="Vector_15" d="M13.5773 21.9974C13.5789 21.7625 13.546 21.5266 13.4746 21.2974C13.3842 20.9796 13.2311 20.6805 13.0261 20.4216C12.2814 19.4351 10.7865 19.1521 9.72937 19.7949C8.94036 20.2319 8.47118 21.1135 8.4624 21.9974H13.5773Z" fill="white"/>
</g>
</g>
</g>
</g>
<defs>
<clipPath id="clip0_1194_6984">
<rect width="141.167" height="22" fill="white"/>
</clipPath>
</defs>
</svg>
