<svg width="64" height="64" viewBox="0 0 64 64" fill="none" xmlns="http://www.w3.org/2000/svg">
<rect width="64" height="64" rx="14.2222" fill="white"/>
<path fill-rule="evenodd" clip-rule="evenodd" d="M15.4079 15.4062C14.3078 15.4063 13.2527 15.8433 12.4747 16.6212C11.6968 17.3991 11.2598 18.4542 11.2598 19.5544V44.4433C11.2598 45.5434 11.6968 46.5985 12.4747 47.3765C13.2527 48.1544 14.3078 48.5914 15.4079 48.5914H48.5931C49.6933 48.5914 50.7484 48.1544 51.5263 47.3765C52.3042 46.5985 52.7412 45.5434 52.7412 44.4433V19.5544C52.7412 18.4542 52.3042 17.3991 51.5263 16.6212C50.7484 15.8433 49.6933 15.4063 48.5931 15.4062H15.4079ZM36.1487 25.7766C36.1487 25.2265 36.3672 24.699 36.7561 24.31C37.1451 23.9211 37.6726 23.7025 38.2227 23.7025H44.445C44.995 23.7025 45.5226 23.9211 45.9115 24.31C46.3005 24.699 46.519 25.2265 46.519 25.7766C46.519 26.3267 46.3005 26.8542 45.9115 27.2432C45.5226 27.6322 44.995 27.8507 44.445 27.8507H38.2227C37.6726 27.8507 37.1451 27.6322 36.7561 27.2432C36.3672 26.8542 36.1487 26.3267 36.1487 25.7766ZM36.1487 31.9988C36.1487 31.4488 36.3672 30.9212 36.7561 30.5323C37.1451 30.1433 37.6726 29.9248 38.2227 29.9248H44.445C44.995 29.9248 45.5226 30.1433 45.9115 30.5323C46.3005 30.9212 46.519 31.4488 46.519 31.9988C46.519 32.5489 46.3005 33.0765 45.9115 33.4654C45.5226 33.8544 44.995 34.0729 44.445 34.0729H38.2227C37.6726 34.0729 37.1451 33.8544 36.7561 33.4654C36.3672 33.0765 36.1487 32.5489 36.1487 31.9988ZM36.1487 38.2211C36.1487 37.671 36.3672 37.1434 36.7561 36.7545C37.1451 36.3655 37.6726 36.147 38.2227 36.147H44.445C44.995 36.147 45.5226 36.3655 45.9115 36.7545C46.3005 37.1434 46.519 37.671 46.519 38.2211C46.519 38.7711 46.3005 39.2987 45.9115 39.6877C45.5226 40.0766 44.995 40.2951 44.445 40.2951H38.2227C37.6726 40.2951 37.1451 40.0766 36.7561 39.6877C36.3672 39.2987 36.1487 38.7711 36.1487 38.2211ZM19.5561 27.8507C19.5561 26.2005 20.2116 24.6178 21.3785 23.4509C22.5454 22.284 24.128 21.6285 25.7783 21.6285C27.4285 21.6285 29.0112 22.284 30.1781 23.4509C31.345 24.6178 32.0005 26.2005 32.0005 27.8507C32.0005 29.5009 31.345 31.0836 30.1781 32.2505C29.0112 33.4174 27.4285 34.0729 25.7783 34.0729C24.128 34.0729 22.5454 33.4174 21.3785 32.2505C20.2116 31.0836 19.5561 29.5009 19.5561 27.8507ZM23.5839 36.147C22.2777 36.1465 21.0045 36.5571 19.9447 37.3206C18.8849 38.0841 18.0922 39.1618 17.679 40.4009L17.5878 40.6768L17.5795 40.7017C17.4924 40.963 17.4654 41.048 17.4924 41.1061C17.5048 41.1331 17.5338 41.1538 17.5712 41.187C17.6375 41.2388 17.7371 41.3197 17.874 41.5085C18.0662 41.7749 18.3189 41.9919 18.6113 42.1415C18.9038 42.2912 19.2276 42.3692 19.5561 42.3692H32.0005C32.329 42.3692 32.6528 42.2912 32.9453 42.1415C33.2377 41.9919 33.4904 41.7749 33.6826 41.5085C33.7669 41.3868 33.8689 41.2784 33.9854 41.187C34.0248 41.1538 34.0497 41.1331 34.0642 41.104C34.0932 41.048 34.0642 40.963 33.9771 40.7017L33.9688 40.6768L33.8775 40.4009C33.4645 39.1621 32.6721 38.0847 31.6127 37.3212C30.5533 36.5578 29.2806 36.147 27.9747 36.147H23.5839Z" fill="url(#paint0_linear_6951_279110)"/>
<defs>
<linearGradient id="paint0_linear_6951_279110" x1="26.5892" y1="15.7655" x2="46.0674" y2="51.4757" gradientUnits="userSpaceOnUse">
<stop stop-color="#1AC9F6"/>
<stop offset="1" stop-color="#1B6BF6"/>
</linearGradient>
</defs>
</svg>
