<svg width="14" height="14" viewBox="0 0 14 14" fill="none" xmlns="http://www.w3.org/2000/svg">
<path fill-rule="evenodd" clip-rule="evenodd" d="M7.00033 3.35482C4.66462 3.35482 2.77116 5.24828 2.77116 7.58398C2.77116 9.91969 4.66462 11.8132 7.00033 11.8132C9.33603 11.8132 11.2295 9.91969 11.2295 7.58398C11.2295 5.24828 9.33603 3.35482 7.00033 3.35482ZM1.89616 7.58398C1.89616 4.76503 4.18137 2.47982 7.00033 2.47982C9.81928 2.47982 12.1045 4.76503 12.1045 7.58398C12.1045 10.4029 9.81928 12.6882 7.00033 12.6882C4.18137 12.6882 1.89616 10.4029 1.89616 7.58398Z" fill="#D7FAD1"/>
<path fill-rule="evenodd" clip-rule="evenodd" d="M7.00033 4.22982C7.24195 4.22982 7.43783 4.42569 7.43783 4.66732V7.3415L8.9822 8.30674C9.1871 8.4348 9.24939 8.70471 9.12133 8.90961C8.99326 9.11451 8.72335 9.1768 8.51845 9.04873L6.76845 7.95498C6.64053 7.87504 6.56283 7.73483 6.56283 7.58398V4.66732C6.56283 4.42569 6.7587 4.22982 7.00033 4.22982Z" fill="#D7FAD1"/>
<path fill-rule="evenodd" clip-rule="evenodd" d="M3.80968 2.02463C3.98054 2.19548 3.98054 2.47249 3.80968 2.64334L2.35135 4.10168C2.1805 4.27253 1.90349 4.27253 1.73263 4.10168C1.56178 3.93082 1.56178 3.65381 1.73263 3.48296L3.19097 2.02463C3.36182 1.85377 3.63883 1.85377 3.80968 2.02463Z" fill="#D7FAD1"/>
<path fill-rule="evenodd" clip-rule="evenodd" d="M10.191 2.02463C10.0201 2.19548 10.0201 2.47249 10.191 2.64334L11.6493 4.10168C11.8202 4.27253 12.0972 4.27253 12.268 4.10168C12.4389 3.93082 12.4389 3.65381 12.268 3.48296L10.8097 2.02463C10.6388 1.85377 10.3618 1.85377 10.191 2.02463Z" fill="#D7FAD1"/>
</svg>
