<svg width="16" height="16" viewBox="0 0 16 16" fill="none" xmlns="http://www.w3.org/2000/svg">
<path d="M8.29887 10.5846L12.6857 5.98051C12.759 5.90369 12.7998 5.80163 12.7998 5.69549C12.7998 5.58935 12.759 5.48729 12.6857 5.41047L12.6808 5.40551C12.6453 5.36814 12.6025 5.33838 12.5552 5.31805C12.5078 5.29771 12.4568 5.28723 12.4052 5.28723C12.3537 5.28723 12.3027 5.29771 12.2553 5.31805C12.208 5.33838 12.1652 5.36814 12.1297 5.40551L7.99898 9.74114L3.86989 5.40551C3.83439 5.36814 3.79165 5.33838 3.74429 5.31805C3.69692 5.29772 3.64592 5.28723 3.59437 5.28723C3.54282 5.28723 3.49182 5.29772 3.44445 5.31805C3.39708 5.33838 3.35435 5.36814 3.31885 5.40551L3.31389 5.41047C3.24066 5.48729 3.1998 5.58935 3.1998 5.69549C3.1998 5.80163 3.24066 5.90369 3.31389 5.98051L7.70074 10.5846C7.73932 10.6251 7.78572 10.6574 7.83712 10.6794C7.88853 10.7014 7.94388 10.7128 7.9998 10.7128C8.05573 10.7128 8.11108 10.7014 8.16248 10.6794C8.21389 10.6574 8.26029 10.6251 8.29887 10.5846Z" fill="#717171" stroke="#717171" stroke-width="0.5"/>
</svg>
