<svg width="36" height="37" viewBox="0 0 36 37" fill="none" xmlns="http://www.w3.org/2000/svg">
<g clip-path="url(#clip0_3895_461576)">
<path d="M30.61 25.0196C29.0031 23.2786 27.0532 21.8892 24.8829 20.9389C22.7127 19.9886 20.3692 19.498 18 19.498C15.6308 19.498 13.2873 19.9886 11.1171 20.9389C8.94681 21.8892 6.99685 23.2786 5.39 25.0196C5.14192 25.2939 5.00314 25.6498 5 26.0196V32.0196C5.00526 32.4139 5.16561 32.7904 5.44635 33.0674C5.72709 33.3443 6.10562 33.4996 6.5 33.4996H29.5C29.8978 33.4996 30.2794 33.3416 30.5607 33.0603C30.842 32.779 31 32.3974 31 31.9996V25.9996C30.992 25.6367 30.8536 25.2888 30.61 25.0196Z" fill="white" fill-opacity="0.2"/>
<path d="M18 17.5C21.866 17.5 25 14.366 25 10.5C25 6.63401 21.866 3.5 18 3.5C14.134 3.5 11 6.63401 11 10.5C11 14.366 14.134 17.5 18 17.5Z" fill="white" fill-opacity="0.2"/>
</g>
<defs>
<clipPath id="clip0_3895_461576">
<rect width="36" height="36" fill="white" transform="translate(0 0.5)"/>
</clipPath>
</defs>
</svg>
