<?xml version="1.0" encoding="UTF-8"?>
<!DOCTYPE svg PUBLIC "-//W3C//DTD SVG 1.1//EN" "http://www.w3.org/Graphics/SVG/1.1/DTD/svg11.dtd">
<svg xmlns="http://www.w3.org/2000/svg" version="1.1" width="50px" height="50px" style="shape-rendering:geometricPrecision; text-rendering:geometricPrecision; image-rendering:optimizeQuality; fill-rule:evenodd; clip-rule:evenodd" xmlns:xlink="http://www.w3.org/1999/xlink">
<g><path style="opacity:1" fill="#fefefd" d="M -0.5,-0.5 C 5.83333,-0.5 12.1667,-0.5 18.5,-0.5C 9.16667,2.83333 2.83333,9.16667 -0.5,18.5C -0.5,12.1667 -0.5,5.83333 -0.5,-0.5 Z"/></g>
<g><path style="opacity:1" fill="#fffdfc" d="M 29.5,-0.5 C 36.1667,-0.5 42.8333,-0.5 49.5,-0.5C 49.5,5.83333 49.5,12.1667 49.5,18.5C 46.5287,9.52862 40.5287,3.52862 31.5,0.5C 30.5084,0.67158 29.8417,0.338246 29.5,-0.5 Z"/></g>
<g><path style="opacity:1" fill="#f8a94b" d="M 18.5,-0.5 C 22.1667,-0.5 25.8333,-0.5 29.5,-0.5C 29.8417,0.338246 30.5084,0.67158 31.5,0.5C 33.3933,3.3048 33.7266,6.3048 32.5,9.5C 31.8076,8.97473 31.3076,8.30806 31,7.5C 29.5024,9.61378 27.6691,10.1138 25.5,9C 26.056,9.38258 26.3893,9.88258 26.5,10.5C 25.71,11.6085 25.21,12.9419 25,14.5C 24.51,13.2068 24.3433,11.8734 24.5,10.5C 23.5,10.5 22.5,10.5 21.5,10.5C 21.5,11.8333 21.5,13.1667 21.5,14.5C 19.8333,14.5 18.1667,14.5 16.5,14.5C 15.7731,18.2243 17.1064,20.8909 20.5,22.5C 23.0789,21.1117 23.0789,19.6117 20.5,18C 23.1667,17.3333 25.8333,17.3333 28.5,18C 24.3825,21.15 20.5492,24.65 17,28.5C 15.872,30.3453 15.372,32.3453 15.5,34.5C 17.5,34.5 19.5,34.5 21.5,34.5C 21.9417,39.6945 22.9417,39.6945 24.5,34.5C 26.0583,39.6945 27.0583,39.6945 27.5,34.5C 29.5,34.5 31.5,34.5 33.5,34.5C 32.4324,35.4345 31.099,35.7678 29.5,35.5C 29.33,36.8221 29.6634,37.9887 30.5,39C 26.5,39.6667 26.5,40.3333 30.5,41C 29.2888,41.8928 29.2888,42.7261 30.5,43.5C 33.5819,43.4749 36.5819,43.8082 39.5,44.5C 36.303,46.5578 32.9697,48.2245 29.5,49.5C 25.8333,49.5 22.1667,49.5 18.5,49.5C 8.73818,46.0719 2.40485,39.4053 -0.5,29.5C -0.5,25.8333 -0.5,22.1667 -0.5,18.5C 2.83333,9.16667 9.16667,2.83333 18.5,-0.5 Z"/></g>
<g><path style="opacity:1" fill="#f8a94b" d="M 31.5,0.5 C 40.5287,3.52862 46.5287,9.52862 49.5,18.5C 49.5,22.1667 49.5,25.8333 49.5,29.5C 47.7967,35.5456 44.4634,40.5456 39.5,44.5C 36.5819,43.8082 33.5819,43.4749 30.5,43.5C 29.2888,42.7261 29.2888,41.8928 30.5,41C 26.5,40.3333 26.5,39.6667 30.5,39C 29.6634,37.9887 29.33,36.8221 29.5,35.5C 31.099,35.7678 32.4324,35.4345 33.5,34.5C 33.9166,28.9114 31.5833,26.578 26.5,27.5C 27.3128,28.8139 28.3128,29.9805 29.5,31C 26.4459,31.8214 23.4459,31.6548 20.5,30.5C 24.4584,27.0433 28.2917,23.3767 32,19.5C 32.4935,17.8659 32.6602,16.1992 32.5,14.5C 30.8333,14.5 29.1667,14.5 27.5,14.5C 27.7678,12.901 27.4345,11.5676 26.5,10.5C 26.3893,9.88258 26.056,9.38258 25.5,9C 27.6691,10.1138 29.5024,9.61378 31,7.5C 31.3076,8.30806 31.8076,8.97473 32.5,9.5C 33.7266,6.3048 33.3933,3.3048 31.5,0.5 Z"/></g>
<g><path style="opacity:1" fill="#fff9f2" d="M 26.5,10.5 C 27.4345,11.5676 27.7678,12.901 27.5,14.5C 29.1667,14.5 30.8333,14.5 32.5,14.5C 32.6602,16.1992 32.4935,17.8659 32,19.5C 28.2917,23.3767 24.4584,27.0433 20.5,30.5C 23.4459,31.6548 26.4459,31.8214 29.5,31C 28.3128,29.9805 27.3128,28.8139 26.5,27.5C 31.5833,26.578 33.9166,28.9114 33.5,34.5C 31.5,34.5 29.5,34.5 27.5,34.5C 27.0583,39.6945 26.0583,39.6945 24.5,34.5C 22.9417,39.6945 21.9417,39.6945 21.5,34.5C 19.5,34.5 17.5,34.5 15.5,34.5C 15.372,32.3453 15.872,30.3453 17,28.5C 20.5492,24.65 24.3825,21.15 28.5,18C 25.8333,17.3333 23.1667,17.3333 20.5,18C 23.0789,19.6117 23.0789,21.1117 20.5,22.5C 17.1064,20.8909 15.7731,18.2243 16.5,14.5C 18.1667,14.5 19.8333,14.5 21.5,14.5C 21.5,13.1667 21.5,11.8333 21.5,10.5C 22.5,10.5 23.5,10.5 24.5,10.5C 24.3433,11.8734 24.51,13.2068 25,14.5C 25.21,12.9419 25.71,11.6085 26.5,10.5 Z"/></g>
<g><path style="opacity:1" fill="#fefdfc" d="M -0.5,29.5 C 2.40485,39.4053 8.73818,46.0719 18.5,49.5C 12.1667,49.5 5.83333,49.5 -0.5,49.5C -0.5,42.8333 -0.5,36.1667 -0.5,29.5 Z"/></g>
<g><path style="opacity:1" fill="#fffdfb" d="M 49.5,29.5 C 49.5,36.1667 49.5,42.8333 49.5,49.5C 42.8333,49.5 36.1667,49.5 29.5,49.5C 32.9697,48.2245 36.303,46.5578 39.5,44.5C 44.4634,40.5456 47.7967,35.5456 49.5,29.5 Z"/></g>
</svg>
