<svg width="16" height="16" viewBox="0 0 16 16" fill="none" xmlns="http://www.w3.org/2000/svg">
<path d="M7.99981 15.2008C6.31981 15.2008 4.83314 14.6906 3.53981 13.6704C2.24647 12.6501 1.40647 11.3469 1.01981 9.76078C0.966474 9.56078 1.00647 9.37758 1.13981 9.21118C1.27314 9.04478 1.45314 8.94798 1.67981 8.92078C1.89314 8.89411 2.08647 8.93411 2.25981 9.04078C2.43314 9.14745 2.55314 9.30745 2.61981 9.52078C2.93981 10.7208 3.59981 11.7008 4.59981 12.4608C5.59981 13.2208 6.73314 13.6008 7.99981 13.6008C9.55981 13.6008 10.8833 13.0573 11.9702 11.9704C13.0571 10.8834 13.6003 9.56025 13.5998 8.00078C13.5998 6.44078 13.0563 5.11731 11.9694 4.03038C10.8825 2.94345 9.55927 2.40025 7.99981 2.40078C7.07981 2.40078 6.21981 2.61411 5.41981 3.04078C4.61981 3.46745 3.94647 4.05411 3.39981 4.80078H4.79981C5.02647 4.80078 5.21661 4.87758 5.37021 5.03118C5.52381 5.18478 5.60034 5.37465 5.59981 5.60078C5.59981 5.82745 5.52301 6.01758 5.36941 6.17118C5.21581 6.32478 5.02594 6.40131 4.79981 6.40078H1.59981C1.37314 6.40078 1.18301 6.32398 1.02941 6.17038C0.875807 6.01678 0.799274 5.82691 0.799807 5.60078V2.40078C0.799807 2.17411 0.876608 1.98398 1.03021 1.83038C1.18381 1.67678 1.37367 1.60025 1.59981 1.60078C1.82647 1.60078 2.01661 1.67758 2.17021 1.83118C2.32381 1.98478 2.40034 2.17465 2.39981 2.40078V3.48078C3.07981 2.62745 3.90994 1.96745 4.89021 1.50078C5.87047 1.03411 6.90701 0.800781 7.99981 0.800781C8.99981 0.800781 9.93661 0.990915 10.8102 1.37118C11.6838 1.75145 12.4438 2.26451 13.0902 2.91038C13.7366 3.55731 14.2499 4.31731 14.6302 5.19038C15.0105 6.06345 15.2003 7.00025 15.1998 8.00078C15.1998 9.00078 15.0097 9.93758 14.6294 10.8112C14.2491 11.6848 13.7361 12.4448 13.0902 13.0912C12.4433 13.7376 11.6833 14.2509 10.8102 14.6312C9.93714 15.0114 9.00034 15.2013 7.99981 15.2008ZM8.79981 7.68078L10.7998 9.68078C10.9465 9.82745 11.0198 10.0141 11.0198 10.2408C11.0198 10.4674 10.9465 10.6541 10.7998 10.8008C10.6531 10.9474 10.4665 11.0208 10.2398 11.0208C10.0131 11.0208 9.82648 10.9474 9.67981 10.8008L7.43981 8.56078C7.35981 8.48078 7.29981 8.39091 7.25981 8.29118C7.21981 8.19145 7.19981 8.08798 7.19981 7.98078V4.80078C7.19981 4.57411 7.27661 4.38398 7.43021 4.23038C7.58381 4.07678 7.77367 4.00025 7.99981 4.00078C8.22647 4.00078 8.41661 4.07758 8.57021 4.23118C8.72381 4.38478 8.80034 4.57465 8.79981 4.80078V7.68078Z" fill="#0D0D0D"/>
</svg>
