<svg width="20" height="20" viewBox="0 0 20 20" fill="none" xmlns="http://www.w3.org/2000/svg">
<path fill-rule="evenodd" clip-rule="evenodd" d="M7.33268 5.41602H13.3327C14.023 5.41602 14.5827 5.97566 14.5827 6.66602V12.666H16.0827V6.66602C16.0827 5.14723 14.8515 3.91602 13.3327 3.91602H7.33268V5.41602ZM6.16602 6.58268C4.92337 6.58268 3.91602 7.59004 3.91602 8.83268V13.8327C3.91602 15.0753 4.92337 16.0827 6.16602 16.0827H11.166C12.4087 16.0827 13.416 15.0753 13.416 13.8327V8.83268C13.416 7.59004 12.4087 6.58268 11.166 6.58268H6.16602ZM5.41602 8.83268C5.41602 8.41847 5.7518 8.08268 6.16602 8.08268H11.166C11.5802 8.08268 11.916 8.41847 11.916 8.83268V13.8327C11.916 14.2469 11.5802 14.5827 11.166 14.5827H6.16602C5.7518 14.5827 5.41602 14.2469 5.41602 13.8327V8.83268Z" fill="#717171"/>
</svg>
