<svg width="33" height="33" viewBox="0 0 33 33" fill="none" xmlns="http://www.w3.org/2000/svg">
<path d="M14.2353 4.49523C15.002 4.02207 15.8852 3.77148 16.7862 3.77148C17.6871 3.77148 18.5703 4.02207 19.337 4.49523L30.6651 11.4849C30.7879 11.5607 30.8896 11.6662 30.9608 11.7917C31.032 11.9173 31.0703 12.0587 31.0723 12.203C31.0742 12.3473 31.0397 12.4898 30.9719 12.6172C30.9041 12.7446 30.8052 12.8528 30.6845 12.9318L19.4445 20.2804C18.6542 20.7972 17.7304 21.0724 16.7862 21.0724C15.842 21.0724 14.9182 20.7972 14.1279 20.2804L4.21476 13.8004V20.7867C4.21476 21.014 4.12446 21.232 3.96371 21.3928C3.80297 21.5535 3.58495 21.6438 3.35762 21.6438C3.13029 21.6438 2.91227 21.5535 2.75153 21.3928C2.59078 21.232 2.50048 21.014 2.50048 20.7867V12.4998C2.50048 12.4507 2.50505 12.4027 2.51191 12.3569C2.48358 12.1887 2.50607 12.0159 2.57651 11.8606C2.64696 11.7052 2.76214 11.5745 2.90733 11.4849L14.2353 4.49523ZM7.64334 18.0884L13.1896 21.7147C14.2588 22.4139 15.5087 22.7862 16.7862 22.7862C18.0637 22.7862 19.3136 22.4139 20.3828 21.7147L25.929 18.0895V23.6427C25.929 23.9844 25.7439 24.1901 25.5256 24.4038C25.417 24.5089 25.2616 24.6552 25.0582 24.8289C24.5079 25.2984 23.9192 25.7208 23.2982 26.0918C21.7759 27.0061 19.553 27.9284 16.7862 27.9284C14.0205 27.9284 11.7965 27.0061 10.2742 26.0918C9.65322 25.7208 9.06449 25.2984 8.51419 24.8289C8.35349 24.6923 8.19721 24.5505 8.04562 24.4038C7.82848 24.1901 7.64334 23.9844 7.64334 23.6427V18.0884Z" fill="white"/>
</svg>
