<svg width="28" height="31" viewBox="0 0 28 31" fill="none" xmlns="http://www.w3.org/2000/svg">
<path d="M12.5 5.16732C12.7889 5.16732 13.028 5.07265 13.2173 4.88332C13.4067 4.69398 13.5009 4.45532 13.5 4.16732C13.5 3.87843 13.4053 3.63976 13.216 3.45132C13.0267 3.26287 12.788 3.16821 12.5 3.16732C12.2111 3.16732 11.9724 3.26198 11.784 3.45132C11.5956 3.64065 11.5009 3.87932 11.5 4.16732C11.5 4.45621 11.5947 4.69532 11.784 4.88465C11.9733 5.07398 12.212 5.16821 12.5 5.16732ZM20.5 30.1673C18.6556 30.1673 17.0836 29.5171 15.784 28.2167C14.4844 26.9162 13.8342 25.3442 13.8333 23.5007C13.8333 21.6562 14.4836 20.0842 15.784 18.7847C17.0844 17.4851 18.6564 16.8349 20.5 16.834C22.3444 16.834 23.9169 17.4842 25.2173 18.7847C26.5178 20.0851 27.1676 21.6571 27.1667 23.5007C27.1667 25.3451 26.5164 26.9175 25.216 28.218C23.9156 29.5184 22.3436 30.1682 20.5 30.1673ZM3.16667 27.5007C2.43333 27.5007 1.80578 27.2398 1.284 26.718C0.762222 26.1962 0.500889 25.5682 0.5 24.834V6.16732C0.5 5.43398 0.761333 4.80643 1.284 4.28465C1.80667 3.76287 2.43422 3.50154 3.16667 3.50065H8.76667C9.05555 2.70065 9.53911 2.05621 10.2173 1.56732C10.8956 1.07843 11.6564 0.833984 12.5 0.833984C13.3444 0.833984 14.1058 1.07843 14.784 1.56732C15.4622 2.05621 15.9453 2.70065 16.2333 3.50065H21.8333C22.5667 3.50065 23.1947 3.76198 23.7173 4.28465C24.24 4.80732 24.5009 5.43487 24.5 6.16732V13.434C24.5 13.834 24.3333 14.1451 24 14.3673C23.6667 14.5895 23.3111 14.634 22.9333 14.5007C22.5556 14.3895 22.1609 14.306 21.7493 14.25C21.3378 14.194 20.9213 14.1664 20.5 14.1673C20.2556 14.1673 20.0276 14.1731 19.816 14.1847C19.6044 14.1962 19.388 14.2238 19.1667 14.2673C19.0556 14.2451 18.9222 14.2229 18.7667 14.2007C18.6556 14.2007 18.5169 14.1953 18.3507 14.1847C18.1844 14.174 18.012 14.1682 17.8333 14.1673H7.16667C6.78889 14.1673 6.47244 14.2953 6.21733 14.5513C5.96222 14.8073 5.83422 15.1238 5.83333 15.5007C5.83333 15.8784 5.96133 16.1953 6.21733 16.4513C6.47333 16.7073 6.78978 16.8349 7.16667 16.834H14C13.6 17.2118 13.2391 17.6229 12.9173 18.0673C12.5956 18.5118 12.312 18.9895 12.0667 19.5007H7.16667C6.78889 19.5007 6.47244 19.6287 6.21733 19.8847C5.96222 20.1407 5.83422 20.4571 5.83333 20.834C5.83333 21.2118 5.96133 21.5287 6.21733 21.7847C6.47333 22.0407 6.78978 22.1682 7.16667 22.1673H11.2667C11.2222 22.3895 11.1947 22.6064 11.184 22.818C11.1733 23.0295 11.1676 23.2571 11.1667 23.5007C11.1667 23.9451 11.1889 24.3673 11.2333 24.7673C11.2778 25.1673 11.3556 25.5562 11.4667 25.934C11.5778 26.3118 11.5222 26.6673 11.3 27.0007C11.0778 27.334 10.7778 27.5007 10.4 27.5007H3.16667ZM19.8333 24.1673V26.834C19.8333 27.0118 19.9 27.1673 20.0333 27.3007C20.1667 27.434 20.3222 27.5007 20.5 27.5007C20.6778 27.5007 20.8333 27.434 20.9667 27.3007C21.1 27.1673 21.1667 27.0118 21.1667 26.834V24.1673H23.8333C24.0111 24.1673 24.1667 24.1007 24.3 23.9673C24.4333 23.834 24.5 23.6784 24.5 23.5007C24.5 23.3229 24.4333 23.1673 24.3 23.034C24.1667 22.9007 24.0111 22.834 23.8333 22.834H21.1667V20.1673C21.1667 19.9895 21.1 19.834 20.9667 19.7007C20.8333 19.5673 20.6778 19.5007 20.5 19.5007C20.3222 19.5007 20.1667 19.5673 20.0333 19.7007C19.9 19.834 19.8333 19.9895 19.8333 20.1673V22.834H17.1667C16.9889 22.834 16.8333 22.9007 16.7 23.034C16.5667 23.1673 16.5 23.3229 16.5 23.5007C16.5 23.6784 16.5667 23.834 16.7 23.9673C16.8333 24.1007 16.9889 24.1673 17.1667 24.1673H19.8333ZM7.16667 11.5007H17.8333C18.2111 11.5007 18.528 11.3727 18.784 11.1167C19.04 10.8607 19.1676 10.5442 19.1667 10.1673C19.1667 9.78954 19.0387 9.4731 18.7827 9.21799C18.5267 8.96287 18.2102 8.83487 17.8333 8.83398H7.16667C6.78889 8.83398 6.47244 8.96198 6.21733 9.21799C5.96222 9.47398 5.83422 9.79043 5.83333 10.1673C5.83333 10.5451 5.96133 10.862 6.21733 11.118C6.47333 11.374 6.78978 11.5015 7.16667 11.5007Z" fill="white"/>
</svg>
