<svg xmlns="http://www.w3.org/2000/svg" width="18" height="18" viewBox="0 0 18 18" fill="none">
  <g clip-path="url(#clip0_4211_438790)">
    <path d="M15.9746 17.9992H16.6496C16.6496 17.9992 16.6496 17.7742 16.6496 17.3242L15.9746 17.9992Z" fill="white"/>
    <path d="M9.67578 15.6375C8.88828 14.85 8.55078 13.6125 8.77578 12.4875C9.00078 11.3625 9.67578 10.4625 10.6883 10.125C10.6883 10.0125 10.5758 9.9 10.5758 9.9C10.5758 9.225 11.4758 9.45 12.1508 8.2125C12.1508 8.2125 15.1883 0 8.88828 0C2.70078 0 5.73828 8.2125 5.73828 8.2125C6.41328 9.3375 7.31328 9.1125 7.31328 9.9C7.31328 10.6875 6.52578 10.6875 5.73828 10.8C4.50078 10.9125 3.37578 10.6875 2.25078 12.7125C1.57578 13.95 1.23828 18 1.23828 18H12.0383L9.67578 15.6375Z" fill="white"/>
    <path d="M16.7617 11.3625C16.5367 11.25 16.1992 11.25 15.9742 11.25C15.1867 11.25 14.5117 11.925 14.0617 12.4875C13.6117 11.925 12.9367 11.25 12.1492 11.25C11.8117 11.25 11.5867 11.25 11.3617 11.3625C10.0117 11.8125 9.78665 13.6125 10.7992 14.625L14.1742 17.8875L17.5492 14.625C18.4492 13.6125 18.1117 11.8125 16.7617 11.3625Z" fill="white"/>
  </g>
  <defs>
    <clipPath id="clip0_4211_438790">
      <rect width="18" height="18" fill="white"/>
    </clipPath>
  </defs>
</svg>