<svg width="32" height="23" viewBox="0 0 32 23" fill="none" xmlns="http://www.w3.org/2000/svg">
<path d="M9.6 11.7C12.695 11.7 15.2 9.195 15.2 6.1C15.2 3.005 12.695 0.5 9.6 0.5C6.505 0.5 4 3.005 4 6.1C4 9.195 6.505 11.7 9.6 11.7ZM13.44 13.3H13.025C11.985 13.8 10.83 14.1 9.6 14.1C8.37 14.1 7.22 13.8 6.175 13.3H5.76C2.58 13.3 0 15.88 0 19.06V20.5C0 21.825 1.075 22.9 2.4 22.9H16.8C18.125 22.9 19.2 21.825 19.2 20.5V19.06C19.2 15.88 16.62 13.3 13.44 13.3ZM24 11.7C26.65 11.7 28.8 9.55 28.8 6.9C28.8 4.25 26.65 2.1 24 2.1C21.35 2.1 19.2 4.25 19.2 6.9C19.2 9.55 21.35 11.7 24 11.7ZM26.4 13.3H26.21C25.515 13.54 24.78 13.7 24 13.7C23.22 13.7 22.485 13.54 21.79 13.3H21.6C20.58 13.3 19.64 13.595 18.815 14.07C20.035 15.385 20.8 17.13 20.8 19.06V20.98C20.8 21.09 20.775 21.195 20.77 21.3H29.6C30.925 21.3 32 20.225 32 18.9C32 15.805 29.495 13.3 26.4 13.3Z" fill="white"/>
</svg>
