<svg xmlns="http://www.w3.org/2000/svg" width="21" height="21" viewBox="0 0 21 21" fill="none">
  <g clip-path="url(#clip0_4601_209965)">
    <path fill-rule="evenodd" clip-rule="evenodd" d="M7.86523 11.1825C8.30726 11.1825 8.73118 11.358 9.04375 11.6706C9.35631 11.9832 9.5319 12.4071 9.5319 12.8491V16.1825C9.5319 16.6245 9.35631 17.0484 9.04375 17.361C8.73118 17.6735 8.30726 17.8491 7.86523 17.8491H4.5319C4.08987 17.8491 3.66595 17.6735 3.35339 17.361C3.04083 17.0484 2.86523 16.6245 2.86523 16.1825V12.8491C2.86523 12.4071 3.04083 11.9832 3.35339 11.6706C3.66595 11.358 4.08987 11.1825 4.5319 11.1825H7.86523ZM16.1986 11.1825C16.619 11.1823 17.024 11.3411 17.3324 11.627C17.6407 11.9129 17.8295 12.3048 17.8611 12.7241L17.8652 12.8491V16.1825C17.8654 16.6029 17.7066 17.0079 17.4207 17.3162C17.1347 17.6246 16.7429 17.8134 16.3236 17.845L16.1986 17.8491H12.8652C12.4448 17.8493 12.0398 17.6904 11.7314 17.4045C11.4231 17.1186 11.2343 16.7267 11.2027 16.3075L11.1986 16.1825V12.8491C11.1984 12.4286 11.3572 12.0236 11.6431 11.7153C11.9291 11.407 12.3209 11.2182 12.7402 11.1866L12.8652 11.1825H16.1986ZM7.86523 12.8491H4.5319V16.1825H7.86523V12.8491ZM16.1986 12.8491H12.8652V16.1825H16.1986V12.8491ZM16.1986 2.84912C16.619 2.84899 17.024 3.00779 17.3324 3.2937C17.6407 3.57961 17.8295 3.97149 17.8611 4.39079L17.8652 4.51579V7.84912C17.8654 8.2696 17.7066 8.67459 17.4207 8.98291C17.1347 9.29123 16.7429 9.48008 16.3236 9.51162L16.1986 9.51579H12.8652C12.4448 9.51592 12.0398 9.35712 11.7314 9.07121C11.4231 8.7853 11.2343 8.39342 11.2027 7.97412L11.1986 7.84912V4.51579C11.1984 4.09531 11.3572 3.69032 11.6431 3.382C11.9291 3.07368 12.3209 2.88482 12.7402 2.85329L12.8652 2.84912H16.1986ZM7.86523 2.84912C8.28571 2.84899 8.69071 3.00779 8.99902 3.2937C9.30734 3.57961 9.4962 3.97149 9.52773 4.39079L9.5319 4.51579V7.84912C9.53203 8.2696 9.37323 8.67459 9.08732 8.98291C8.80141 9.29123 8.40953 9.48008 7.99023 9.51162L7.86523 9.51579H4.5319C4.11142 9.51592 3.70643 9.35712 3.39811 9.07121C3.08979 8.7853 2.90094 8.39342 2.8694 7.97412L2.86523 7.84912V4.51579C2.8651 4.09531 3.02391 3.69032 3.30982 3.382C3.59572 3.07368 3.9876 2.88482 4.4069 2.85329L4.5319 2.84912H7.86523ZM16.1986 4.51579H12.8652V7.84912H16.1986V4.51579ZM7.86523 4.51579H4.5319V7.84912H7.86523V4.51579Z" fill="#BCBCBC"/>
  </g>
  <defs>
    <clipPath id="clip0_4601_209965">
      <rect width="20" height="20" fill="white" transform="translate(0.365234 0.349121)"/>
    </clipPath>
  </defs>
</svg>