<svg width="23" height="29" viewBox="0 0 23 29" fill="none" xmlns="http://www.w3.org/2000/svg">
<path d="M21.5656 13.1624C20.959 11.7969 20.077 10.5714 18.975 9.56236L18.0656 8.72799C18.0347 8.70044 17.9976 8.68088 17.9574 8.67105C17.9172 8.66121 17.8752 8.66139 17.8351 8.67157C17.795 8.68175 17.758 8.70162 17.7273 8.72944C17.6967 8.75726 17.6734 8.79217 17.6594 8.83111L17.2531 9.99674C17 10.728 16.5344 11.4749 15.875 12.2092C15.8313 12.2561 15.7813 12.2686 15.7469 12.2717C15.7125 12.2749 15.6594 12.2686 15.6125 12.2249C15.5687 12.1874 15.5469 12.1311 15.55 12.0749C15.6656 10.1936 15.1031 8.07174 13.8719 5.76236C12.8531 3.84361 11.4375 2.34674 9.66875 1.30299L8.37813 0.543615C8.20938 0.443615 7.99375 0.574865 8.00313 0.77174L8.07187 2.27174C8.11875 3.29674 8 4.20299 7.71875 4.95611C7.375 5.87799 6.88125 6.73424 6.25 7.50299C5.8107 8.03725 5.31278 8.52049 4.76562 8.94361C3.44783 9.95663 2.37629 11.2547 1.63125 12.7405C0.888043 14.2393 0.500907 15.8894 0.5 17.5624C0.5 19.0374 0.790625 20.4655 1.36562 21.8124C1.92083 23.1091 2.72206 24.286 3.725 25.278C4.7375 26.278 5.9125 27.0655 7.22188 27.6124C8.57812 28.1811 10.0156 28.4686 11.5 28.4686C12.9844 28.4686 14.4219 28.1811 15.7781 27.6155C17.0843 27.0718 18.272 26.2789 19.275 25.2811C20.2875 24.2811 21.0812 23.1124 21.6344 21.8155C22.2085 20.4723 22.503 19.0262 22.5 17.5655C22.5 16.0405 22.1875 14.5592 21.5656 13.1624ZM17.7812 23.7655C16.1031 25.428 13.875 26.3405 11.5 26.3405C9.125 26.3405 6.89687 25.428 5.21875 23.7655C3.54688 22.1061 2.625 19.9061 2.625 17.5655C2.625 16.2061 2.93125 14.903 3.53438 13.6905C4.12188 12.5061 4.99687 11.4467 6.05937 10.6311C6.73699 10.113 7.3516 9.51724 7.89062 8.85611C8.67188 7.90299 9.28438 6.84049 9.70938 5.69986C9.88371 5.22936 10.0104 4.74254 10.0875 4.24674C10.8406 4.94049 11.4719 5.77799 12 6.75924C13.0437 8.71549 13.525 10.4561 13.4312 11.9374C13.4089 12.2862 13.4658 12.6356 13.5979 12.9593C13.73 13.283 13.9337 13.5725 14.1938 13.8061C14.4191 14.0097 14.6827 14.1665 14.9692 14.2673C15.2556 14.3682 15.5593 14.4111 15.8625 14.3936C16.4781 14.3624 17.0437 14.0905 17.4562 13.6311C17.8719 13.1655 18.2313 12.6905 18.5312 12.2061C18.9688 12.7655 19.3344 13.3749 19.625 14.0311C20.1219 15.1499 20.375 16.3405 20.375 17.5655C20.375 19.9061 19.4531 22.1092 17.7812 23.7655Z" fill="white"/>
</svg>
