<svg width="12" height="12" viewBox="0 0 12 12" fill="none" xmlns="http://www.w3.org/2000/svg">
<path fill-rule="evenodd" clip-rule="evenodd" d="M6 12C9.31371 12 12 9.31371 12 6C12 2.68629 9.31371 7.18832e-07 6 4.29139e-07C2.68629 1.39447e-07 1.76791e-06 2.68629 1.47821e-06 6C1.18852e-06 9.31371 2.68629 12 6 12ZM6 9C5.66863 9 5.4 8.73137 5.4 8.4L5.4 6C5.4 5.66863 5.66863 5.4 6 5.4C6.33137 5.4 6.6 5.66863 6.6 6L6.6 8.4C6.6 8.73137 6.33137 9 6 9ZM6.6 3.6C6.6 3.93137 6.33137 4.2 6 4.2L5.994 4.2C5.66263 4.2 5.394 3.93137 5.394 3.6C5.394 3.26863 5.66263 3 5.994 3L6 3C6.33137 3 6.6 3.26863 6.6 3.6Z" fill="white" fill-opacity="0.6"/>
</svg>
