<svg width="64" height="64" viewBox="0 0 64 64" fill="none" xmlns="http://www.w3.org/2000/svg">
<rect width="64" height="64" rx="14.2222" fill="url(#paint0_linear_6951_279113)"/>
<g clip-path="url(#clip0_6951_279113)">
<path d="M25.5202 42.444H21.1128C20.4202 42.444 19.8535 41.8773 19.8535 41.1847V28.5922C19.8535 27.8996 20.4202 27.3329 21.1128 27.3329H25.5202C26.2128 27.3329 26.7794 27.8996 26.7794 28.5922V41.1847C26.7794 41.8773 26.2128 42.444 25.5202 42.444ZM34.6498 19.7773H30.2424C29.5498 19.7773 28.9831 20.344 28.9831 21.0366V41.1847C28.9831 41.8773 29.5498 42.444 30.2424 42.444H34.6498C35.3424 42.444 35.9091 41.8773 35.9091 41.1847V21.0366C35.9091 20.344 35.3424 19.7773 34.6498 19.7773ZM43.7794 29.8514H39.372C38.6794 29.8514 38.1128 30.4181 38.1128 31.1107V41.1847C38.1128 41.8773 38.6794 42.444 39.372 42.444H43.7794C44.472 42.444 45.0387 41.8773 45.0387 41.1847V31.1107C45.0387 30.4181 44.472 29.8514 43.7794 29.8514Z" fill="white"/>
<circle opacity="0.7" cx="32.0002" cy="31.9983" r="24.4444" stroke="#F9F9F9" stroke-width="0.888889"/>
</g>
<defs>
<linearGradient id="paint0_linear_6951_279113" x1="49.7778" y1="55.1111" x2="9.77778" y2="4.88889" gradientUnits="userSpaceOnUse">
<stop stop-color="#4F78C8"/>
<stop offset="1" stop-color="#FE743A"/>
</linearGradient>
<clipPath id="clip0_6951_279113">
<rect width="49.7778" height="49.7778" fill="white" transform="translate(7.11133 7.10938)"/>
</clipPath>
</defs>
</svg>
