<svg xmlns="http://www.w3.org/2000/svg" width="21" height="21" viewBox="0 0 21 21" fill="none">
  <path d="M4.61589 17.8492C5.53634 17.8492 6.28255 17.103 6.28255 16.1825C6.28255 15.2621 5.53634 14.5159 4.61589 14.5159C3.69541 14.5159 2.94922 15.2621 2.94922 16.1825C2.94922 17.103 3.69541 17.8492 4.61589 17.8492Z" stroke="#BCBCBC" stroke-width="1.5" stroke-linejoin="round"/>
  <path d="M4.61589 6.18245C5.53634 6.18245 6.28255 5.43629 6.28255 4.51579C6.28255 3.59531 5.53634 2.84912 4.61589 2.84912C3.69541 2.84912 2.94922 3.59531 2.94922 4.51579C2.94922 5.43629 3.69541 6.18245 4.61589 6.18245Z" stroke="#BCBCBC" stroke-width="1.5" stroke-linejoin="round"/>
  <path d="M4.61589 12.0157C5.53634 12.0157 6.28255 11.2695 6.28255 10.349C6.28255 9.42854 5.53634 8.68237 4.61589 8.68237C3.69541 8.68237 2.94922 9.42854 2.94922 10.349C2.94922 11.2695 3.69541 12.0157 4.61589 12.0157Z" stroke="#BCBCBC" stroke-width="1.5" stroke-linejoin="round"/>
  <path d="M9.61523 10.3491H18.7819" stroke="#BCBCBC" stroke-width="1.5" stroke-linecap="round" stroke-linejoin="round"/>
  <path d="M9.61523 16.1824H18.7819" stroke="#BCBCBC" stroke-width="1.5" stroke-linecap="round" stroke-linejoin="round"/>
  <path d="M9.61719 4.51587H18.7839" stroke="#BCBCBC" stroke-width="1.5" stroke-linecap="round" stroke-linejoin="round"/>
</svg>