<svg width="59" height="100" viewBox="0 0 59 100" fill="none" xmlns="http://www.w3.org/2000/svg">
<g clip-path="url(#clip0_3761_652020)">
<path d="M54.7402 0V97.5288C54.7402 99.6323 52.6268 100.725 51.3281 99.2883L47.7903 95.3768L46.0214 93.4187L29.259 74.8842L12.4988 93.428L10.7346 95.3768L7.19686 99.2883C5.89813 100.725 3.78711 99.6323 3.78711 97.5288V9C3.78711 4.02944 7.81655 0 12.7871 0H54.7355H54.7402Z" fill="#F34522"/>
<path d="M12.506 0.00195312V93.4276L10.7441 95.3788V0.00195312H12.506Z" fill="#FFEB4A"/>
<path d="M47.7982 0.00195312V95.3788L46.0293 93.4207V0.00195312H47.7982Z" fill="#FFEB4A"/>
<path opacity="0.59" d="M54.7414 26.2105V54.8148C49.714 63.6122 40.19 69.5487 29.2672 69.5487C18.3443 69.5487 8.82031 63.6122 3.79297 54.8148V26.2105C8.82031 17.4131 18.3443 11.4766 29.2672 11.4766C40.19 11.4766 49.714 17.4131 54.7414 26.2105Z" fill="#C3341D"/>
<path d="M49.9657 58.4222C61.3955 47.0829 61.3955 28.6983 49.9657 17.359C38.5358 6.01975 20.0043 6.01975 8.57449 17.359C-2.85536 28.6983 -2.85536 47.0829 8.57449 58.4222C20.0043 69.7615 38.5358 69.7615 49.9657 58.4222Z" fill="#FFEB4A"/>
<path d="M48.0136 56.5544C58.06 46.5875 58.06 30.4281 48.0136 20.4612C37.9671 10.4944 21.6786 10.4944 11.6321 20.4612C1.58567 30.4281 1.58567 46.5875 11.6321 56.5544C21.6786 66.5212 37.9671 66.5212 48.0136 56.5544Z" fill="#E58D01"/>
<path d="M47.1757 55.652C57.2221 45.6852 57.2221 29.5257 47.1757 19.5589C37.1292 9.59204 20.8407 9.59205 10.7942 19.5589C0.747779 29.5257 0.74778 45.6852 10.7942 55.652C20.8407 65.6189 37.1292 65.6189 47.1757 55.652Z" fill="#FAAF18"/>
<path d="M51.3683 37.6056C51.3683 49.8666 41.3485 59.8069 28.9919 59.8069C19.9544 59.8069 12.169 54.4939 8.63586 46.8441C7.33713 44.0317 6.61328 40.9029 6.61328 37.6056C6.61328 25.3447 16.6331 15.4043 28.9919 15.4043C32.3132 15.4043 35.4646 16.1224 38.2972 17.4085C46.0128 20.9113 51.3706 28.6374 51.3706 37.6056H51.3683Z" fill="#FFEB4A"/>
<path d="M35.352 29.4816L32.2332 32.7328L29.2656 26.7685V17.2461L35.352 29.4816Z" fill="#FEC611"/>
<path d="M29.2699 17.2461V26.7685L26.3024 32.7328L23.1836 29.4816L29.2699 17.2461Z" fill="#FAAF18"/>
<path d="M26.3014 32.7335L19.6681 33.6895L9.57617 31.4428L23.1826 29.4824L26.3014 32.7335Z" fill="#FEC611"/>
<path d="M24.4674 38.3335L19.4214 40.9658L9.57617 31.4434L19.6681 33.69L24.4674 38.3335Z" fill="#FAAF18"/>
<path d="M24.4688 38.332L23.3353 44.8874L17.0977 54.4098L19.4228 40.9643L24.4688 38.332Z" fill="#FEC611"/>
<path d="M29.2703 41.793V48.062L17.0977 54.4095L23.3353 44.8871L29.2703 41.793Z" fill="#FAAF18"/>
<path d="M41.436 54.4095L29.2656 48.062V41.793L35.2007 44.8871L41.436 54.4095Z" fill="#FEC611"/>
<path d="M41.4371 54.4098L35.2018 44.8874L34.0684 38.332L39.1143 40.9643L41.4371 54.4098Z" fill="#FAAF18"/>
<path d="M48.9595 31.4434L39.1143 40.9658L34.0684 38.3335L38.8676 33.69L48.9595 31.4434Z" fill="#FEC611"/>
<path d="M48.9576 31.4428L38.8657 33.6895L32.2324 32.7335L35.3512 29.4824L48.9576 31.4428Z" fill="#FAAF18"/>
<path d="M34.0704 38.3332L35.2039 44.8885L29.2688 41.7944L23.3337 44.8885L24.4672 38.3332L19.668 33.6897L26.3013 32.7338L29.2688 26.7695L32.2363 32.7338L38.8696 33.6897L34.0704 38.3332Z" fill="#FFEB4A"/>
</g>
<defs>
<clipPath id="clip0_3761_652020">
<rect width="58.536" height="99.9395" fill="white"/>
</clipPath>
</defs>
</svg>
