<svg xmlns="http://www.w3.org/2000/svg" width="57" height="57" viewBox="0 0 57 57" fill="none">
  <g clip-path="url(#clip0_2628_114143)">
    <path d="M27.7514 0.151981C27.9879 0.0505786 28.2426 -0.00170898 28.5 -0.00170898C28.7574 -0.00170898 29.0121 0.0505786 29.2486 0.151981L55.1 11.2328L28.5 22.6328L1.9 11.2328L27.7514 0.151981ZM0 14.554V43.7C0 44.46 0.456 45.144 1.1514 45.448L26.6 56.354V25.954L0 14.554ZM30.4 25.954L57 14.554V43.7C57.0003 44.0721 56.8914 44.4361 56.6867 44.7468C56.482 45.0576 56.1906 45.3014 55.8486 45.448L30.4 56.354V25.954Z" fill="white" fill-opacity="0.2"/>
  </g>
  <defs>
    <clipPath id="clip0_2628_114143">
      <rect width="57" height="57" fill="white"/>
    </clipPath>
  </defs>
</svg>