<svg width="20" height="20" viewBox="0 0 20 20" fill="none" xmlns="http://www.w3.org/2000/svg">
<path fill-rule="evenodd" clip-rule="evenodd" d="M13.4 5.3C12.682 5.3 12.1 5.88203 12.1 6.6C12.1 6.78944 12.1405 6.96942 12.2134 7.13173L12.2215 7.14699C12.2296 7.16274 12.237 7.17867 12.2437 7.19474C12.4596 7.61358 12.8963 7.9 13.4 7.9C14.118 7.9 14.7 7.31797 14.7 6.6C14.7 5.88203 14.118 5.3 13.4 5.3ZM10.8 6.6C10.8 6.7785 10.818 6.95279 10.8522 7.12117L7.57529 8.8093C7.09844 8.2527 6.39041 7.9 5.6 7.9C4.16406 7.9 3 9.06406 3 10.5C3 11.9359 4.16406 13.1 5.6 13.1C6.39063 13.1 7.09884 12.7471 7.5757 12.1902L10.8524 13.8782C10.818 14.0468 10.8 14.2213 10.8 14.4C10.8 15.8359 11.9641 17 13.4 17C14.8359 17 16 15.8359 16 14.4C16 12.9641 14.8359 11.8 13.4 11.8C12.6091 11.8 11.9007 12.1531 11.4239 12.7103L8.1475 11.0224C8.18192 10.8537 8.2 10.6789 8.2 10.5C8.2 10.3208 8.18188 10.1459 8.14737 9.97695L11.4235 8.28926C11.9003 8.84669 12.6089 9.2 13.4 9.2C14.8359 9.2 16 8.03594 16 6.6C16 5.16406 14.8359 4 13.4 4C11.9641 4 10.8 5.16406 10.8 6.6ZM6.79553 11.0114C6.86277 10.8545 6.9 10.6816 6.9 10.5C6.9 10.3175 6.86238 10.1437 6.79448 9.98611C6.78797 9.97511 6.78174 9.96385 6.77581 9.95233C6.76457 9.93051 6.75469 9.90836 6.74613 9.88595C6.52691 9.47764 6.09588 9.2 5.6 9.2C4.88203 9.2 4.3 9.78203 4.3 10.5C4.3 11.218 4.88203 11.8 5.6 11.8C6.09522 11.8 6.52576 11.5231 6.74525 11.1157C6.75401 11.0925 6.76419 11.0696 6.77581 11.047C6.78206 11.0349 6.78864 11.023 6.79553 11.0114ZM12.2151 13.8643C12.2173 13.8604 12.2194 13.8564 12.2215 13.8523C12.229 13.8378 12.2358 13.8231 12.2421 13.8083C12.4574 13.3878 12.8951 13.1 13.4 13.1C14.118 13.1 14.7 13.682 14.7 14.4C14.7 15.118 14.118 15.7 13.4 15.7C12.682 15.7 12.1 15.118 12.1 14.4C12.1 14.209 12.1412 14.0277 12.2151 13.8643Z" fill="#717171"/>
</svg>
