<svg width="27" height="27" viewBox="0 0 27 27" fill="none" xmlns="http://www.w3.org/2000/svg">
<path d="M14.8337 9.49984H12.167V6.83317H14.8337M14.8337 20.1665H12.167V12.1665H14.8337M13.5003 0.166504C11.7494 0.166504 10.0156 0.511381 8.39788 1.18144C6.7802 1.85151 5.31035 2.83363 4.07223 4.07175C1.57175 6.57223 0.166992 9.96362 0.166992 13.4998C0.166992 17.0361 1.57175 20.4274 4.07223 22.9279C5.31035 24.166 6.7802 25.1482 8.39788 25.8182C10.0156 26.4883 11.7494 26.8332 13.5003 26.8332C17.0365 26.8332 20.4279 25.4284 22.9284 22.9279C25.4289 20.4274 26.8337 17.0361 26.8337 13.4998C26.8337 11.7489 26.4888 10.0151 25.8187 8.39739C25.1487 6.77972 24.1665 5.30986 22.9284 4.07175C21.6903 2.83363 20.2204 1.85151 18.6028 1.18144C16.9851 0.511381 15.2513 0.166504 13.5003 0.166504Z" fill="white"/>
</svg>
