<svg width="29" height="27" viewBox="0 0 29 27" fill="none" xmlns="http://www.w3.org/2000/svg">
<path d="M14.5 8.5C15.5609 8.5 16.5783 8.07857 17.3284 7.32843C18.0786 6.57828 18.5 5.56087 18.5 4.5C18.5 3.43913 18.0786 2.42172 17.3284 1.67157C16.5783 0.921427 15.5609 0.5 14.5 0.5C13.4391 0.5 12.4217 0.921427 11.6716 1.67157C10.9214 2.42172 10.5 3.43913 10.5 4.5C10.5 5.56087 10.9214 6.57828 11.6716 7.32843C12.4217 8.07857 13.4391 8.5 14.5 8.5ZM8.5 5C8.5 5.45963 8.40947 5.91475 8.23358 6.33939C8.05769 6.76403 7.79988 7.14987 7.47487 7.47487C7.14987 7.79988 6.76403 8.05769 6.33939 8.23358C5.91475 8.40947 5.45963 8.5 5 8.5C4.54037 8.5 4.08525 8.40947 3.66061 8.23358C3.23597 8.05769 2.85013 7.79988 2.52513 7.47487C2.20012 7.14987 1.94231 6.76403 1.76642 6.33939C1.59053 5.91475 1.5 5.45963 1.5 5C1.5 4.07174 1.86875 3.1815 2.52513 2.52513C3.1815 1.86875 4.07174 1.5 5 1.5C5.92826 1.5 6.8185 1.86875 7.47487 2.52513C8.13125 3.1815 8.5 4.07174 8.5 5ZM27.5 5C27.5 5.45963 27.4095 5.91475 27.2336 6.33939C27.0577 6.76403 26.7999 7.14987 26.4749 7.47487C26.1499 7.79988 25.764 8.05769 25.3394 8.23358C24.9148 8.40947 24.4596 8.5 24 8.5C23.5404 8.5 23.0852 8.40947 22.6606 8.23358C22.236 8.05769 21.8501 7.79988 21.5251 7.47487C21.2001 7.14987 20.9423 6.76403 20.7664 6.33939C20.5905 5.91475 20.5 5.45963 20.5 5C20.5 4.07174 20.8687 3.1815 21.5251 2.52513C22.1815 1.86875 23.0717 1.5 24 1.5C24.9283 1.5 25.8185 1.86875 26.4749 2.52513C27.1313 3.1815 27.5 4.07174 27.5 5ZM7.877 10.5C7.30796 11.2088 6.9985 12.091 7 13V20.5C7 21.735 7.298 22.9 7.827 23.927C7.06487 24.3277 6.21216 24.5249 5.35148 24.4993C4.49079 24.4737 3.65129 24.2263 2.91431 23.781C2.17732 23.3357 1.56782 22.7076 1.14484 21.9576C0.72186 21.2076 0.499742 20.3611 0.5 19.5V13C0.5 12.337 0.763392 11.7011 1.23223 11.2322C1.70107 10.7634 2.33696 10.5 3 10.5H7.877ZM21.173 23.927C21.7182 22.867 22.0018 21.692 22 20.5V13C22 12.054 21.672 11.185 21.123 10.5H26C26.663 10.5 27.2989 10.7634 27.7678 11.2322C28.2366 11.7011 28.5 12.337 28.5 13V19.5C28.5003 20.3611 28.2781 21.2076 27.8552 21.9576C27.4322 22.7076 26.8227 23.3357 26.0857 23.781C25.3487 24.2263 24.5092 24.4737 23.6485 24.4993C22.7878 24.5249 21.9351 24.3277 21.173 23.927ZM11 10.5C10.337 10.5 9.70107 10.7634 9.23223 11.2322C8.76339 11.7011 8.5 12.337 8.5 13V20.5C8.5 22.0913 9.13214 23.6174 10.2574 24.7426C11.3826 25.8679 12.9087 26.5 14.5 26.5C16.0913 26.5 17.6174 25.8679 18.7426 24.7426C19.8679 23.6174 20.5 22.0913 20.5 20.5V13C20.5 12.337 20.2366 11.7011 19.7678 11.2322C19.2989 10.7634 18.663 10.5 18 10.5H11Z" fill="white"/>
</svg>
