<svg width="24" height="25" viewBox="0 0 24 25" fill="none" xmlns="http://www.w3.org/2000/svg">
<g id="icon-park-outline:telegram">
<path id="Vector" d="M18.6613 4.65009C18.6613 4.65009 20.5483 3.91424 20.3904 5.70118C20.3385 6.43704 19.8668 9.01278 19.4996 11.7984L18.2416 20.0506C18.2416 20.0506 18.1367 21.2596 17.193 21.4699C16.2497 21.6797 14.8343 20.734 14.5721 20.5237C14.3622 20.3659 10.6407 18.0004 9.33023 16.8444C8.96303 16.5287 8.54337 15.8983 9.38269 15.1624L14.8868 9.90601C15.5158 9.27458 16.1448 7.80287 13.5239 9.59029L6.18474 14.5834C6.18474 14.5834 5.34592 15.1095 3.77366 14.6364L0.365886 13.5848C0.365886 13.5848 -0.892115 12.7965 1.25717 12.0082C6.49949 9.53784 12.9473 7.01504 18.6608 4.64961" fill="white"/>
</g>
</svg>
