<svg width="29" height="21" viewBox="0 0 29 21" fill="none" xmlns="http://www.w3.org/2000/svg">
<path d="M24.4475 2.48C21.8563 1.185 18.4163 0.5 14.5 0.5C10.5837 0.5 7.14375 1.185 4.5525 2.48C1.96125 3.775 0.5 5.5975 0.5 7.5V13.5C0.5 15.4025 1.9775 17.2313 4.5525 18.52C7.1275 19.8088 10.5837 20.5 14.5 20.5C18.4163 20.5 21.8563 19.815 24.4475 18.52C27.0387 17.225 28.5 15.4025 28.5 13.5V7.5C28.5 5.5975 27.0225 3.76875 24.4475 2.48ZM14.5 2.5C22.33 2.5 26.5 5.40375 26.5 7.5C26.5 9.59625 22.33 12.5 14.5 12.5C6.67 12.5 2.5 9.59625 2.5 7.5C2.5 5.40375 6.67 2.5 14.5 2.5ZM13.5 14.4825V18.4825C11.125 18.405 9.125 18.055 7.5 17.5462V13.6313C9.45892 14.1532 11.4732 14.4389 13.5 14.4825ZM15.5 14.4825C17.5268 14.4389 19.5411 14.1532 21.5 13.6313V17.545C19.875 18.0538 17.875 18.4038 15.5 18.4813V14.4825ZM2.5 13.5V11.1912C3.12932 11.7136 3.81828 12.1597 4.5525 12.52C4.85625 12.6713 5.1775 12.8137 5.5 12.9487V16.75C3.52125 15.77 2.5 14.5363 2.5 13.5ZM23.5 16.75V12.9487C23.8263 12.8137 24.1438 12.6713 24.4475 12.52C25.1817 12.1597 25.8707 11.7136 26.5 11.1912V13.5C26.5 14.5363 25.4788 15.77 23.5 16.75Z" fill="white"/>
</svg>
