<svg width="40" height="41" viewBox="0 0 40 41" fill="none" xmlns="http://www.w3.org/2000/svg">
<path d="M20 5.5C14.85 5.5 10.8 9.4125 10.2338 14.4062C9.14456 14.5818 8.12308 15.0485 7.27744 15.757C6.4318 16.4656 5.79346 17.3896 5.43 18.4313C2.355 19.3175 0 22.06 0 25.5C0 29.655 3.345 33 7.5 33H32.5C36.655 33 40 29.655 40 25.5C40 23.3 38.9313 21.33 37.3825 19.9525C37.0925 15.56 33.5887 12.055 29.18 11.8275C27.675 8.16625 24.2225 5.5 20 5.5ZM20 8C23.4525 8 26.2125 10.2125 27.1875 13.35L27.4625 14.25H28.75C32.1937 14.25 35 17.0562 35 20.5V21.125L35.5075 21.5163C36.12 21.9857 36.6177 22.5883 36.9629 23.2785C37.3081 23.9687 37.4918 24.7283 37.5 25.5C37.5 28.345 35.345 30.5 32.5 30.5H7.5C4.655 30.5 2.5 28.345 2.5 25.5C2.5 22.975 4.3125 21.015 6.6 20.6175L7.42125 20.4613L7.5775 19.6388C7.9525 17.955 9.445 16.75 11.25 16.75H12.5V15.5C12.5 11.2875 15.7875 8 20 8ZM20 14.9925L19.1 15.8512L14.1 20.8512L15.9 22.6513L18.75 19.7963V28H21.25V19.7963L24.1 22.6488L25.9 20.8487L20.9 15.8488L20 14.9925Z" fill="white"/>
</svg>
