<svg width="16" height="16" viewBox="0 0 16 16" fill="none" xmlns="http://www.w3.org/2000/svg">
<path fill-rule="evenodd" clip-rule="evenodd" d="M13.4058 6.99211C13.226 7.03173 13.0481 6.91811 13.0085 6.73833C12.5409 4.61695 10.6522 3.08097 8.45119 3.08097C6.53738 3.08097 4.84843 4.24348 4.13743 5.96359L6.72663 5.5073C6.88778 5.47889 7.04229 5.57138 7.09708 5.71962L7.11278 5.77769C7.14119 5.93884 7.0487 6.09335 6.90047 6.14815L6.84239 6.16384L3.5597 6.74267C3.39854 6.77109 3.24404 6.67859 3.18924 6.53036L3.17355 6.47228L2.59472 3.18959C2.56275 3.00829 2.68381 2.83541 2.86511 2.80344C3.02626 2.77502 3.18077 2.86752 3.23556 3.01575L3.25126 3.07383L3.66099 5.39939C4.5409 3.60461 6.38083 2.41431 8.45119 2.41431C10.9667 2.41431 13.125 4.16946 13.6595 6.59484C13.6992 6.77462 13.5855 6.95249 13.4058 6.99211ZM3.77612 9.34271C3.73649 9.16293 3.55863 9.04931 3.37885 9.08893C3.19907 9.12856 3.08545 9.30642 3.12508 9.4862C3.65964 11.9116 5.81786 13.6667 8.33342 13.6667C10.4036 13.6667 12.2434 12.4766 13.1234 10.682L13.5334 13.0072L13.549 13.0653C13.6038 13.2135 13.7584 13.306 13.9195 13.2776C14.1008 13.2456 14.2219 13.0728 14.1899 12.8915L13.6111 9.60876L13.5954 9.55068C13.5406 9.40245 13.3861 9.30996 13.2249 9.33837L9.94222 9.9172L9.88415 9.93289C9.73591 9.98769 9.64342 10.1422 9.67183 10.3034L9.68753 10.3614C9.74232 10.5097 9.89683 10.6022 10.058 10.5737L12.6473 10.1173C11.9363 11.8375 10.2473 13.0001 8.33342 13.0001C6.13239 13.0001 4.24368 11.4641 3.77612 9.34271Z" fill="#E1F25C"/>
<path d="M13.0085 6.73833L12.7644 6.79214V6.79214L13.0085 6.73833ZM4.13743 5.96359L3.90639 5.86809L3.73249 6.2888L4.18082 6.2098L4.13743 5.96359ZM6.72663 5.5073L6.77001 5.75351L6.77004 5.75351L6.72663 5.5073ZM7.09708 5.71962L7.33843 5.6544L7.33549 5.64351L7.33157 5.63293L7.09708 5.71962ZM7.11278 5.77769L7.35898 5.73428L7.35704 5.72327L7.35412 5.71247L7.11278 5.77769ZM6.90047 6.14815L6.96568 6.38949L6.97657 6.38655L6.98715 6.38264L6.90047 6.14815ZM6.84239 6.16384L6.8858 6.41005L6.89681 6.4081L6.90761 6.40519L6.84239 6.16384ZM3.5597 6.74267L3.60311 6.98887H3.60311L3.5597 6.74267ZM3.18924 6.53036L2.9479 6.59558L2.95084 6.60646L2.95475 6.61704L3.18924 6.53036ZM3.17355 6.47228L2.92734 6.5157L2.92929 6.52671L2.9322 6.5375L3.17355 6.47228ZM2.59472 3.18959L2.34852 3.233L2.59472 3.18959ZM2.86511 2.80344L2.90852 3.04964L2.90852 3.04964L2.86511 2.80344ZM3.23556 3.01575L3.47691 2.95053L3.47397 2.93965L3.47006 2.92907L3.23556 3.01575ZM3.25126 3.07383L3.49747 3.03045L3.49552 3.01942L3.4926 3.00861L3.25126 3.07383ZM3.66099 5.39939L3.41478 5.44276L3.54785 6.19807L3.88546 5.50944L3.66099 5.39939ZM13.6595 6.59484L13.9037 6.54104V6.54103L13.6595 6.59484ZM3.37885 9.08893L3.32504 8.84479H3.32504L3.37885 9.08893ZM3.77612 9.34271L3.53198 9.39652H3.53198L3.77612 9.34271ZM3.12508 9.4862L3.36922 9.43239L3.12508 9.4862ZM13.1234 10.682L13.3696 10.6386L13.2365 9.88359L12.899 10.572L13.1234 10.682ZM13.5334 13.0072L13.2871 13.0506L13.2891 13.0616L13.292 13.0724L13.5334 13.0072ZM13.549 13.0653L13.3077 13.1305L13.3106 13.1414L13.3146 13.152L13.549 13.0653ZM13.9195 13.2776L13.8761 13.0314L13.8761 13.0314L13.9195 13.2776ZM14.1899 12.8915L14.4361 12.848V12.848L14.1899 12.8915ZM13.6111 9.60876L13.8573 9.56535L13.8553 9.55434L13.8524 9.54354L13.6111 9.60876ZM13.5954 9.55068L13.8367 9.48547L13.8338 9.47458L13.8299 9.464L13.5954 9.55068ZM13.2249 9.33837L13.1815 9.09217L13.2249 9.33837ZM9.94222 9.9172L9.89881 9.671L9.8878 9.67294L9.877 9.67586L9.94222 9.9172ZM9.88415 9.93289L9.81893 9.69155L9.80804 9.69449L9.79746 9.6984L9.88415 9.93289ZM9.67183 10.3034L9.42563 10.3468L9.42757 10.3578L9.43049 10.3686L9.67183 10.3034ZM9.68753 10.3614L9.44618 10.4266L9.44913 10.4375L9.45304 10.4481L9.68753 10.3614ZM10.058 10.5737L10.0146 10.3275L10.0146 10.3275L10.058 10.5737ZM12.6473 10.1173L12.8783 10.2128L13.0522 9.79202L12.6039 9.87106L12.6473 10.1173ZM12.7644 6.79214C12.8337 7.10676 13.145 7.30559 13.4596 7.23625L13.3519 6.74797C13.307 6.75788 13.2625 6.72947 13.2526 6.68453L12.7644 6.79214ZM8.45119 3.33097C10.5343 3.33097 12.3219 4.78482 12.7644 6.79214L13.2526 6.68453C12.7599 4.44908 10.7701 2.83097 8.45119 2.83097V3.33097ZM4.36847 6.05909C5.04137 4.43117 6.63999 3.33097 8.45119 3.33097V2.83097C6.43477 2.83097 4.6555 4.0558 3.90639 5.86809L4.36847 6.05909ZM4.18082 6.2098L6.77001 5.75351L6.68324 5.2611L4.09404 5.71738L4.18082 6.2098ZM6.77004 5.75351C6.81006 5.74645 6.84895 5.76939 6.86259 5.8063L7.33157 5.63293C7.23562 5.37337 6.96549 5.21133 6.68321 5.2611L6.77004 5.75351ZM6.85574 5.78483L6.87143 5.84291L7.35412 5.71247L7.33843 5.6544L6.85574 5.78483ZM6.86658 5.8211C6.87363 5.86113 6.85069 5.90002 6.81378 5.91366L6.98715 6.38264C7.24671 6.28669 7.40875 6.01656 7.35898 5.73428L6.86658 5.8211ZM6.83525 5.90681L6.77717 5.9225L6.90761 6.40519L6.96568 6.38949L6.83525 5.90681ZM6.79898 5.91764L3.51629 6.49647L3.60311 6.98887L6.8858 6.41005L6.79898 5.91764ZM3.51629 6.49647C3.47626 6.50353 3.43737 6.48058 3.42373 6.44368L2.95475 6.61704C3.0507 6.87661 3.32083 7.03865 3.60311 6.98887L3.51629 6.49647ZM3.43058 6.46514L3.41489 6.40707L2.9322 6.5375L2.9479 6.59558L3.43058 6.46514ZM3.41975 6.42887L2.84092 3.14618L2.34852 3.233L2.92734 6.5157L3.41975 6.42887ZM2.84092 3.14618C2.83293 3.10085 2.86319 3.05763 2.90852 3.04964L2.82169 2.55724C2.50442 2.61318 2.29257 2.91573 2.34852 3.233L2.84092 3.14618ZM2.90852 3.04964C2.94854 3.04258 2.98743 3.06553 3.00107 3.10243L3.47006 2.92907C3.3741 2.6695 3.10397 2.50746 2.82169 2.55724L2.90852 3.04964ZM2.99422 3.08097L3.00991 3.13904L3.4926 3.00861L3.47691 2.95053L2.99422 3.08097ZM3.00505 3.1172L3.41478 5.44276L3.90719 5.35601L3.49747 3.03045L3.00505 3.1172ZM8.45119 2.16431C6.28366 2.16431 4.35763 3.4105 3.43651 5.28933L3.88546 5.50944C4.72416 3.79871 6.478 2.66431 8.45119 2.66431V2.16431ZM13.9037 6.54103C13.344 4.00161 11.0846 2.16431 8.45119 2.16431V2.66431C10.8489 2.66431 12.906 4.33731 13.4154 6.64865L13.9037 6.54103ZM13.4596 7.23625C13.7742 7.16691 13.973 6.85565 13.9037 6.54104L13.4154 6.64865C13.4253 6.6936 13.3969 6.73806 13.3519 6.74797L13.4596 7.23625ZM3.43266 9.33307C3.47761 9.32317 3.52207 9.35157 3.53198 9.39652L4.02026 9.2889C3.95092 8.97428 3.63966 8.77545 3.32504 8.84479L3.43266 9.33307ZM3.36922 9.43239C3.35931 9.38744 3.38772 9.34298 3.43266 9.33307L3.32504 8.84479C3.01043 8.91413 2.81159 9.22539 2.88094 9.54001L3.36922 9.43239ZM8.33342 13.4167C5.93576 13.4167 3.87864 11.7437 3.36922 9.43239L2.88094 9.54001C3.44063 12.0794 5.69997 13.9167 8.33342 13.9167V13.4167ZM12.899 10.572C12.0602 12.2825 10.3065 13.4167 8.33342 13.4167V13.9167C10.5008 13.9167 12.4267 12.6707 13.3479 10.7921L12.899 10.572ZM13.7796 12.9638L13.3696 10.6386L12.8772 10.7254L13.2871 13.0506L13.7796 12.9638ZM13.7904 13.0001L13.7747 12.942L13.292 13.0724L13.3077 13.1305L13.7904 13.0001ZM13.8761 13.0314C13.8361 13.0385 13.7972 13.0155 13.7835 12.9786L13.3146 13.152C13.4105 13.4115 13.6806 13.5736 13.9629 13.5238L13.8761 13.0314ZM13.9437 12.9349C13.9517 12.9802 13.9214 13.0234 13.8761 13.0314L13.9629 13.5238C14.2802 13.4679 14.492 13.1653 14.4361 12.848L13.9437 12.9349ZM13.3649 9.65217L13.9437 12.9349L14.4361 12.848L13.8573 9.56535L13.3649 9.65217ZM13.354 9.6159L13.3697 9.67397L13.8524 9.54354L13.8367 9.48547L13.354 9.6159ZM13.2683 9.58457C13.3084 9.57752 13.3472 9.60046 13.3609 9.63737L13.8299 9.464C13.7339 9.20444 13.4638 9.0424 13.1815 9.09217L13.2683 9.58457ZM9.98563 10.1634L13.2683 9.58457L13.1815 9.09217L9.89881 9.671L9.98563 10.1634ZM9.94936 10.1742L10.0074 10.1585L9.877 9.67586L9.81893 9.69155L9.94936 10.1742ZM9.91804 10.2599C9.91098 10.2199 9.93392 10.181 9.97083 10.1674L9.79746 9.6984C9.5379 9.79435 9.37586 10.0645 9.42563 10.3468L9.91804 10.2599ZM9.92887 10.2962L9.91318 10.2381L9.43049 10.3686L9.44618 10.4266L9.92887 10.2962ZM10.0146 10.3275C9.97455 10.3346 9.93566 10.3117 9.92202 10.2747L9.45304 10.4481C9.54899 10.7077 9.81912 10.8697 10.1014 10.8199L10.0146 10.3275ZM12.6039 9.87106L10.0146 10.3275L10.1014 10.8199L12.6907 10.3635L12.6039 9.87106ZM8.33342 13.2501C10.3499 13.2501 12.1292 12.0252 12.8783 10.2128L12.4162 10.0218C11.7434 11.6498 10.1447 12.7501 8.33342 12.7501V13.2501ZM3.53198 9.39652C4.02468 11.632 6.01452 13.2501 8.33342 13.2501V12.7501C6.25026 12.7501 4.46268 11.2962 4.02026 9.2889L3.53198 9.39652Z" fill="#E1F25C"/>
</svg>
