<svg width="36" height="62" viewBox="0 0 36 62" fill="none" xmlns="http://www.w3.org/2000/svg">
<g clip-path="url(#clip0_4890_387008)">
<path d="M33.6646 -0.00195312V59.9789C33.6646 61.2726 32.3649 61.9443 31.5661 61.061L29.3904 58.6554L28.3025 57.4512L17.9935 46.0523L7.6859 57.4569L6.60089 58.6554L4.42514 61.061C3.62642 61.9443 2.32812 61.2726 2.32812 59.9789V-0.00195312H33.6617H33.6646Z" fill="#F34522"/>
<path d="M7.68514 -0.00195312V57.4555L6.60156 58.6554V-0.00195312H7.68514Z" fill="#FFEB4A"/>
<path d="M29.3887 -0.00195312V58.6554L28.3008 57.4512V-0.00195312H29.3887Z" fill="#FFEB4A"/>
<path opacity="0.59" d="M33.6656 16.1181V33.7099C30.5738 39.1204 24.7164 42.7714 17.9988 42.7714C11.2812 42.7714 5.42388 39.1204 2.33203 33.7099V16.1181C5.42388 10.7076 11.2812 7.05664 17.9988 7.05664C24.7164 7.05664 30.5738 10.7076 33.6656 16.1181Z" fill="#C3341D"/>
<path d="M30.7306 35.9259C37.7601 28.9522 37.7601 17.6455 30.7306 10.6718C23.7012 3.69803 12.3042 3.69803 5.27479 10.6718C-1.75464 17.6455 -1.75464 28.9522 5.27479 35.9259C12.3042 42.8996 23.7012 42.8996 30.7306 35.9259Z" fill="#FFEB4A"/>
<path d="M29.5271 34.7785C35.7057 28.6488 35.7057 18.7106 29.5271 12.5809C23.3484 6.45125 13.3309 6.45125 7.15226 12.5809C0.97362 18.7106 0.973619 28.6488 7.15226 34.7784C13.3309 40.9081 23.3484 40.9081 29.5271 34.7785Z" fill="#E58D01"/>
<path d="M29.0115 34.2218C35.1901 28.0921 35.1901 18.154 29.0115 12.0243C22.8328 5.89461 12.8153 5.89461 6.63663 12.0243C0.457994 18.154 0.457995 28.0921 6.63663 34.2218C12.8153 40.3515 22.8328 40.3515 29.0115 34.2218Z" fill="#FAAF18"/>
<path d="M31.591 23.1247C31.591 30.6652 25.4288 36.7786 17.8294 36.7786C12.2713 36.7786 7.48319 33.511 5.3103 28.8064C4.51158 27.0767 4.06641 25.1525 4.06641 23.1247C4.06641 15.5841 10.2286 9.4707 17.8294 9.4707C19.8721 9.4707 21.8102 9.91234 23.5522 10.7033C28.2973 12.8576 31.5924 17.6091 31.5924 23.1247H31.591Z" fill="#FFEB4A"/>
<path d="M21.747 18.1265L19.829 20.126L18.0039 16.4579V10.6016L21.747 18.1265Z" fill="#FEC611"/>
<path d="M18.0049 10.6016V16.4579L16.1798 20.126L14.2617 18.1265L18.0049 10.6016Z" fill="#FAAF18"/>
<path d="M16.1807 20.1264L12.1011 20.7143L5.89453 19.3326L14.2626 18.127L16.1807 20.1264Z" fill="#FEC611"/>
<path d="M15.0527 23.5695L11.9494 25.1884L5.89453 19.332L12.1011 20.7138L15.0527 23.5695Z" fill="#FAAF18"/>
<path d="M15.0528 23.5703L14.3557 27.6019L10.5195 33.4583L11.9495 25.1892L15.0528 23.5703Z" fill="#FEC611"/>
<path d="M18.0058 25.6992V29.5547L10.5195 33.4585L14.3557 27.6021L18.0058 25.6992Z" fill="#FAAF18"/>
<path d="M25.4848 33.4585L18 29.5547V25.6992L21.6501 27.6021L25.4848 33.4585Z" fill="#FEC611"/>
<path d="M25.4889 33.4583L21.6541 27.6019L20.957 23.5703L24.0603 25.1892L25.4889 33.4583Z" fill="#FAAF18"/>
<path d="M30.1152 19.332L24.0603 25.1884L20.957 23.5695L23.9086 20.7138L30.1152 19.332Z" fill="#FEC611"/>
<path d="M30.1142 19.3326L23.9076 20.7143L19.8281 20.1264L21.7462 18.127L30.1142 19.3326Z" fill="#FAAF18"/>
<path d="M20.963 23.5707L21.6601 27.6023L18.01 25.6994L14.3599 27.6023L15.057 23.5707L12.1055 20.7149L16.185 20.127L18.01 16.459L19.8351 20.127L23.9146 20.7149L20.963 23.5707Z" fill="#FFEB4A"/>
</g>
<defs>
<clipPath id="clip0_4890_387008">
<rect width="36" height="61.4634" fill="white"/>
</clipPath>
</defs>
</svg>
