<svg width="16" height="17" viewBox="0 0 16 17" fill="none" xmlns="http://www.w3.org/2000/svg">
<g clip-path="url(#clip0_3508_273252)">
<path d="M1.53504 12.9991C1.14907 13.6658 1.63013 14.5002 2.40046 14.5002H13.5982C14.3686 14.5002 14.8496 13.6658 14.4637 12.9991L8.86477 3.32832C8.47961 2.66304 7.51909 2.66304 7.13392 3.32832L1.53504 12.9991ZM8.66601 11.8335C8.66601 12.2017 8.36754 12.5002 7.99935 12.5002C7.63116 12.5002 7.33268 12.2017 7.33268 11.8335C7.33268 11.4653 7.63116 11.1668 7.99935 11.1668C8.36754 11.1668 8.66601 11.4653 8.66601 11.8335ZM8.66601 9.16683C8.66601 9.53502 8.36754 9.8335 7.99935 9.8335C7.63116 9.8335 7.33268 9.53502 7.33268 9.16683V7.8335C7.33268 7.46531 7.63116 7.16683 7.99935 7.16683C8.36754 7.16683 8.66601 7.46531 8.66601 7.8335V9.16683Z" fill="#D12A1F"/>
</g>
<defs>
<clipPath id="clip0_3508_273252">
<rect width="16" height="16" fill="white" transform="translate(0 0.5)"/>
</clipPath>
</defs>
</svg>
