<svg width="16" height="17" viewBox="0 0 16 17" fill="none" xmlns="http://www.w3.org/2000/svg">
<path fill-rule="evenodd" clip-rule="evenodd" d="M7.99968 13.8335C10.9452 13.8335 13.333 11.4457 13.333 8.50016C13.333 5.55464 10.9452 3.16683 7.99968 3.16683C5.05416 3.16683 2.66634 5.55464 2.66634 8.50016C2.66634 11.4457 5.05416 13.8335 7.99968 13.8335ZM7.99968 15.1668C11.6816 15.1668 14.6663 12.1821 14.6663 8.50016C14.6663 4.81826 11.6816 1.8335 7.99968 1.8335C4.31778 1.8335 1.33301 4.81826 1.33301 8.50016C1.33301 12.1821 4.31778 15.1668 7.99968 15.1668Z" fill="white"/>
<path fill-rule="evenodd" clip-rule="evenodd" d="M7.99967 5.1665C7.63148 5.1665 7.33301 5.46498 7.33301 5.83317C7.33301 6.20136 7.63148 6.49984 7.99967 6.49984C8.36786 6.49984 8.66634 6.20136 8.66634 5.83317C8.66634 5.46498 8.36786 5.1665 7.99967 5.1665ZM7.99967 7.83317C7.63148 7.83317 7.33301 8.13165 7.33301 8.49984V11.1665C7.33301 11.5347 7.63148 11.8332 7.99967 11.8332C8.36786 11.8332 8.66634 11.5347 8.66634 11.1665V8.49984C8.66634 8.13165 8.36786 7.83317 7.99967 7.83317Z" fill="white"/>
</svg>
