<svg xmlns="http://www.w3.org/2000/svg" width="25" height="24" viewBox="0 0 25 24" fill="none">
  <circle cx="12.5" cy="12" r="12" transform="rotate(90 12.5 12)" fill="white"/>
  <path d="M13.2267 5.625C13.2267 5.22363 12.9014 4.89826 12.5 4.89826C12.0986 4.89826 11.7733 5.22363 11.7733 5.625L13.2267 5.625ZM11.9861 18.8889C12.2699 19.1727 12.7301 19.1727 13.0139 18.8889L17.6389 14.2639C17.9227 13.9801 17.9227 13.52 17.6389 13.2361C17.355 12.9523 16.8949 12.9523 16.6111 13.2361L12.5 17.3472L8.38891 13.2361C8.1051 12.9523 7.64495 12.9523 7.36114 13.2361C7.07733 13.52 7.07733 13.9801 7.36114 14.2639L11.9861 18.8889ZM11.7733 5.625L11.7733 18.375L13.2267 18.375L13.2267 5.625L11.7733 5.625Z" fill="#0D0D0D"/>
</svg>