<svg xmlns="http://www.w3.org/2000/svg" width="16" height="16" viewBox="0 0 16 16" fill="none">
  <path d="M14.2822 1.71693C13.8238 1.25851 13.202 1.00098 12.5537 1.00098C11.9054 1.00098 11.2836 1.25851 10.8252 1.71693L2.17869 10.3649C1.92654 10.6169 1.75256 10.9364 1.67769 11.2849L1.01119 14.3949C0.993614 14.4766 0.996784 14.5614 1.02041 14.6415C1.04404 14.7217 1.08737 14.7946 1.14645 14.8537C1.20552 14.9128 1.27846 14.9561 1.3586 14.9797C1.43873 15.0033 1.52351 15.0065 1.60519 14.9889L4.71519 14.3224C5.06372 14.2476 5.3832 14.0736 5.63519 13.8214L14.2827 5.17393C14.741 4.71544 14.9984 4.0937 14.9984 3.44543C14.9984 2.79716 14.741 2.17543 14.2827 1.71693H14.2822ZM11.5322 2.42393C11.8052 2.1632 12.1694 2.01965 12.5468 2.02398C12.9243 2.02832 13.2851 2.18019 13.552 2.44712C13.8189 2.71405 13.9708 3.07483 13.9751 3.4523C13.9795 3.82977 13.8359 4.19395 13.5752 4.46693L13.1252 4.91693L11.0822 2.87443L11.5322 2.42393ZM10.3752 3.58143L12.4182 5.62443L4.92869 13.1149C4.81281 13.2308 4.66591 13.3106 4.50569 13.3449L2.15019 13.8499L2.65519 11.4949C2.68948 11.3347 2.76936 11.1878 2.88519 11.0719L10.3742 3.58193L10.3752 3.58143Z" fill="#DEDEDE"/>
</svg>