<svg xmlns="http://www.w3.org/2000/svg" width="20" height="21" viewBox="0 0 20 21" fill="none">
  <g clip-path="url(#clip0_3500_253572)">
    <path d="M1.70203 16.499C1.31606 17.1656 1.79712 18 2.56746 18H17.4319C18.2022 18 18.6833 17.1656 18.2973 16.499L10.8651 3.66148C10.4799 2.9962 9.51941 2.9962 9.13425 3.66148L1.70203 16.499ZM10.833 14.6667C10.833 15.1269 10.4599 15.5 9.99967 15.5C9.53944 15.5 9.16634 15.1269 9.16634 14.6667C9.16634 14.2064 9.53944 13.8333 9.99967 13.8333C10.4599 13.8333 10.833 14.2064 10.833 14.6667ZM10.833 11.3333C10.833 11.7936 10.4599 12.1667 9.99967 12.1667C9.53944 12.1667 9.16634 11.7936 9.16634 11.3333V9.66666C9.16634 9.20642 9.53944 8.83332 9.99967 8.83332C10.4599 8.83332 10.833 9.20642 10.833 9.66666V11.3333Z" fill="#FF3030"/>
  </g>
  <defs>
    <clipPath id="clip0_3500_253572">
      <rect width="20" height="20" fill="white" transform="translate(0 0.5)"/>
    </clipPath>
  </defs>
</svg>