<svg xmlns="http://www.w3.org/2000/svg" width="16" height="16" viewBox="0 0 16 16" fill="none">
  <path fill-rule="evenodd" clip-rule="evenodd" d="M9.5002 3.66647C9.50025 3.16026 9.67754 2.67005 10.0013 2.28091C10.3251 1.89178 10.7749 1.62829 11.2726 1.53618C11.7704 1.44406 12.2847 1.52914 12.7262 1.77665C13.1678 2.02415 13.5088 2.41846 13.69 2.89113C13.8712 3.3638 13.8811 3.88499 13.7182 4.36424C13.5552 4.8435 13.2296 5.25056 12.7978 5.51478C12.366 5.779 11.8553 5.88369 11.3544 5.81069C10.8535 5.73769 10.3939 5.4916 10.0555 5.11513L8.2442 6.10313L6.21753 7.26113C6.50087 7.75984 6.57518 8.35046 6.4242 8.9038L10.0555 10.8845C10.4108 10.4897 10.8987 10.2392 11.4265 10.1805C11.9543 10.1219 12.4853 10.259 12.9186 10.5661C13.3519 10.8731 13.6574 11.3286 13.777 11.846C13.8966 12.3634 13.822 12.9067 13.5674 13.3728C13.3127 13.8388 12.8958 14.1951 12.3958 14.374C11.8958 14.5529 11.3475 14.5419 10.855 14.3431C10.3625 14.1443 9.96023 13.7716 9.72448 13.2958C9.48873 12.8199 9.43597 12.274 9.5762 11.7618L5.94487 9.7818C5.66812 10.0896 5.30898 10.3117 4.90996 10.4218C4.51094 10.5319 4.08873 10.5254 3.69329 10.4031C3.29785 10.2807 2.94573 10.0477 2.67859 9.73148C2.41145 9.41528 2.24048 9.02918 2.18591 8.61886C2.13133 8.20854 2.19544 7.79118 2.37064 7.41615C2.54583 7.04112 2.82479 6.72413 3.17451 6.50267C3.52422 6.28122 3.93005 6.16458 4.34398 6.16655C4.75791 6.16853 5.16261 6.28903 5.5102 6.5138L7.75687 5.2298L9.5762 4.23713C9.52563 4.05113 9.50007 3.85922 9.5002 3.66647ZM11.6669 2.4998C11.5137 2.4998 11.3619 2.52998 11.2204 2.58861C11.0789 2.64724 10.9502 2.73318 10.8419 2.84151C10.7336 2.94985 10.6476 3.07846 10.589 3.22C10.5304 3.36155 10.5002 3.51326 10.5002 3.66647C10.5002 3.81968 10.5304 3.97139 10.589 4.11293C10.6476 4.25448 10.7336 4.38309 10.8419 4.49143C10.9502 4.59976 11.0789 4.6857 11.2204 4.74433C11.3619 4.80296 11.5137 4.83313 11.6669 4.83313C11.9763 4.83313 12.273 4.71022 12.4918 4.49143C12.7106 4.27263 12.8335 3.97589 12.8335 3.66647C12.8335 3.35705 12.7106 3.0603 12.4918 2.84151C12.273 2.62272 11.9763 2.4998 11.6669 2.4998ZM4.33353 7.16647C4.02411 7.16647 3.72737 7.28938 3.50858 7.50818C3.28978 7.72697 3.16687 8.02372 3.16687 8.33313C3.16687 8.64255 3.28978 8.9393 3.50858 9.15809C3.72737 9.37688 4.02411 9.4998 4.33353 9.4998C4.64295 9.4998 4.9397 9.37688 5.15849 9.15809C5.37728 8.9393 5.5002 8.64255 5.5002 8.33313C5.5002 8.02372 5.37728 7.72697 5.15849 7.50818C4.9397 7.28938 4.64295 7.16647 4.33353 7.16647ZM10.5002 12.3331C10.5002 12.0237 10.6231 11.727 10.8419 11.5082C11.0607 11.2894 11.3574 11.1665 11.6669 11.1665C11.9763 11.1665 12.273 11.2894 12.4918 11.5082C12.7106 11.727 12.8335 12.0237 12.8335 12.3331C12.8335 12.6426 12.7106 12.9393 12.4918 13.1581C12.273 13.3769 11.9763 13.4998 11.6669 13.4998C11.3574 13.4998 11.0607 13.3769 10.8419 13.1581C10.6231 12.9393 10.5002 12.6426 10.5002 12.3331Z" fill="#DEDEDE"/>
</svg>